<svg xmlns="http://www.w3.org/2000/svg" xmlns:xlink="http://www.w3.org/1999/xlink" viewBox="0 0 1920 1264"><defs><style>.cls-1,.cls-2{stroke:#000;stroke-miterlimit:10;}.cls-1{fill:url(#linear-gradient);}.cls-2{fill:url(#linear-gradient-2);}.cls-3{fill:#f9f8ff;}.cls-4{fill:url(#linear-gradient-3);}.cls-5{fill:url(#linear-gradient-4);}.cls-6{fill:url(#linear-gradient-5);}.cls-7{fill:url(#linear-gradient-6);}.cls-8{fill:url(#linear-gradient-7);}.cls-9{fill:url(#linear-gradient-8);}.cls-10{fill:url(#linear-gradient-9);}.cls-11{fill:url(#linear-gradient-10);}.cls-12{fill:url(#linear-gradient-11);}.cls-13{fill:url(#linear-gradient-12);}.cls-14{fill:url(#linear-gradient-13);}.cls-15{fill:url(#linear-gradient-14);}.cls-16{fill:url(#linear-gradient-15);}.cls-17{fill:url(#linear-gradient-16);}.cls-18{fill:url(#linear-gradient-17);}.cls-19{fill:url(#linear-gradient-18);}.cls-20{fill:url(#linear-gradient-19);}.cls-21{fill:url(#linear-gradient-20);}.cls-22{fill:url(#linear-gradient-21);}.cls-23{fill:url(#linear-gradient-22);}.cls-24{fill:url(#linear-gradient-23);}.cls-25{fill:url(#linear-gradient-24);}.cls-26{opacity:0.63;}.cls-27{fill:#fff;}.cls-28{opacity:0.24;}</style><linearGradient id="linear-gradient" x1="-307.09" y1="748.34" x2="1144.36" y2="748.34" gradientTransform="translate(632.9 -914.04) scale(0.8 1.86)" gradientUnits="userSpaceOnUse"><stop offset="0" stop-color="#8647be"/><stop offset="1" stop-color="#f8aeff" stop-opacity="0"/></linearGradient><linearGradient id="linear-gradient-2" x1="-344.9" y1="737.57" x2="1106.55" y2="737.57" gradientTransform="translate(683.08 -924.22) scale(0.8 1.86)" gradientUnits="userSpaceOnUse"><stop offset="0" stop-color="#8647be"/><stop offset="1" stop-color="#f8aed1" stop-opacity="0"/></linearGradient><linearGradient id="linear-gradient-3" x1="911.81" y1="617.22" x2="911.81" y2="1430.77" gradientUnits="userSpaceOnUse"><stop offset="0" stop-color="#9579be"/><stop offset="1" stop-color="#f8aeff" stop-opacity="0"/></linearGradient><linearGradient id="linear-gradient-4" x1="1792.18" y1="921.54" x2="1792.18" y2="922.91" gradientUnits="userSpaceOnUse"><stop offset="0.34" stop-color="#c896ad" stop-opacity="0.9"/><stop offset="1" stop-color="#c588ff"/></linearGradient><linearGradient id="linear-gradient-5" x1="1805.29" y1="917.96" x2="1805.29" y2="920.08" xlink:href="#linear-gradient-4"/><linearGradient id="linear-gradient-6" x1="1909.19" y1="874.05" x2="1909.19" y2="875.59" xlink:href="#linear-gradient-4"/><linearGradient id="linear-gradient-7" x1="1792.71" y1="923.83" x2="1792.71" y2="926.91" xlink:href="#linear-gradient-4"/><linearGradient id="linear-gradient-8" x1="1896.13" y1="880.59" x2="1896.13" y2="883.34" xlink:href="#linear-gradient-4"/><linearGradient id="linear-gradient-9" x1="1724.13" y1="933.21" x2="1724.13" y2="935.91" xlink:href="#linear-gradient-4"/><linearGradient id="linear-gradient-10" x1="1723.68" y1="929.18" x2="1723.68" y2="932.59" xlink:href="#linear-gradient-4"/><linearGradient id="linear-gradient-11" x1="1684.21" y1="944.58" x2="1684.21" y2="946.88" xlink:href="#linear-gradient-4"/><linearGradient id="linear-gradient-12" x1="1669.73" y1="953.2" x2="1669.73" y2="953.35" xlink:href="#linear-gradient-4"/><linearGradient id="linear-gradient-13" x1="1722.95" y1="926.79" x2="1722.95" y2="926.8" xlink:href="#linear-gradient-4"/><linearGradient id="linear-gradient-14" x1="1890.03" y1="848.78" x2="1890.03" y2="848.79" xlink:href="#linear-gradient-4"/><linearGradient id="linear-gradient-15" x1="1830.5" y1="883.01" x2="1830.5" y2="883.02" xlink:href="#linear-gradient-4"/><linearGradient id="linear-gradient-16" x1="1882.52" y1="842.79" x2="1882.52" y2="842.87" xlink:href="#linear-gradient-4"/><linearGradient id="linear-gradient-17" x1="1769.22" y1="908.92" x2="1769.22" y2="909.5" xlink:href="#linear-gradient-4"/><linearGradient id="linear-gradient-18" x1="1894.44" y1="870.01" x2="1894.44" y2="870.24" xlink:href="#linear-gradient-4"/><linearGradient id="linear-gradient-19" x1="1783.56" y1="836.5" x2="1783.56" y2="969" xlink:href="#linear-gradient-4"/><linearGradient id="linear-gradient-20" x1="1900.7" y1="870.61" x2="1900.7" y2="870.79" xlink:href="#linear-gradient-4"/><linearGradient id="linear-gradient-21" x1="1812.55" y1="891.39" x2="1812.55" y2="891.51" xlink:href="#linear-gradient-4"/><linearGradient id="linear-gradient-22" x1="1868.98" y1="881.71" x2="1868.98" y2="885.97" xlink:href="#linear-gradient-4"/><linearGradient id="linear-gradient-23" x1="944" y1="1439" x2="944" y2="649" xlink:href="#linear-gradient-4"/><linearGradient id="linear-gradient-24" x1="957" y1="820.78" x2="957" y2="1615.03" gradientUnits="userSpaceOnUse"><stop offset="0" stop-color="#3e247f"/><stop offset="0.14" stop-color="#4b2f80" stop-opacity="0.98"/><stop offset="0.37" stop-color="#6d4d84" stop-opacity="0.93"/><stop offset="0.66" stop-color="#a47e8a" stop-opacity="0.85"/><stop offset="0.81" stop-color="#c59a8e" stop-opacity="0.8"/></linearGradient></defs><title>background2</title><g id="Layer_1" data-name="Layer 1"><rect class="cls-1" x="387.83" y="-540.83" width="1158.35" height="2031.67" transform="translate(1442 -492) rotate(90)"/><rect class="cls-2" x="407.83" y="-571.01" width="1158.35" height="2031.67" transform="translate(1431.82 -542.18) rotate(90)"/><path class="cls-3" d="M1479,138.5a1.5,1.5,0,0,0,0-3,1.5,1.5,0,0,0,0,3Z"/><path class="cls-3" d="M857,72.5a1.5,1.5,0,0,0,0-3,1.5,1.5,0,0,0,0,3Z"/><path class="cls-3" d="M273,26.5a1.5,1.5,0,0,0,0-3,1.5,1.5,0,0,0,0,3Z"/><path class="cls-3" d="M1689,142.5a1.5,1.5,0,0,0,0-3,1.5,1.5,0,0,0,0,3Z"/><path class="cls-3" d="M1637,36.5a1.5,1.5,0,0,0,0-3,1.5,1.5,0,0,0,0,3Z"/><path class="cls-3" d="M1031,346.5a1.5,1.5,0,0,0,0-3,1.5,1.5,0,0,0,0,3Z"/></g><g id="Layer_5" data-name="Layer 5"><path class="cls-4" d="M-82.26,898.77S630,789.89,646,789.89s40-7,59,0,10,10.89,20,11.44,14-7.55,22,0,14,17.56,20,14.56,30-19,36-19,16-2.22,16-10.11,26-14.89,26-14.89l9-15s10,1,13,0,16,0,21-8,25-8.34,25-8.34,11.67-17.83,21.33-17.08,29.34-6.92,29.34-1.92,10.66-8.66,8.33-11,6.67-3.33,6.67-3.33,9.66-10.67,16.66-9.67,40.67,6.67,44,21,39.34,3.67,68.34,29c0,0,11.66-.66,13.33,3s38,29,46,29.34,49,9.33,68.33-4.67a35.64,35.64,0,0,1,37.67-3.33s12.67-16.19,25-14.93,39,1.93,40,1.59,17.33-14.33,20.67-14.33,20.66-.67,20.66-3.67,17-12.83,21.67-17.08,12.33-9.25,15-9.25,19.67-14,26.67-14,38.33-25,105.33,3.33c0,0,57.33,38,61.33,36.67s34-6.33,35.34-5.33,13-1,13.33-2,12-7.34,15-7.34,11,2.67,17.33-4.66,20-15.67,22.67-15.67,18.67-5,20-7,17-10.67,19.67-10.33,2.66-8,9-8,42-16.34,70.66-9c0,0,8-5,11-9.67s23.34-12,24.67-12,2.33-11.67,7.33-11.67,19.34-.66,21-2.33,8.34-10,14.34-10,70.66-8,70.66-8l43.6,813.55-2226.23-36Z"/></g><g id="Layer_7" data-name="Layer 7"><path class="cls-5" d="M1792.08,922.81c-.13-.23-.65.1-.65.1s.16-1.13.52-1.3a1.77,1.77,0,0,1,1,0v1.2S1792.2,923,1792.08,922.81Z"/><path class="cls-6" d="M1804.64,918c.17.34,1.38,0,1.38,0,.41.23.65,1.59.65,1.59a.91.91,0,0,1-.65.17,11,11,0,0,0-1.66.29,3.74,3.74,0,0,0-.4-1C1803.71,918.71,1804.48,917.69,1804.64,918Z"/><polygon class="cls-7" points="1909.62 875.08 1908.77 875.59 1908.77 874.48 1909.62 874.05 1909.62 875.08"/><path class="cls-8" d="M1791.87,923.83l.31,1,1.8.57s.41,1.42,0,1.48a4.28,4.28,0,0,1-1.34-.28s0-1.14-.28-1.2a5.06,5.06,0,0,1-1.1-.51l.17-1.08Z"/><path class="cls-9" d="M1896.67,880.59l1,1.38s.24.95,0,1.29-2.25-.59-2.86-.68,0-2,0-2Z"/><path class="cls-10" d="M1722.62,934.56a1.83,1.83,0,0,0,.89,0l.17-.61,1.13-.74s0,.17.65.74,1.25,1.2,1.25,1.2a2,2,0,0,0-.52.39c-.29.29-1.18.23-1.18.23l-.89-.51a7.22,7.22,0,0,0-1,.52c-.09.1-1.38.23-1.51,0S1722.21,934.43,1722.62,934.56Z"/><path class="cls-11" d="M1725.09,932c-.2-.06-.61.34-1,.51a.61.61,0,0,1-.81-.28c-.08-.23-.81-.4-1.18-.46s-.57-.57-.57-.57l.78-1.13h.85l.69-.86c.08-.11.6,0,.6,0l.37,1s.53.74.77.69.16,1.47.16,1.47A4.84,4.84,0,0,0,1725.09,932Z"/><path class="cls-12" d="M1684.59,946.8a.82.82,0,0,1-.67,0c-.31-.17.3-2.22.3-2.22C1684.34,945,1684.59,946.8,1684.59,946.8Z"/><path class="cls-13" d="M1669.87,953.28c.1.12-.06.07-.31,0A.24.24,0,0,1,1669.87,953.28Z"/><path class="cls-14" d="M1722.94,926.79Z"/><path class="cls-15" d="M1890,848.78Z"/><path class="cls-16" d="M1830.49,883h0Z"/><path class="cls-17" d="M1882.55,842.79l-.06.08S1882.49,842.84,1882.55,842.79Z"/><path class="cls-18" d="M1769.16,908.92a1.66,1.66,0,0,1,.13.58S1769.24,909.26,1769.16,908.92Z"/><path class="cls-19" d="M1894.54,870.22c0,.07-.08,0-.19-.21C1894.46,870.09,1894.54,870.16,1894.54,870.22Z"/><path class="cls-20" d="M1647.12,961.21V969H1920V880.56c-.65.23-2.11-.91-2.11-.91l2.11-2s-1.78-1.37-2.11-1.14-1.13-2.27-1.13-2.27v-2.28l1.62-1.59-2,.82s-.06.06,0-.82,1.52-.8,1.52-.8l-1.55-.59,1.19-.52s-1.71.09-1.83-.76a7.77,7.77,0,0,1,0-1.79s.43-.77.91-.43-.3-.94-.3-.94h-1.16s-.12-.94,0-.94h1l-.18-.85h-.85s-.3-1,0-1.28,1.21,0,1.21,0l-1.34-.85c-.18-1,1-.6,1-.6l-1-1.11.27-.94-.86-.76-.3-3.24-.61,3.07-1.21.76a3.77,3.77,0,0,1,.42,1.11c0,.34-1,.94-1.34,1s.73.68.73.68.55.51.25.94a2.11,2.11,0,0,1-1,.59l.86,1-.24,1.11-2.61.08,1.64,1.45a1.07,1.07,0,0,1,.42,1.48,14.91,14.91,0,0,1-1.09,1.59l-1.7-.77,1.88,1.88a8.9,8.9,0,0,1,.12,1.54c-.06.34-2.43,1.1-2.55.85s-1.1-.09-1.1-.09-.48-1.19,0-1.45a7.8,7.8,0,0,0,1-.68l.3-1.19.61.34s-.55-1.2-1-1.28a7.53,7.53,0,0,0-1.46,0v-2.3h1s-.18-.94-.61-.94a1.77,1.77,0,0,1-.91-.43s-.67-.25-.67-.68.49-1.19.67-.94l-.67-.94h.85s-.79-1.11-1.15-1-.79-1.19-.79-1.19v-1.88l-1.22-.6-.85,1.37s.85-.43,1,0,.37,1.79.37,1.79l-.31.77-1.34.42v.94l-.91-.09,1.34,1.37-.91.43s-.55,1.19.12,1.27-1.16.86-1.16.86l-.79.17.92.88H1902l-1.58,1.59-1.89-.08a13.43,13.43,0,0,0,2,2c.15-.15.25-.21.21,0s-.1.08-.21,0a9.14,9.14,0,0,0-.7.83h-1.34s.3.77.49,1.28a7.53,7.53,0,0,1,.06,2,.91.91,0,0,1-.55.51c-.36.09-2.37.26-2.37.26l1.34,1.28s.79,1.53.67,1.87-1,.86-1,.86l-.67-.17s.19-1.45.55-1.28.31-1.11-.55-1.28-2.06-.43-2.12-.68-1.28-.6-1.28-.6-.31-1.28,0-1.54a4.71,4.71,0,0,1,1.15-.51s.55-.77.13-1.36a1.6,1.6,0,0,0-1.71-.86,1.88,1.88,0,0,1-1.4-.25V870l1.71-.6a9.06,9.06,0,0,1,1.33.65,10.31,10.31,0,0,1-.79-1.67l-.06-.34-1.09-.74-1.1.4s-.85-.2-.79-.4.31-1.22.31-1.22.79-1,1.15-.6,1.4,1.36,1.4,1.36.37-.85-.12-1.36,1.34-1.45,1.34-1.45l-1.71-.09-1.46.18-.91-.18s-1.15-.17-1.21-2a5.07,5.07,0,0,1,.54-2.73l.37-1.1,1.4.51s-.49-1.08-1.06-1.2-2.35.8-2.47.12a5.56,5.56,0,0,1,.28-1.94s.94.06,1.14-.45a4.53,4.53,0,0,1,1-1.22l.41-1.11s-.77-.23-1,0-1.93-.1-1.93-.1-.43-.58-.18-.93a3.29,3.29,0,0,1,.61-.62l.81-.46s1-.68,1-.85a6.3,6.3,0,0,1,.28-.68s-.43-.44-.6-.4h0l.93-.28-1.34-.23-.89.8h-.93s-.77-.23-.57-.8a5.61,5.61,0,0,1,.65-1.19l1-.46,1.14-1.48a8.36,8.36,0,0,1-1.14.46l-1,0h-.65s-.53.52-.25-.51a4.28,4.28,0,0,1,1.55-1.87l.56-.35-.28-.79-.93-.34s-.57-.29-.57-.46-.08-1.93-.08-1.93l.28-1.65-.61-1.25h-.81l-.16,1.14s-.2,1.93-.2,2.1a4.57,4.57,0,0,1-.29,1.48c-.16.17-1.78.23-1.94.4s-.73.93-.92,1.17a2.21,2.21,0,0,1,2.13.13l-.12,1.65s-.28,1-.65,1a12.15,12.15,0,0,1-1.42-.12,12.44,12.44,0,0,0-1.33.23v.68l.56.4.77.06.61,1a9.87,9.87,0,0,1-.16,1.48c-.12.46-1.09,1.08-1.09,1.08l-2.11-.28.28,1.82s1.3,1,1.38,1.53,1.09.8,1,1.14-1.33.91-1.33.91l-1.54-.28-.78.22.86,2.85a3.81,3.81,0,0,1,.32,1.53c0,.74.49,3-.53,3.13a12.32,12.32,0,0,0-2.75.91l-1.1,1.42a.89.89,0,0,1,1.1.11c.44.51.69,2,.93,2.33s1.09,1.43,1.09,1.43,1,1.47.65,1.53-5.82-.11-5.82-.11l.31,1.62s2.37,1,2.19,1.87,1.09,2.82,1.09,2.82-.3,1-.55,1-1.7-.42-1.7-.42a3.18,3.18,0,0,0-.91-1.88.91.91,0,0,0-1.22,0,2.3,2.3,0,0,0,0,1.19,8.18,8.18,0,0,1-.08,2.31s-.71.51-.89.42,0-1.62,0-1.62l-.08-2.3-.83-.77-.55-2,.55,3.67-.12,2.81-.43,1.25-1.89.37s-1.27-.34-1.21-.94,2.31-1.19,2.55-.93.67-1.2.37-1.54a6.89,6.89,0,0,0-1.22-.85s-1.28,1-2,.34-1.33-1-.79-2.22,1.71-2.39,2.07-2.05-.48-2-1.21-1.62a5.34,5.34,0,0,1-2.32.09l1.34-2.13,1.52-2.13.55-1.11a4.62,4.62,0,0,1-2.49.76c-1-.17-1-2.55,0-2.47s1.88.26,1.88.26-.42-1.71-1.34-1.62-2.79.25-2.73-.09,1.46-2.81,1.58-2.47,1.4.34,1.4.34a8.52,8.52,0,0,0-1.65-1.28c-.48-.17-1.58-.77-.91-1.37s2-.25,2-.25-.12-1.62-.55-1.62-2,.34-1.88-.34a11.6,11.6,0,0,0,0-2.13s.36-3.93,0-3.93-.84,2.73-.84,2.73l-.92,2.3-1.7.94v2.22l1.16,1.28-1.16.85-1.64-.42a5.76,5.76,0,0,0,0,1.45c.12.25.79,1.27.79,1.27s.61,2.22.06,2.31-2.86,0-2.86,0-.61,1.28.43,1.79a4.08,4.08,0,0,1,1.76,2.47c-.12.17-2.86.85-2.92,1.62a24.25,24.25,0,0,0,.55,3.58l-.24,2.22s.59,1.88-.31,2a8.68,8.68,0,0,1-2.43-.34s-.55,2.17,0,2.7,3.28,2.25,2.67,3.27a4.81,4.81,0,0,1-2.31,1.62,2.11,2.11,0,0,1-1.27-.68s-.06-1.47.42-1.46-.43-.76-.43-.76l-.54.09v-1.45l.73.49h.73l-1.1-1.52-.67-.68.67-.51-.67-.68.55-.77-.55-.77v-1.36l-.73-.94v-2.64l-.6,1.7v1.11l-1.4.51,1.15.86-.42.76-.73.34s.12,1.28.48,1.37-.06.77-.06.77l-1,.17-.61,1.16.61,1.12-.61.87-.79.76.37,2.15s-1-.48-1.22.48a7,7,0,0,0,.3,2.75l.55,1.11-.91.6s-.24-1-.37-1.54-1.58,0-1.58-1.11a3.76,3.76,0,0,1,.43-1.81s.61-.57.79-.57a7.56,7.56,0,0,0,1.21-.6s-.91-.6-1.21-.43a5.18,5.18,0,0,1-1.7-.08s-.37.23-.25-.95a1.43,1.43,0,0,1,1-1.37l1.21.7a3.09,3.09,0,0,0-.3-1.37,10.06,10.06,0,0,0-1.28-1.19s-.84-.94-.63-1.2,2.09-.42,2.15-.17,0-1.87-.79-1.79a4.1,4.1,0,0,1-1.76-.34s.24-4.77,0-4.94-1.1,1-1.1,1v2.56s-.42,1.28-.91,1.36a7.47,7.47,0,0,0-1.64.86l-1-1.11s-.42.85,0,1.28a4.86,4.86,0,0,0,1.22.76l.61.86.06,1s.06,1-.85,1h-1.58v.94l.73.85.12,1.88s-1.16.26-2.07.43a.94.94,0,0,0-.85,1.19c.06.34,1.09,1.28,1.09,1.28s1,.94.79,1.53-1.9.69-1.9.69-1,.34-1,.85,1,4,1,4a16.11,16.11,0,0,1-.12,2.22c-.13.34-.37,1.45-.86,1.45H1833l1.34-1.54s-1.77.43-2-.17a4.06,4.06,0,0,1,0-1.79l1.58.25-1.69-1.44,1-.6s.3-.77-.24-.94-1.65.17-1.71-.26.92-1.36.92-1.36-.8-1.28-.92-1.11-.48-.6-.3-.85,1.4.34,1.4.34-.79-1.37-1-1.37,1.16-.17,1.16-.17l-1.57-.59.78-1,.43-1s-.71-.51-1.21-.26-.44-.87-.44-.87l1.22.36a13.26,13.26,0,0,0-1.19-1.19h0c.15,0,.82-.43.82-.43l-.85-.87-.48-3.14s-.92,2-.73,2.48-1.1.66-1.1.66l.91.7s-.12.68-.48.85l-1.22.58s.85-.06.85.53a11.9,11.9,0,0,1-.18,1.6h-.67v2.75s-.3,1.37-1.09.77-.55-2.47-.55-2.47.79.34.91,0,.64-1.15.37-1.67l-.64-1.15s-1.8.22-1.7-.3.18-1.06.18-1.06a9.2,9.2,0,0,0,1.49-1.24c.15-.3.85-1.58.85-1.58l.46-1a6.09,6.09,0,0,1-1.07.81,6.91,6.91,0,0,1-1.64.34l-.55-.46s-.79-.47.21-1.41,1.71-1.07,2-1l1,.34s-.76-1.75-1.24-1.62a25.56,25.56,0,0,1-3.1,0,13.36,13.36,0,0,0,.7-1.19c.24-.52,1.52-.94,1.7-.9a6.42,6.42,0,0,1,.73.3s-.85-1.58-1.13-1.58a.87.87,0,0,1-.94-.81c-.09-.72.76-1.19.76-1.19l1.25.13s-.64-1.5-.95-1.5-2,.06-2.12-.62a9.76,9.76,0,0,1,0-2.22l.25-3.41s-.61-.46-.81.11-1.14,3.07-1.14,3.07l-.24,1.27a.93.93,0,0,1-.81.89,2.37,2.37,0,0,0-1.3,1s.61.91,1.1.91.6.91.2,1.76-.45,1.25-1.1,1.36-1.7-.56-1.94-.28.61.91.73,1.19.57.23.57,1.48.32,1,0,1.25-.77.17-1.67.29a8.43,8.43,0,0,0-1.25.22s-1,.29,0,.86a4.46,4.46,0,0,1,1.5,2.33c.08.23,1.33,1,1.13,1.48s-2.67.34-2.67.34a9.62,9.62,0,0,0-.82,1.53c0,.23,1.59,5.63,1.1,6s-2.72.4-2.72.4-.56,4.2.73,4.89,1.58,2,1.26,2.33-2.27.62-2.51.34,0-1.88,0-1.88l.85.12a3.94,3.94,0,0,0-1-1,1.9,1.9,0,0,1-.79-.91c0-.17,1.18.06,1.18.06l-1-.91.69-.57-.86-.68s.32-1.08.53-1a5.17,5.17,0,0,1-.53-1.56c-.32-1.53-.6-1.53-.6-1.53s.32,1.47,0,1.82l-1.1,1.13.85.23-.4,1.19s-.53,1.31-.85,1.08-.05.69.6.52-.74,1.25-.74,1.25l-.8,1-.89,1.37s1.34.51,1.3.77-2.19.48-2.19.48,1.66.06,1,2-2,1.93-2,1.93a8.6,8.6,0,0,0,1.14,2.33c.53.51.61,1.94.24,2a12.61,12.61,0,0,1-2.59-.57s2.07,2.39,1.5,3.07-2.07-.79-2.07-.79-.36,2.27,0,2.5-.93,1.25-.93,1.25,2,1.42,1.7,2.44-1.5.74-1.7.63.16-1.59-.49-1.65-1.17-1.19-1.13-1.59,1,.57,1,.57-.16-1.65-.61-1.88.61-.85.85-.51.53-.8,0-1-1.82.91-1.82-.17.48-1.7.73-1.53,0-1.08-.25-1.14a6.69,6.69,0,0,1,.94.06l-1-.8s-.24-.85-.08-1.08.81-.06.81-.06a6.55,6.55,0,0,1-1.17-1.53c-.16-.51-1.18-1.25-.49-1.48s-.45-.68-.49-1-.6-1.31,0-1.19.13-1,.13-1l-.21-2.11-.52-1.53s-.57,2.55-.61,2.84-.65.62-.85.68,0,1.25.24,1.48-1.1.85-1.1.85,1.42.23,1.3.57a7.4,7.4,0,0,1-.93,1.25s.16.4-.73.91a2.3,2.3,0,0,0-1.09,1.25s1.62-.85,1.7-.57a3.29,3.29,0,0,1-.33,1.54,9.59,9.59,0,0,1-1.37-.06,9.78,9.78,0,0,0,.24,2.22c.2.28.36,1.76,0,1.93a4.4,4.4,0,0,1-1.71-.22s1.63,2.16,1.51,2.55.24,1.37-.13,1.54-2.59-.68-2.79-.4,2,1,2,1.59a9.8,9.8,0,0,1-.32,1.82h-.85s-.68-.68-.87-.57a7.66,7.66,0,0,0-.63,2.11c-.25,1-.65,2.84-1.26,2.61s-1.26-1.19-.93-1.7-.09-1.82-.09-1.82,0-1.2.33-1.31a4.27,4.27,0,0,1,1.42.28s-.85-1.47-1.09-1.36-.66-.51-.66-.51l.78-.74v-.63l-.49-.11-.49-1.08c.73-.17.17-.68.17-.68s-.21-.06-.33-.57.53-.34.53-.34-.23-1-.54-1-.64-.17-.6-1.7-.4-.34-.4-.34a7.54,7.54,0,0,1,0,1.65,7.83,7.83,0,0,1-1.1.74s-.36.39,0,.68.61.91.49,1-1,0-1,.52.16,1.59,0,1.82a8,8,0,0,1-1,.79s1,.17.93.74a8.67,8.67,0,0,1-.48,1.54l-.93.39s0,2.51,0,2.62.44,1.55-.9,1.46,0,1.37,0,1.37,1.63,1.55.81,1.55h-1.09l-.31-.63h-1.19s-.65-1.68-.28-1.61a5.75,5.75,0,0,1,1.21.69s-1.09-1.75-1.54-1.86-.69-1.14-.57-1.31,1.3.34,1.3.34l-1.33-1.65h1.09s-1.14-2.1-1.42-2.1-.61-1.42-.33-1.71-.56-.74-.64-1,.4-1.25.4-1.25l.85.51s-.56-1.37-.77-1.37-.81.34-.81-.22,1.22-.57,1.22-.57-.65-.91-.89-1-.25-.62-.33-1,.81-.34.81-.34l-.81-.85s-.44.06-.36-.57,1.29-.17,1.29-.17-1.27-1.19-1.3-1.19,0-2.28,0-2.28-.44-.45-.64-.11.44,2.1,0,2.27-1.38.52-1.58.91,1,.46,1,.46l-.61.85-1.94.91s1.66-.51,1.74-.23a6.87,6.87,0,0,1-.08,1.42l-.57.46.16,1.82-.08,1s-.81.73-.89,0a2.08,2.08,0,0,0-.57-1.2l1.14-1-.29-.91s-1,0-1.17-.18a8,8,0,0,1,0-1.7l1-.17s-1.42-.29-1.46-.8,0-1.93,0-1.93l.41-.63-.73-.05-1.58-3.13.24,3.18,0,1.94-1.79,1.19,2-.34-1.22,1.31,1.1-.12a3.37,3.37,0,0,1-.45,2.39,4.61,4.61,0,0,1-2.39,1.31s2.11.23,2.07.57-1.66.79-1.66.79l-.73.8s1-.34,1.46-.06a.76.76,0,0,1,.2,1.08,5.13,5.13,0,0,1-1,.63s.77,1.42-.33,1.88-.93-1.54-.93-1.54l1.58-1.08a3.57,3.57,0,0,1-1.59-.23c-.36-.28-.76-.74-.52-1.13a4.77,4.77,0,0,1,1.18-1h-1.06l1.95-2.22s-2.43,1.76-2.88,1,.69-1.59.69-1.59-1.42-.12-1.54-.63.69-1.71,1.42-1.31a1.39,1.39,0,0,1,.6.67c-.2-.79-.59-2.14-1.05-2.26-.65-.17,1.22-1.42,1.22-1.42s-3.85.74-3.73-.28a2.91,2.91,0,0,1,.93-1.71l.49-.91-.29-.63s-.93.63-1.13.23,0-1.36,0-1.36l1.13.22s.53-.28.08-.56a6.81,6.81,0,0,1-1-.86,1.87,1.87,0,0,1-.33-.51c-.11-.28,1.39,0,1.39,0s-.92-1.08-1.39-1.08-.52-.79-.36-.85a9.71,9.71,0,0,1,1.54.23s-.28-1.14-1.17-1.14-.62-.34-.45-.68.85.11.85.11-.28-1.48-.61-1.59-.6-1-.42-1.08.91.68.91.68l-1.26-3.24-.81,2.22s0,1.08.37,1,0,.69-.37.69a3.47,3.47,0,0,0-1.09.51s.44,1,.85.74-.85,1-.85,1l-1,.63a1.82,1.82,0,0,0,1.33.06c.57-.29-.56,1.25-.56,1.25s-1.06.74-1.06,1.08.69,0,1.38,0-1.62,1.3-1.62,1.3a1,1,0,0,0,1,.52c.77-.12-.77,1.82-.77,1.82s0,1.7-.48,1.81a1.07,1.07,0,0,1-.94-.34,1.43,1.43,0,0,0,0-.91c-.16-.45-1.13-1-.52-2.33s1.17-1.59,1.17-1.59l.29-1.48s-.25-.4-.61-.34-1.38.06-1.38.06-1.46.4-1.22-.34a5,5,0,0,1,.94-1.48l1.86-.4s.16-1.31-.89-1.48-2.48.06-2.48-.4a7.17,7.17,0,0,1,.45-1.59s.2-1.48.93-.91-.24-1.3-.6-1.42-1.3.91-1.3.91-.85,0-.53-1.53,1.78-.46,1.78-.46a13,13,0,0,0-1.13-1.82c-.28-.23.61-.68.61-.68l-1.54-.06-.69-4.15s-.85-.11-.94.4a22,22,0,0,0,0,3.64c.13.17.42,1.36-.07,1.31s-2.32.45-2.36,1.19,1,.28,1.66.17.45,1.31.45,1.31l-1.46,1.14a3,3,0,0,1,1.46.62c.37.46-.45,1.25-.45,1.25l-2.23.12-.36,1a2.76,2.76,0,0,1,1.91.23c1,.51.28,1.48.28,1.48s-1.91-.46-2.19.11,1.5.57,1.74,1.08.57,1.59,0,1.88l-1.73.79s-.6,2,0,2.05.35,1.36.35,1.36-1.74-.4-2,.23,1,4.26.4,4.78-.65,2.21-.65,2.21l.17.69-.17.85-1.05.34s0-.51-.37.74a7.3,7.3,0,0,1-1.58,2.5s.73.63.85.51a9,9,0,0,1-.48,1.48l1.46.85s.48,1.48-.25,1.42-1-.28-1.58-.28-1.05,1.36-1.05,1.36l.44.94a5.43,5.43,0,0,1-.27,1.28c-.15.22.67.77.49,1.37s-.43,1.28-.43,1.28l.21.68s1.25.51,1.13.72-.79.3-.79.3l-1.67.73v-2l.91.05s-.43-.94-.64-.86-.3-2.13-.09-2l.64.42s-.22-1-.52-1-.94.43-1-.29.67-.6.67-.6l-.52-.73.73-.12-.76-.6.94-1.24s-1.12,1.07-1.37.77.67-1.66.67-1.66l1.07.42s-1.52-1-1.62-1.36.76,0,.76,0l-.92-1,1.41.34-1.09-1c-.31-.25.48-.81.48-.81l-1-.55-.27-1.32.88.12-.88-1.28-.31-2.34-.48,1.75-1.74,1.4,1.25.3-.88,1.11-.89.3-.63.56a8.35,8.35,0,0,0,1,0c.76,0,.06,1.36.06,1.36s-1.49.17-1.7.47a1.27,1.27,0,0,0-.15.77s.82-.56,1.33-.43-.39.43-.39.43l.64.72s.39.17.15.94a1,1,0,0,1-1.07.68,2.5,2.5,0,0,0-.36,1.5c0,1,0,2.13,0,2.13l-1.37-.34a7.41,7.41,0,0,0,.64,2c.4.64.73,1.45.58,1.58s-.79,1-1,.43-.39-1.2-.79-1.2a2.28,2.28,0,0,1-1-.42s-.3-.6-.15-.94,1,0,1,0,.06-1.36-.52-1.49a3.76,3.76,0,0,1-1.21-.64v-.81a7.83,7.83,0,0,1,1.25.64c.06.13.06-1.07-.25-1.2s.12-.51.34-.38.63.43.63.43-.18-.86-.79-1,1.1-.38,1.1-.38-.91-1.28-1.61-1.32-1.28.85-1.34-.17,1.06-1.11,1.06-1.11-.18-1.54-1.24-1.58,0-1.07,0-1.07l.88.35s-.37-1.63-.76-1.58-.73-.94-.6-.94,1.48.51,1.48.51-1-1.49-1.51-1.45-.5-.72-.5-.72h1.22s-.24-.77-.82-.77-.4-.81-.4-.81l1.22.13s-.4-.94-.55-1-.64-.9-.15-1.16-.54-.21-.54-.21-.16-2.73-.43-2.73,0,2.69,0,2.69l-.79-1.15a8.7,8.7,0,0,0,.36,1.45c.12.12-1.49.89-1.49.89l.82.22-.09,1.36s-1,.21-1.28.6a2,2,0,0,0-.27.85s.85-.85,1-.55a7.63,7.63,0,0,1-.12,1.79,7.6,7.6,0,0,0-1.4,0c-.15.08-.54.34-.54.51s.48.17.48.17l.55.17-.34.81s.7-.25.73-.13a8.77,8.77,0,0,1,0,1,8.16,8.16,0,0,0-.91,0,9.32,9.32,0,0,0-.85.43l-.21,1.32,1.15-.34-.09,1.23-.36,1-.91.13-.67.56-.49.81.94-.34.22.64-.58.59-.22.81,1-.51.3.51s.31,1-.21,1-1.46,0-1.46,0l-.91.47-.52-.47s-.21.64,0,.64.85,1.19,1,1.15.46-.47.61-.21.67-.09.43.85-.79.68-.91.68-.55-.42-.76-.42-.46,1.57-.46,1.57l-.61,1-.49.32s-.64-.85-.81-.85h-1.33s.48-1,.77-1,.48,0,.56.12l-.6-1.25-1-.4V924s-.81-.91,0-1-.36-1-.36-1l-1.26,0s-.73.28-.65-.46c0,0-.65-1.14.37-1.36a2.08,2.08,0,0,0,1.33-1.43s.57-.85,1-.79-.37-1-.81-.85-1.75.73-2.07.34,0-1.08,0-1.08l.57-.52s.85-.79.85-1,1-.11,1-.11,0-1.42-.57-1.37-3.12.51-3.08.17a5.12,5.12,0,0,1,.89-1.3l.53-.69,1.06.06s0-1-.53-1.14-1.46-.39-1.46-.39-.41-.8-.24-1.14,2-.74,2-.74a1.25,1.25,0,0,0-.69-1.19c-.77-.4-1.54-.91-1.54-.91l.49-2.11-.24-3.13a4.86,4.86,0,0,0-.78,1.43c0,.45-.24,1.82-.32,2.16a10.84,10.84,0,0,1-.93,1.59l-1.66.85-.37,1s1.38-.11,1.5.35-.53,1.64-.53,1.64l-2.55.35-.49,1.19s1.58-.45,1.83-.11-.53,1.53-.53,1.53l.85.34a3.85,3.85,0,0,1-.24.86,22.64,22.64,0,0,1-3,.68l-.61.57.73,1,.69.57s-.2,1,.24,1,1.34,1.26,1.34,1.26.65.62,0,1-2.07.11-2.76,0a3,3,0,0,0-1.5.28l1.06.29-.81,1,1.54-.34a7.61,7.61,0,0,1-.21,1.71,16.19,16.19,0,0,0,0,3.69c.13,0,0,1.43-.68,1.6a22,22,0,0,1-2.84.22l.77,1.43s2.71,3.6,2.19,4.64a2.31,2.31,0,0,1-1.83,1.1s.25-1.65.25-1.88-.17-1.25-.61-1.48.08-1,.08-1l-1.06-.86-1.41-.05-1.18-.51.16-1.26,1.54-1.36.65-.85,1.5,0a4.33,4.33,0,0,1-1.17-.68c-.33-.34-1.38-.23-1.38-.23l-.81-.05.56-1.37,1.1-.34,1.58.29-1.46-1.82.32-1-1-.68s-1.18-1.36-.28-1.19-.21-1.08-.21-1.08l1.91,1-1.83-1.93a4.27,4.27,0,0,1-.52-1.25c0-.46-.85-1.25-.85-1.25s-1.1-1.82-.94-2.16,1.14-2,1.14-2l-1.15.51-.47-3.75-.33,3.41-.85-1,.53,2.68s-.12-.17-1,.51a8.5,8.5,0,0,0-1.74,2.56l1.66.28-.44,1.93-1.62.4-.73-.22-.82,1.08a4.3,4.3,0,0,0,1.22.17c.45-.06.53.85.45,1.13s.08,1.71-.21,1.94-1.46,1-1.46,1l-1.54-.11s0,1.13.81,1.42,1.75,1.82,1.75,1.82a8.7,8.7,0,0,1,0,2c-.16,0-1.7-.79-2.6-.11s-.93,2.51-.93,2.51l.89-.46a3,3,0,0,1,.45,1.08c0,.45-.28,2.21-.37,3.41s-2.31,1.76-2.31,1.76h-1.54l-.52,1s.16-.06,1,.34,2.07,1.36,2.07,1.87.69,1.48.73,1.65.12,1.71-.53,1.77-4.46-.34-4.66,0,2.49,2.16,2.49,3.44a6.1,6.1,0,0,0,1.28,2.9l-1.95.59-1-1.11-.8-1.62s-.42,1.71-1,2-.79-1.28-.54-1.53.91.08.91.08l-1.34-1.19.91-.43-.91-.68.91-.51-.91-1.11,1.7.51-1.7-1.79.73-.6a3.27,3.27,0,0,1-.73-.43,7.52,7.52,0,0,0-.49-1.19c-.24-.43.79-.43.79-.43s-.62-1-.82-1.27.76-.43.76-.43-1.27-.85-1.27-1.62-.67,1.36-.67,1.36l-1,.51,1,.35s-.12,1.28-.61,1.28.3.76.3.76l-1.15.43,1.09.85-1.64-.17-1.88-.6,1.09-1.36s.55-.09.61.09.67-1.28-.25-1.28-1.45-1.54-1.45-1.54.42-.6.6-.6,1,1,1,1l-.43-1.54h1.4l-2.25-.57s-1-1.47-.73-1.9a19.31,19.31,0,0,0,.49-3.12l-1-.63-.79,3.58s-.18,1-.42,1.11-2,1-2,1l-.61,1h2.07l-.3,2.13-1.77.26a.38.38,0,0,0-.67.08,13.61,13.61,0,0,1-1.27,1.54l1.52-.26,1.27,1.28s-.3,1.62-.85,1.79a14,14,0,0,1-2.37.17l-1.34,1.2h1.28a3.33,3.33,0,0,1,.06,1.19,1,1,0,0,1-.55.59c-.18.09-1.34.52-1.34.52l1.22.25-.12.86-1.1.76-1,.94h1l-.06,2.65h-1.82l1.34,1.11s.79.93.61,1.53-1.65,0-1.65,0a40.63,40.63,0,0,1-.3,4.52,16.7,16.7,0,0,1-1.46.85s0,1.71-.61,1.11a3.56,3.56,0,0,1-.73-1.87l1.46-.35s.37-1.45-.36-1.62-1.34-.85-1.52-.85-1.16-.08-1.16-.08-.73-.77,0-1.2a6.36,6.36,0,0,0,1.46-1.36l.61-.94a1.47,1.47,0,0,1,.42-.48c-.51-.22-1.4-.71-1.4-.71l-1.41.42a3.27,3.27,0,0,0,0-1c-.11-.34,1.6-.94,1.6-.94l1.21-.08.73.93-.85-2.38a4.53,4.53,0,0,0-.67-1c-.18-.08-1.76-.25-1.76-.25l-1,.17s-1.16-2.4-.8-2.61a4.43,4.43,0,0,0,.92-1.15l.73-.76,1,.25-1.09-1.11-1.6.34h-1s-.3-1.7,0-2l1.52-1.28,1-1.1.42-.86-1.82.09H1664v-1.11l1.71-1,.73-1.11-1.28-.34s-1.39.59-1.76.17,0-2,0-2l2-1.45a9.9,9.9,0,0,0-1.89-.17c-.42.09-.28-1.45-.28-1.45l1.68-.93s-1-.52-1.46-.77-.67-5.46-.67-5.46h-.73l-.42,3.24-1.52,2.13-1.46.34s2.19,1.2,1.7,1.71a13.47,13.47,0,0,1-3,1.36c.49.94,1.7,2,1.09,3.16s-3.34,1.45-3.34,1.45.3,1.28.67,1.45,2.49,2.39,2,3.24-2.68.68-2.68.68-.49,1-.37,1.37.61,1.19.61,1.19.73-.09.43,1.83a19.23,19.23,0,0,1-1,3.72l-1.63.25-1.27-.17a6.16,6.16,0,0,0,.6,2c.37.43,1,2.9,1.83,3s1.15,1.62.73,1.79-5,.68-5.35.25a5.66,5.66,0,0,0-1-.93,7.9,7.9,0,0,0,.85,1.79c.43.51,4.26,3.66,3.71,4.73s-2.06.81-2.06.81l-2.5-2.22Zm261.65-86.73.85-.43v1l-.85.51Zm-14,6.11h1.89l1,1.38s.24.95,0,1.29-2.25-.59-2.86-.68S1894.78,880.59,1894.78,880.59Zm-27.49,4.9a7,7,0,0,0,.67-1.37c0-.26.79-.78.79-.78a10.6,10.6,0,0,1,.55-1.37c.3-.62.73.1,1.16,0s0,.87,0,1.37-.8.44-.8.78.49.51.73.94-.24.93-.42.85a15.65,15.65,0,0,1-2,0A2,2,0,0,1,1867.29,885.49Zm-14.78,3.74h.61v1.62A3.16,3.16,0,0,1,1852.51,889.23Zm-8.58,3.59a7.59,7.59,0,0,1,.31-2,2.14,2.14,0,0,1,1.15.54c.43.44-.3,1.43-.3,1.43ZM1804.64,918c.17.34,1.38,0,1.38,0,.41.23.65,1.59.65,1.59a.91.91,0,0,1-.65.17,11,11,0,0,0-1.66.29,3.74,3.74,0,0,0-.4-1C1803.71,918.71,1804.48,917.69,1804.64,918Zm-11.71,4.78s-.73.23-.85,0-.65.1-.65.1.16-1.13.52-1.3a1.77,1.77,0,0,1,1,0Zm-1.67,2.1.17-1.08h.44l.31,1,1.8.57s.41,1.42,0,1.48a4.28,4.28,0,0,1-1.34-.28s0-1.14-.28-1.2A5.06,5.06,0,0,1,1791.26,924.91Zm-65.48,7.45a4.84,4.84,0,0,0-.69-.34c-.2-.06-.61.34-1,.51a.61.61,0,0,1-.81-.28c-.08-.23-.81-.4-1.18-.46s-.57-.57-.57-.57l.78-1.13h.85l.69-.86c.08-.11.6,0,.6,0l.37,1s.53.74.77.69S1725.78,932.36,1725.78,932.36Zm-3.16,2.2a1.83,1.83,0,0,0,.89,0l.17-.61,1.13-.74s0,.17.65.74,1.25,1.2,1.25,1.2a2,2,0,0,0-.52.39c-.29.29-1.18.23-1.18.23l-.89-.51a7.22,7.22,0,0,0-1,.52c-.09.1-1.38.23-1.51,0S1722.21,934.43,1722.62,934.56Zm-38.4,10c.12.43.37,2.22.37,2.22a.82.82,0,0,1-.67,0C1683.61,946.63,1684.22,944.58,1684.22,944.58Z"/><path class="cls-21" d="M1900.8,870.73c0,.08-.1.08-.21,0C1900.74,870.6,1900.84,870.54,1900.8,870.73Z"/><path class="cls-22" d="M1812.51,891.39a.05.05,0,0,1,0,0C1812.64,891.55,1812.6,891.55,1812.51,891.39Z"/><path class="cls-23" d="M1868.75,883.34a10.6,10.6,0,0,1,.55-1.37c.3-.62.73.1,1.16,0s0,.87,0,1.37-.8.44-.8.78.49.51.73.94-.24.93-.42.85a15.65,15.65,0,0,1-2,0,2,2,0,0,1-.73-.42,7,7,0,0,0,.67-1.37C1868,883.86,1868.75,883.34,1868.75,883.34Z"/></g><g id="Layer_3" data-name="Layer 3"><path class="cls-24" d="M-48.43,762S-40,771-34,770s40-11,52-8,82,48,87,47,82-1,88-5,45-33,51-33,26-28,26-28,19-6,26,0,12-23,19-23,17-19,34-17,32,14,37,11,18-22,25-22,5-13.84,8-13.42S428,667,433,671s-4-11,7-11h23l7-11s14,15,21,15,22,7.16,22,14.58S535,694,535,701s36,19,44,34,81,38,95,66,63,14,65,8,29-2,29,1,30,12.71,48,7.86S887,838,887,846s28,26,53,22,52-14,52-14,46,4.14,61,14.57,75,5.43,75,5.43,639,153,669,95,94-52,94-52l29-32,67,40v514L-99,1403Z"/></g><g id="Layer_4" data-name="Layer 4"><path class="cls-25" d="M-55.83,1036.61s29-3,33.47-10.5,22.36-9,22.36-9,18.14,30,34.64,30,105,21,112.49,19.5,28.5-13.5,28.5-13.5l12.37.59s45.33-15,49.33-19.33,9,4,9,4,29.34-1.27,30.34,3.53,22.33-7.2,29-7.2,29,7.67,33.33,3S358.67,1020,369.33,1020s38.34-1,41-9.33,29.34-5.67,29.34-5.67,21.66-3.33,29.66,0,35-3.33,35.34-6.33,18-1.33,18-1.33,10.33-8,17-7,18-.34,25.33,14.66c0,0,11,6.34,11,7.34s15.33,23,20,21.33,81,.67,99.33-12.67c0,0,2.67-10.33,5.34-10.66s23.66-.67,23.66-5.34,13-7.66,13-7.66L795.67,994s7.33-4.17,9.66-3.75,16,6.42,16,6.42,34,6,37.34,2.33,23.66-7.66,25-7.33,15.66-26.33,29.33-27.33,12.33-4.67,16-4.67,24.33-.33,26,0,14.33-10.33,19.33-10.33,17,1,21.34,3.66,15,4.34,15,4.34,7.33-7.34,11-8,16.66,11,16.66,11,20.67,3.33,23.34,0S1078,935.7,1084,935.7s64-28.33,68.67-33.33S1186,872.7,1191,872.7,1205,860,1208.33,860s8-17.66,12.34-18,7.66-9,7.66-9H1239s22.33-9,24-11.66,7.67,4.66,7.67,4.66,13-2.33,15-.33,7,11.67,10.33,11.67,8.67,5.66,9,6.66,14.67,23.34,26.67,23.67,21.66-1.33,26.66-3.33,25.67,2,26.34,7,19,10,25.66,20.33S1432,894,1435,895s28,24.34,30.33,27.34,35.67,31,66.67,29,50.67,7.66,97.33-24.67c0,0,15.67-14,29.67-13s40.33,9.33,44.67,6S1719,907,1726.33,907s12.67,7.34,15.34,7.34,17,2.33,18.33,5.33,30,16.67,33.33,21,13,10,15,9.67,11.34,0,14,1.66,17,13,18.34,18.34,6.33-.34,8,.66,10.66,7.34,10.33,10,9.67,3.34,9.67,3.34,9,16,8.66,19.33,13-7.33,26.34,20,80,60.67,80,60.67L2003,1615-89,1591Z"/><path d="M237.16,1061.17c.23-.35,1.25.15,1.25.15s-.31-1.72-1-2a4.23,4.23,0,0,0-1.88,0v1.83S236.92,1061.52,237.16,1061.17Z"/><path d="M212.9,1053.86c-.32.52-2.66,0-2.66,0-.79.35-1.26,2.44-1.26,2.44a2.13,2.13,0,0,0,1.26.26,26.74,26.74,0,0,1,3.21.43,5,5,0,0,1,.78-1.56C214.7,1054.9,213.21,1053.34,212.9,1053.86Z"/><polygon points="10.29 988.12 11.94 988.9 11.94 987.21 10.29 986.55 10.29 988.12"/><path d="M237.55,1062.74l-.59,1.56-3.48.87s-.78,2.18,0,2.27a10.41,10.41,0,0,0,2.58-.44s-.08-1.74.55-1.83a11.29,11.29,0,0,0,2.11-.78l-.31-1.65Z"/><path d="M35.29,996.56l-1.87,2.1s-.47,1.47,0,2,4.34-.91,5.51-1,0-3.05,0-3.05Z"/><path d="M371.21,1079.16a4.41,4.41,0,0,1-1.72,0l-.33-.94-2.18-1.13s0,.26-1.25,1.13-2.42,1.83-2.42,1.83a4.26,4.26,0,0,1,1,.61,4.88,4.88,0,0,0,2.27.35l1.73-.78a15.69,15.69,0,0,1,2,.79c.16.16,2.66.35,2.9,0S372,1079,371.21,1079.16Z"/><path d="M366.44,1075.27c.39-.09,1.17.52,1.88.78a1.31,1.31,0,0,0,1.56-.44c.16-.34,1.57-.6,2.27-.69a1.7,1.7,0,0,0,1.1-.87l-1.49-1.74h-1.64s-1.18-1.13-1.34-1.31-1.17,0-1.17,0l-.7,1.48s-1,1.13-1.49,1-.31,2.26-.31,2.26A9.66,9.66,0,0,1,366.44,1075.27Z"/><path d="M444.62,1097.89a1.94,1.94,0,0,0,1.29,0c.58-.26-.59-3.39-.59-3.39C445.08,1095.15,444.62,1097.89,444.62,1097.89Z"/><path d="M473,1107.81c-.19.17.11.1.6-.08A.54.54,0,0,0,473,1107.81Z"/><path d="M370.59,1067.26h0S370.57,1067.29,370.59,1067.26Z"/><path d="M48.09,947.88h0Z"/><path d="M163,1000.26h0S163,1000.28,163,1000.26Z"/><path d="M62.53,938.71l.12.12S62.66,938.78,62.53,938.71Z"/><path d="M281.39,1039.92a2.09,2.09,0,0,0-.25.89S281.23,1040.44,281.39,1039.92Z"/><path d="M39.4,980.68c0,.11.15,0,.36-.31C39.54,980.49,39.4,980.6,39.4,980.68Z"/><path d="M514,1119.17l-4.81,3.39s-2.94.39-4-1.24,6.33-6.46,7.16-7.25a10.55,10.55,0,0,0,1.64-2.74,10.36,10.36,0,0,0-2,1.44c-.58.65-9.5-.13-10.33-.39s-.11-2.61,1.41-2.74,2.82-3.92,3.52-4.57,1.18-3,1.18-3l-2.47.26-3.13-.39a24.22,24.22,0,0,1-2-5.69c-.59-2.94.82-2.8.82-2.8a17.13,17.13,0,0,0,1.17-1.82c.24-.53-.7-2.09-.7-2.09s-4.23.26-5.17-1,3.17-4.7,3.88-5,1.29-2.22,1.29-2.22-5.28-.52-6.46-2.21,1.18-3.4,2.12-4.83c0,0-4.82-1.31-5.76-2.09s3.29-2.61,3.29-2.61l-2.82-.53-2.93-3.26-.82-5h-1.41s-.47,8-1.29,8.36-2.82,1.17-2.82,1.17l3.25,1.44s.27,2.35-.55,2.21a22.73,22.73,0,0,0-3.64.27l3.88,2.21s.7,2.35,0,3-3.41-.26-3.41-.26l-2.46.52,1.4,1.69,3.32,1.57v1.7h-2.49l-3.53-.13.83,1.3,2,1.7,2.94,2c.58.39,0,3,0,3H482.2l-3.07-.52-2.12,1.69,1.88-.39,1.41,1.18a7.39,7.39,0,0,0,1.76,1.75c.71.32-1.52,4-1.52,4l-2-.26s-3.05.26-3.4.39-1.3,1.57-1.3,1.57l-1.64,3.65,1.41-1.43,2.35.13s3.28.91,3.09,1.43a3.9,3.9,0,0,0,0,1.57l-2.74-.65s-1.72.75-2.69,1.09a2.48,2.48,0,0,1,.81.73l1.17,1.44a11.94,11.94,0,0,0,2.82,2.09c1.41.65,0,1.82,0,1.82s-1.88.13-2.23.13-1.52,1-2.93,1.31-.71,2.48-.71,2.48l2.82.52a4.82,4.82,0,0,1-1.41,2.87c-1.17.92-1.17-1.69-1.17-1.69s-2.47-1-2.82-1.31-.59-6.92-.59-6.92-2.81.92-3.17,0,1.18-2.35,1.18-2.35l2.58-1.69h-3.52l-.12-4.05h1.88l-1.88-1.43-2.11-1.18-.24-1.3,2.35-.4s-2.23-.65-2.58-.79a1.88,1.88,0,0,1-1.06-.9,4.11,4.11,0,0,1,.12-1.83h2.47l-2.59-1.83a34.12,34.12,0,0,1-4.58-.26c-1.05-.26-1.64-2.74-1.64-2.74l2.47-2,2.93.39a21.63,21.63,0,0,1-2.46-2.35.85.85,0,0,0-1.3-.13l-3.4-.39-.59-3.26h4l-1.17-1.53s-3.4-1.34-3.87-1.47-.82-1.7-.82-1.7l-1.53-5.48-1.88,1s.47,4.13.94,4.78-1.41,2.91-1.41,2.91l-4.34.88h2.7l-.82,2.35s1.64-1.57,2-1.57,1.18.91,1.18.91-1.06,2.35-2.82,2.35-.59,2.22-.47,2S447,1088,447,1088l2.12,2.09-3.64.91-3.17.26,2.11-1.3-2.23-.65s1.53-1.18.59-1.18-1.18-2-1.18-2l1.88-.52-1.88-.78s-1.29-3.27-1.29-2.09-2.46,2.48-2.46,2.48,1.88.26,1.48.65-1.6,2-1.6,2,2,0,1.53.65a11.1,11.1,0,0,0-.94,1.83,7.5,7.5,0,0,1-1.41.65l1.41.92-3.29,2.74,3.29-.79-1.76,1.7,1.76.78-1.76,1,1.76.65-2.59,1.83s1.3-.52,1.76-.13,0,2.87-1.05,2.35-1.86-3.14-1.86-3.14l-1.55,2.48-2,1.7-3.76-.91s2.47-2.48,2.47-4.44,5.2-4.74,4.81-5.26-7.75.08-9,0-1.09-2.44-1-2.7,1.41-1.74,1.41-2.53,2.35-2.26,4-2.87,2-.52,2-.52l-1-1.48h-3s-4.31-.87-4.46-2.7-.78-4.52-.71-5.22a4.39,4.39,0,0,1,.86-1.65l1.73.7s-.08-2.79-1.8-3.83-4.7.17-5,.17.08-3.13.08-3.13,1.87-2.35,3.36-2.79a2.43,2.43,0,0,0,1.57-2.17l-3,.17s-2.27-1.22-2.81-1.56-.24-2.53-.4-3,0-1.83.86-1.74a9.37,9.37,0,0,0,2.35-.26l-1.56-1.66-1.41.35-3.13-.61-.86-3,3.21-.43s-1.65-2.87-3.37-3.92-2-.78-2-.78l1-4.09-1.64,1.57-.63-5.22-.91,5.74-2.22-.78s1.88,2.52,2.19,3-1.8,3.31-1.8,3.31-1.56,1.22-1.64,1.91a5.85,5.85,0,0,1-1,1.92l-3.52,3,3.68-1.48s-2.11,1.91-.39,1.65-.55,1.83-.55,1.83l-2,1,.62,1.57-2.82,2.78,3.06-.43,2.11.52,1.09,2.09-1.56.08s-2-.17-2.66.35a9.53,9.53,0,0,1-2.27,1l2.89-.09,1.26,1.3,3,2.09.31,1.92-2.27.78-2.73.09-2,1.3s1,1.13.16,1.48-1.18,1.92-1.18,2.26.47,2.88.47,2.88-2.5-.09-3.52-1.68,4.23-7.11,4.23-7.11l1.48-2.18a54.11,54.11,0,0,1-5.47-.35c-1.26-.26-1.57-2.43-1.33-2.43a19.78,19.78,0,0,0,0-5.66,9.58,9.58,0,0,1-.4-2.61l3,.52-1.57-1.48,2-.43a7,7,0,0,0-2.9-.44c-1.33.18-4.15.61-5.32,0s.08-1.56.08-1.56,1.72-1.92,2.58-1.92.47-1.48.47-1.48l1.33-.87,1.41-1.56-1.17-.87a53.71,53.71,0,0,1-5.79-1,4.52,4.52,0,0,1-.47-1.3l1.64-.52s-1.49-1.83-1-2.35,3.52.17,3.52.17l-.94-1.83-4.93-.52s-1.25-1.83-1-2.52,2.89-.52,2.89-.52l-.7-1.57-3.21-1.31a16.61,16.61,0,0,1-1.8-2.43,33.69,33.69,0,0,1-.63-3.31c-.07-.7-1.48-2.17-1.48-2.17l-.47,4.78.94,3.22s-1.49.78-3,1.39a1.85,1.85,0,0,0-1.33,1.83s3.52.61,3.84,1.13-.47,1.74-.47,1.74-1.72.44-2.82.61-1,1.74-1,1.74l2-.09,1,1.05s1.65,1.48,1.73,2-4.78-.17-5.95-.26-1.1,2.09-1.1,2.09,1.88-.18,1.88.17,1.64,1.57,1.64,1.57l1.1.78s.63,1,0,1.65-3.13-.34-4-.52-2.35,1.39-1.57,1.31,1.88,1.21,1.88,1.21a3.53,3.53,0,0,0,2.58,2.18c2,.35.71,2.09.71,2.09.16,1.13-1.25.69-1.25.69l-2.44.09s-2.26,1.39-.69,1.48,0,1.48,0,1.48v1.83l-1.88.61-1.17,1.91c.16-.26.55-.09,1.09-.17s1.49,1.48,1.49,1.48h-2.59c-.31,0-1.56,1.3-1.56,1.3l-.94-.5-1.17-1.57s-.47-2.41-.88-2.41-1.24.65-1.47.65a1.36,1.36,0,0,1-1.76-1c-.47-1.44.53-.92.82-1.31s.88.26,1.17.33,1.53-1.76,1.94-1.76,0-1,0-1l-1,.72-1.76-.72s-1.82,0-2.82-.07-.41-1.56-.41-1.56l.59-.79,1.94.79-.41-1.24-1.12-.92.41-1,1.82.53-.94-1.24-1.29-.85-1.76-.2-.7-1.5-.18-1.89,2.23.52-.41-2s-1.35-.59-1.64-.65a17.54,17.54,0,0,0-1.76-.07,13.58,13.58,0,0,1,0-1.57c.05-.19,1.4.2,1.4.2l-.64-1.24,1.06-.26s.93,0,.93-.26-.76-.65-1-.79a19.6,19.6,0,0,0-2.7-.06,9.28,9.28,0,0,1-.24-2.74c.24-.46,1.88.85,1.88.85a2.7,2.7,0,0,0-.53-1.31c-.47-.59-2.46-.91-2.46-.91L355,1039l1.59-.33s-3.11-1.17-2.88-1.37a10.57,10.57,0,0,0,.71-2.22l-1.53,1.77s.53-4.12,0-4.12-.83,4.18-.83,4.18-2-.06-1.05.33,0,1.69-.29,1.76-1.06,1.5-1.06,1.5l2.35-.2s.35,1.24-.76,1.24a1.89,1.89,0,0,0-1.59,1.18H352s-.06,1.17-1,1.11-2.92,2.22-2.92,2.22,2.59-.79,2.85-.79-.38,1.51-1.14,1.44-1.47,2.41-1.47,2.41l1.7-.52s2.06,1.57,0,1.63-2.4,2.42-2.4,2.42,2.17.13,2,1.7-1.23.19-2.58.26-3.11,2-3.11,2,3.28.33,2.11.59a2.3,2.3,0,0,0-1.53,1.56s.83-.45,1.24-.65,1.23.39.64.59-.59,2-.47,1.83a16.09,16.09,0,0,1,2.41-1v1.24a7.89,7.89,0,0,1-2.35,1c-1.11.19-1,2.28-1,2.28s1.59-.59,1.88-.07-.29,1.44-.29,1.44a5,5,0,0,1-1.88.65c-.76,0-1.17.92-1.53,1.83s-1.58-.46-1.87-.65.35-1.44,1.11-2.42a10,10,0,0,0,1.23-3.06l-2.64.52s-.12-1.76-.06-3.27a3.19,3.19,0,0,0-.7-2.28s-1.59.13-2.06-1,.3-1.44.3-1.44l1.23-1.11s-1.76-.46-.76-.65a5.12,5.12,0,0,1,2.58.65,1.55,1.55,0,0,0-.29-1.17c-.41-.46-3.29-.72-3.29-.72s-1.35-2.09.12-2.09a18,18,0,0,0,2-.07l-1.23-.84-1.7-.46-1.7-1.7,2.4-.45-3.34-2.16-.94-2.67-.59,3.59-1.7,1.95,1.7-.19-.53,2-2,.85s1.52.85.94,1.24-2.12,1.5-2.12,1.5l2.72-.52-1.78,1.56s1.65-.52,1.47.07-3.11,2.09-3.11,2.09l2.05-.65s1.76,2.08,1.29,2.54-2.64-1.17-2.64-1.17l1.82,1.89-1.46.91,1.4.2-1,1.11s1.4-.2,1.29.91-1.35.46-1.94.46-1,1.5-1,1.5.82-.46,1.24-.65.23,3.19-.18,3.06-1.23,1.31-1.23,1.31l1.76-.07v3.07l-3.23-1.11s-1.29-.13-1.53-.46,2.18-1.1,2.18-1.1l.41-1s-.47-1-.83-2,1.24-1.76.94-2.08a6.89,6.89,0,0,1-.52-2l.86-1.44s-1-2.09-2-2.09-1.64.35-3.05.44-.47-2.18-.47-2.18l2.82-1.3a13,13,0,0,1-.94-2.26c.23.17,1.64-.79,1.64-.79a11.38,11.38,0,0,1-3.05-3.83c-.7-1.91-.7-1.13-.7-1.13l-2-.52-.31-1.31.31-1s-.08-2.61-1.25-3.39,1.33-6.35.78-7.31-3.91-.35-3.91-.35-.47-2,.68-2.09,0-3.13,0-3.13-2.17-.78-3.34-1.22-.55-2.09-.08-2.87,3.91-.78,3.36-1.65-4.22-.18-4.22-.18a1.32,1.32,0,0,1,.55-2.26,6.54,6.54,0,0,1,3.67-.35l-.7-1.56-4.3-.18s-1.57-1.22-.87-1.91a6.56,6.56,0,0,1,2.82-1l-2.82-1.74s-.39-2.18.87-2,3.28.87,3.2-.26-3.6-1.92-4.54-1.83-.39-1.74-.15-2a26.46,26.46,0,0,0,0-5.57c-.16-.78-1.8-.61-1.8-.61l-1.33,6.35-3,.09s1.73.7,1.18,1a19.08,19.08,0,0,0-2.19,2.79s2.81-1.66,3.44.69-1,2.35-1,2.35-1.8-1.56-2.5-1.39-2.58,3-1.17,2.18,1.8,1.39,1.8,1.39a9.28,9.28,0,0,1,.86,2.44c0,.69-2.74.34-4.78.6a1.94,1.94,0,0,0-1.72,2.27l3.6.61a7.58,7.58,0,0,1,1.8,2.26c.47,1.13-2.35.52-2.35.52s-1.95,0-2.66-.09a1.42,1.42,0,0,0-1.17.53l.55,2.26s1.09.35,2.27,2.43-.71,2.88-1,3.57a1.86,1.86,0,0,0,0,1.39,2.35,2.35,0,0,1-1.8.53c-1-.18-.94-2.79-.94-2.79s-3-3-1.49-2.78a2,2,0,0,0,2-.79s-4.46-2-3.13-2,2.66.53,2.66,0-2-1.65-2-1.65-2.19-2.35-1.09-1.91a4.39,4.39,0,0,0,2.58-.09l-1.88-1s-2.42-1.83-1.64-1.48S294,1018,294,1018a7.6,7.6,0,0,0-2.11-.78c-.62,0-1.49-1.22-.71-1.05s.71-1.48.71-1.48l-1.57-3.39-2.42,5s1.41-1.13,1.75-1-.19,1.48-.81,1.65-1.18,2.44-1.18,2.44,1.33-.7,1.66-.18.85,1.05-.87,1.05a2.51,2.51,0,0,0-2.27,1.74,23.62,23.62,0,0,1,3-.35c.31.09.23,1.3-.69,1.3s-2.68,1.66-2.68,1.66,2.9-.44,2.67,0a3.22,3.22,0,0,1-.63.78,12.11,12.11,0,0,1-1.88,1.31c-.86.43.16.87.16.87s2.27-.35,2.19-.35.39,1.48,0,2.09-2.19-.35-2.19-.35l-.55.95.94,1.4a4.44,4.44,0,0,1,1.8,2.61c.23,1.56-7.2.43-7.2.43s3.6,1.92,2.35,2.18c-.88.18-1.64,2.24-2,3.46a2.35,2.35,0,0,1,1.16-1c1.4-.6,3,1.22,2.73,2s-3,.95-3,.95,2.19,1.22,1.33,2.44-5.55-1.48-5.55-1.48l3.75,3.39h-2a9.29,9.29,0,0,1,2.27,1.48c.47.61-.32,1.31-1,1.74a8.65,8.65,0,0,1-3.07.35l3.05,1.65s.31,3-1.8,2.35-.63-2.87-.63-2.87a11.31,11.31,0,0,1-1.95-1,1,1,0,0,1,.39-1.66c.86-.43,2.82.09,2.82.09l-1.41-1.22s-3.13-.7-3.21-1.22,4-.87,4-.87-3.21-.52-4.62-2a4.22,4.22,0,0,1-.86-3.65l2.11.17-2.34-2,3.83.52-3.44-1.83-.08-3,.47-4.88-3.05,4.79-1.41.09.78,1s.08,2.18,0,3-2.82,1.22-2.82,1.22l2,.26a9.86,9.86,0,0,1,0,2.61,7.52,7.52,0,0,1-2.27.26l-.55,1.39,2.19,1.48a3,3,0,0,0-1.09,1.83c-.16,1.13-1.72,0-1.72,0l-.16-1.48.31-2.78-1.09-.7a8.12,8.12,0,0,1-.16-2.17c.16-.44,3.36.34,3.36.34l-3.75-1.39-1.18-1.3s2.27-.09,1.88-.7-2.19-1.13-3.05-1.39.39-3,0-3.48-1.23.17-1.23.17.06,3.48,0,3.48-2.53,1.83-2.53,1.83,2.35-.7,2.51.26-.7.87-.7.87l-1.57,1.31s1.72,0,1.56.52-.15,1.39-.62,1.48-1.72,1.48-1.72,1.48,2.34,0,2.34.87-1.17.34-1.56.34-1.49,2.09-1.49,2.09l1.65-.78s.93,1.48.78,1.91-1.8,1.13-1.25,1.57-.08,2.61-.63,2.61-2.74,3.22-2.74,3.22h2.1l-2.57,2.52s2.27-.78,2.51-.52a1.9,1.9,0,0,1-1.1,2c-.86.18-3,2.85-3,2.85a11.45,11.45,0,0,1,2.34-1c.71-.12-.54,2.46-.54,2.46h-2.3l-.6,1h-2.11c-1.57,0,1.56-2.37,1.56-2.37s2.59-2.24,0-2.09-1.8-2.06-1.72-2.24,0-4,0-4l-1.8-.61a11.46,11.46,0,0,1-.94-2.35c-.15-.87,1.8-1.13,1.8-1.13a13.71,13.71,0,0,1-1.88-1.22c-.31-.35.16-1.91,0-2.78s-1.8-.7-2-.78.23-1,.94-1.48,0-1.05,0-1.05a15.69,15.69,0,0,1-2.11-1.13,8.81,8.81,0,0,1,0-2.52s-.87-1.83-.79.52-.54,2.61-1.14,2.61-1,1.57-1,1.57,1.25-.27,1,.52-.63.87-.63.87-1.09.78.32,1l-.94,1.66-.94.17v1l1.5,1.13s-.8,1-1.27.78-2.11,2.09-2.11,2.09a9.92,9.92,0,0,1,2.74-.44c.55.18.64,2,.64,2s-.8,2-.17,2.78-.63,2.26-1.8,2.61-2-2.52-2.43-4-.86-3-1.22-3.22-1.67.87-1.67.87h-1.65a12.33,12.33,0,0,1-.62-2.79c0-1,4.3-2,3.91-2.43s-4.7.87-5.4.61,0-1.74-.23-2.35,2.89-3.92,2.89-3.92a10.42,10.42,0,0,1-3.29.35c-.78-.26-.47-2.52-.07-3s.47-3.39.47-3.39a24.29,24.29,0,0,1-2.66.08,4.17,4.17,0,0,1-.63-2.34c.16-.44,3.29.87,3.29.87a3.85,3.85,0,0,0-2.12-1.92c-1.72-.78-1.41-1.39-1.41-1.39a12.05,12.05,0,0,1-1.8-1.92c-.23-.52,2.51-.87,2.51-.87s-2.51-.95-2.11-1.3.86-2.18.47-2.26-1.57-.61-1.65-1-1.17-4.35-1.17-4.35l-1,2.35-.39,3.22s-.94,1.74.23,1.57.08,1.39,0,1.82-2.27,1.14-.94,1.48-.62,1.48-.93,2.27a11.11,11.11,0,0,1-2.27,2.35s1.25-.27,1.56.08-.15,1.66-.15,1.66l-1.88,1.21a15.59,15.59,0,0,1,1.8-.08c-.55.08-.94,2-.47,1.74s1.41.69,1.41,2.35-2.43,0-3.53.26-.54,2-.07,1.48,2.5.43,1.64.78-1.17,2.87-1.17,2.87,1.8-1.48,1.87-.87a2.9,2.9,0,0,1-2.19,2.44c-1.25.08-.55,2.35-.94,2.52s-2.74.61-3.28-1,3.28-3.74,3.28-3.74-2.5-1.56-1.8-1.91,0-3.83,0-3.83-2.89,2.26-4,1.22,2.9-4.7,2.9-4.7-4.31,1-5,.87-.55-2.35.47-3.13,2.19-3.57,2.19-3.57a4.59,4.59,0,0,1-3.91-3c-1.33-3,1.88-3,1.88-3s-4.15-.34-4.23-.73,2.5-1.18,2.5-1.18l-1.72-2.09-1.54-1.48s-2.68-2.17-1.43-1.91,1.8-1.13,1.17-.78-1.64-1.66-1.64-1.66l-.78-1.83,1.64-.34-2.11-1.74c-.63-.53,0-2.79,0-2.79s-.55,0-1.17,2.35a7.1,7.1,0,0,1-1,2.38c.4-.12,1,1.54,1,1.54l-1.65,1,1.33.87-2,1.39s2.35-.34,2.27-.08a3.18,3.18,0,0,1-1.51,1.39,6.86,6.86,0,0,0-1.85,1.57l1.64-.18s.47,2.44,0,2.87-4.22-.08-4.85-.52-.08-2.52,2.43-3.57,1.4-7.48,1.4-7.48-4.3,0-5.24-.61,2.11-8.87,2.11-9.22a13.65,13.65,0,0,0-1.56-2.35s-4.77.26-5.17-.52,2-1.92,2.2-2.27,1-2.69,2.89-3.56,0-1.31,0-1.31a21.09,21.09,0,0,0-2.43-.35c-1.72-.17-2.58-.08-3.2-.43s0,0,0-1.92.86-1.82,1.09-2.26,1.88-1.39,1.41-1.83-2.5.61-3.76.44-1.33-.78-2.11-2.09-.55-2.7.39-2.7,2.12-1.39,2.12-1.39a4.43,4.43,0,0,0-2.51-1.57c-1.64-.34-1.56-1.37-1.56-1.37l-.47-1.93s-1.8-3.83-2.19-4.7-1.57-.18-1.57-.18l.49,5.23a12.56,12.56,0,0,1,0,3.39c-.29,1-3.52,1-4.11,1s-1.82,2.28-1.82,2.28l2.41-.2s1.64.72,1.46,1.83-1.29,1.24-1.81,1.24-2.18,2.42-2.18,2.42a13.8,13.8,0,0,1,1.41-.46c.35-.07,2.82.59,3.29,1.37a18.52,18.52,0,0,0,1.35,1.83s-5,.13-6-.07-2.4,2.48-2.4,2.48l2-.52c.53-.13,1.88.07,3.82,1.5s.41,2.15.41,2.15l-1.06.72a17.15,17.15,0,0,1-3.17-.52,12.5,12.5,0,0,1-2.05-1.24l.88,1.5s1.35,2,1.64,2.42a18.05,18.05,0,0,0,2.88,1.89s.17.85.35,1.63-3.29.46-3.29.46-.7,1-1.23,1.76.47,2,.7,2.54,1.77,0,1.77,0,.46,2.88-1.06,3.79S169,1009,169,1009v-4.21h-1.3a14.53,14.53,0,0,1-.35-2.44c0-.92,1.65-.82,1.65-.82l-2.35-.88c-.71-.26-.94-1.3-.94-1.3l1.76-1.07s-2.47-.37-2.11-1-1.41-3.79-1.41-3.79l-.93,4.81-1.65,1.33s1.29.57,1.59.65h0s0,0,0,0a23.64,23.64,0,0,0-2.3,1.83l2.35-.56s.12,1.73-.84,1.34a3.27,3.27,0,0,0-2.33.39l.82,1.53,1.51,1.6-3,.92s2.7.26,2.23.26-2,2.09-2,2.09,2.35-.92,2.7-.52-.35,1.56-.58,1.3-1.77,1.7-1.77,1.7,1.88,1.43,1.76,2.09-2.23.13-3.28.39-.47,1.43-.47,1.43l2,.92-3.26,2.22,3.05-.4a5.09,5.09,0,0,1,0,2.74c-.47.92-3.88.27-3.88.27l2.59,2.35h-2.58c-.94,0-1.41-1.7-1.65-2.22a19.73,19.73,0,0,1-.23-3.4s1.76-5.35,1.87-6.13-1.83-1.31-1.83-1.31-3.33-.13-3.68-1,1.52-2.35,1.52-2.35,2-1.44,2.12-2,.11-1.56-1.65-1.83-4-.65-4-.65l.24-2.87,1.4-1.3v-1.44h-3.05a1.47,1.47,0,0,1-1.64-1.57l.12-1.56,1.17-1.31a9.75,9.75,0,0,0,2.35-1.17c.82-.66,0-2,0-2l-2,1.7a15.8,15.8,0,0,0-3.17-1.31c-.94-.13-1.76-2.09-1.76-2.09v-3.91s-1.64-1.83-2.11-1.57,0,7.57,0,7.57a9.94,9.94,0,0,1-3.4.52c-1.53-.13-1.65,3.14-1.53,2.74s3.76-.13,4.16.26-1.23,1.83-1.23,1.83a17.71,17.71,0,0,0-2.46,1.83,3.81,3.81,0,0,0-.59,2.09l2.35-1.08a2.42,2.42,0,0,1,1.88,2.11c.23,1.81-.47,1.45-.47,1.45a12.6,12.6,0,0,1-3.29.13c-.59-.26-2.35.65-2.35.65a16.62,16.62,0,0,0,2.35.91,5.89,5.89,0,0,1,1.53.88,4.91,4.91,0,0,1,.82,2.78c0,1.7-2.82.91-3,1.7s-.7,2.35-.7,2.35l-1.77-.92L133,1009s1-2.74.59-4.21-2.35-.73-2.35-.73l.7-3.29-1.52-1.16-1.18-1.33,1.18-1.72-1.18-1.78-2-.26s-.83-1-.12-1.18.94-2.09.94-2.09l-1.41-.52-.82-1.17,2.23-1.31-2.7-.78v-1.7l-1.18-2.61v4.05l-1.4,1.43v2.09l-1.06,1.18,1.06,1.17-1.3,1,1.3.78-1.3,1-2.11,2.33h1.41l1.41-.76v2.22l-1-.13s-1.77,1.17-.83,1.16.82,2.23.82,2.23a4.54,4.54,0,0,1-2.46,1c-.35-.13-3.29-.91-4.46-2.47s4.11-4.18,5.16-5,0-4.13,0-4.13a21.29,21.29,0,0,1-4.69.52c-1.75-.13-.59-3-.59-3l-.47-3.4s1.17-4.3,1.06-5.48-5.4-2.22-5.64-2.48,1.41-3,3.41-3.78.82-2.74.82-2.74-4.46.13-5.52,0,.12-3.53.12-3.53,1.29-1.56,1.52-1.95a6.77,6.77,0,0,0,0-2.22l-3.17.65L104,963.71l2.23-2v-3.4l-3.28-1.43-1.76-3.53s-.94-4.17-1.63-4.17,0,6,0,6a13.79,13.79,0,0,0,0,3.26c.23,1-2.82.52-3.65.52s-1,2.48-1,2.48,2.58-.52,3.87.4-.82,1.82-1.76,2.08a16.92,16.92,0,0,0-3.17,2s2.47,0,2.7-.52,2.94,3.26,3,3.79-3.52.26-5.28.13-2.58,2.48-2.58,2.48,1.76-.27,3.64-.4,2,3.53,0,3.79S90.47,974,90.47,974l1,1.7L94.46,979,97,982.25a13.17,13.17,0,0,1-4.46-.13c-1.41-.52-3,3-2.35,2.48s2.94,1.3,4,3.13-.12,2.35-1.52,3.39-3.88-.52-3.88-.52a13.13,13.13,0,0,0-2.35,1.31c-.58.52.24,2.74.71,2.35s4.81.52,4.93,1.43-2.35,1.44-2.35,1.44l-3.64-.57-.82-1.91-.23-4.31,1.05-5.61-1.05,3-1.61,1.17-.16,3.53s.36,2.35,0,2.48-1.72-.65-1.72-.65-.51-2.61-.15-3.53a2.83,2.83,0,0,0,0-1.83,2.1,2.1,0,0,0-2.35,0,4.51,4.51,0,0,0-1.76,2.88s-2.82.65-3.29.65S73,990.86,73,990.86s2.47-3,2.12-4.31,4.22-2.87,4.22-2.87l.59-2.48s-10.6.26-11.23.18S69.92,979,69.92,979s1.65-1.74,2.12-2.18.93-2.78,1.8-3.56a2,2,0,0,1,2.11-.18l-2.11-2.17a29.15,29.15,0,0,0-5.33-1.4c-2-.17-.93-3.65-1-4.78a4.88,4.88,0,0,1,.62-2.35l1.65-4.35-1.49-.35-3,.43s-2.51-.87-2.59-1.39,1.88-1,2-1.74,2.66-2.35,2.66-2.35l.55-2.78-4.07.43s-1.88-.95-2.12-1.65a12.35,12.35,0,0,1-.31-2.26l1.18-1.48,1.48-.09,1.1-.61v-1s-2-.35-2.58-.35a25.33,25.33,0,0,1-2.74.17c-.71-.08-1.26-1.56-1.26-1.56l-.23-2.53a4.73,4.73,0,0,1,2.74-.5,4.3,4.3,0,0,1,1.37.3c-.35-.38-1.5-1.58-1.76-1.8s-3.45-.34-3.76-.61a6,6,0,0,1-.55-2.26c0-.26-.39-3.22-.39-3.22l-.31-1.74H54.2L53,931l.55,2.52s-.16,2.7-.16,3-1.09.69-1.09.69l-1.8.53L50,938.91l1.09.53s2.43,1.3,3,2.87-.49.78-.49.78H52.32s-1.65-.09-2-.09a18.71,18.71,0,0,1-2.19-.69l2.19,2.26,1.88.7a8.57,8.57,0,0,1,1.25,1.82c.39.87-1.11,1.22-1.11,1.22H50.59l-1.72-1.22-2.58.35,1.78.44h0c-.32-.07-1.15.61-1.15.61a9.11,9.11,0,0,1,.54,1,11.15,11.15,0,0,0,2,1.31l1.56.69a6.41,6.41,0,0,1,1.18,1c.47.52-.35,1.41-.35,1.41s-3.33.5-3.72.16-1.88,0-1.88,0l.78,1.69a7.86,7.86,0,0,1,2,1.87c.39.79,2.19.7,2.19.7a6.88,6.88,0,0,1,.55,3c-.24,1-3.68-.35-4.78-.18s-2,1.83-2,1.83l2.7-.78.7,1.69A6.43,6.43,0,0,1,49.5,968a2.87,2.87,0,0,1-2.34,3l-1.77.26L42.57,971l-3.28.13s3.52,1.44,2.58,2.22-.24,2.09-.24,2.09,2-1.44,2.7-2.09,2.23.92,2.23.92.47,1.56.59,1.87-1.53.61-1.53.61l-2.11-.61-2.11,1.13-.12.52a13.57,13.57,0,0,1-1.52,2.56,19.69,19.69,0,0,1,2.58-1l3.28.91V982a4.48,4.48,0,0,1-2.7.39,3.33,3.33,0,0,0-3.28,1.3c-.82.92.23,2.09.23,2.09a10.08,10.08,0,0,1,2.23.78c.59.4,0,2.35,0,2.35s-2.35.53-2.46.92-2.47.78-4.11,1-1.76,2.22-1.06,2,1.06,2,1.06,2l-1.29.26s-1.65-.78-1.88-1.31,1.29-2.87,1.29-2.87l2.58-2s-3.87-.26-4.57-.39a1.65,1.65,0,0,1-1.06-.78,8.85,8.85,0,0,1,.12-3c.35-.79.94-2,.94-2H29.07a17.55,17.55,0,0,0-1.34-1.27c-.22.09-.38.1-.42,0s.12-.19.42,0a24.52,24.52,0,0,0,3.93-3l-3.64.13L25,976.16h3.17l1.76-1.35-1.52-.26s-3.52-1.18-2.23-1.31.23-2,.23-2l-1.76-.65,2.58-2.09-1.76.13v-1.43l-2.58-.65-.59-1.18s.47-2.09.71-2.74,1.88,0,1.88,0l-1.65-2.09-2.34.91v2.88s-.83,2-1.53,1.82-2.23,1.57-2.23,1.57h1.64l-1.29,1.44c.35-.4,1.29.78,1.29,1.43s-1.29,1-1.29,1a3.8,3.8,0,0,1-1.76.65c-.82,0-1.17,1.43-1.17,1.43h2v3.53a19.3,19.3,0,0,0-2.81,0c-.83.13-1.88,2-1.88,2l1.17-.53.59,1.83a17.61,17.61,0,0,0,2,1.05c.94.39,0,2.21,0,2.21s-1.87-.26-2.11.13-4.81-.78-4.93-1.3a10.56,10.56,0,0,1,.24-2.35l3.63-2.87-3.28,1.17A25.2,25.2,0,0,1,7,976.16c-1-1.39.83-2.27.83-2.27L11,971.68l-5-.14-.47-1.69,1.67-1.57a4.36,4.36,0,0,1-2-.91c-.59-.65.47-1.44.47-1.44s2.11-.91,1.4-1-2.58-1-2.58-1.57a5,5,0,0,1,.82-1.69L2.9,960.45l-1.18-4.7-.58,5-1.65,1.18L0,963.32-1.92,965s2.23-.65,1.89.91l-2.59,1.31s1.76-.39,2.33,0,0,2,0,2H-1.92l-.35,1.3H-.39c.23,0,0,1.44,0,1.44H-2.62s-1.53,1.95-.59,1.43,1.76.65,1.76.65a9.22,9.22,0,0,1,0,2.75c-.23,1.3-3.52,1.17-3.52,1.17l2.28.78-3,.92s2.81-.13,2.93,1.22,0,1.26,0,1.26l-3.87-1.26,3.13,2.43v3.48S-5,990.6-5.67,990.25-9.74,992-9.74,992l4.07,3.14s-2.82,1.74-4.07,1.39v135.34H516.92V1120ZM11.93,988.9l-1.64-.78v-1.57l1.64.66Zm27,10.71c-1.17.13-5,1.56-5.51,1s0-2,0-2l1.87-2.1h3.64S40.11,999.48,38.93,999.61Zm51.65,5.09c-.94.26-3.4-.13-3.75,0s-1.29-.66-.83-1.31,1.41-.91,1.41-1.43-1.43-.43-1.53-1.19-.84-2.26,0-2.11,1.65-.94,2.24,0a16.9,16.9,0,0,1,1,2.11s1.53.8,1.53,1.19a9.86,9.86,0,0,0,1.29,2.1A4.16,4.16,0,0,1,90.58,1004.7Zm28.76,7.57v-2.48h1.18C120.63,1010.83,119.34,1012.27,119.34,1012.27Zm15.5,3s-1.41-1.5-.59-2.19a4.78,4.78,0,0,1,2.23-.81,9.05,9.05,0,0,1,.59,3Zm79.39,40.16a5,5,0,0,0-.78,1.56,26.74,26.74,0,0,0-3.21-.43,2.13,2.13,0,0,1-1.26-.26s.47-2.09,1.26-2.44c0,0,2.34.52,2.66,0S214.7,1054.9,214.23,1055.43Zm21.28,3.91a4.23,4.23,0,0,1,1.88,0c.71.26,1,2,1,2s-1-.5-1.25-.15-1.65,0-1.65,0Zm1.1,5.83c-.63.09-.55,1.83-.55,1.83a10.41,10.41,0,0,1-2.58.44c-.78-.09,0-2.27,0-2.27l3.48-.87.59-1.56h.86l.31,1.65A11.29,11.29,0,0,1,236.61,1065.17Zm128.81,8.36c.47.08,1.49-1,1.49-1l.7-1.48s1-.17,1.17,0,1.34,1.31,1.34,1.31h1.64l1.49,1.74a1.7,1.7,0,0,1-1.1.87c-.7.09-2.11.35-2.27.69a1.31,1.31,0,0,1-1.56.44c-.71-.26-1.49-.87-1.88-.78a9.66,9.66,0,0,0-1.33.52S365,1073.45,365.42,1073.53Zm7.83,7.49c-.24.35-2.74.16-2.9,0a15.69,15.69,0,0,0-2-.79l-1.73.78a4.88,4.88,0,0,1-2.27-.35,4.26,4.26,0,0,0-1-.61s1.17-1,2.42-1.83,1.25-1.13,1.25-1.13l2.18,1.13.33.94a4.41,4.41,0,0,0,1.72,0C372,1079,373.48,1080.66,373.25,1081Zm72.66,16.87a1.94,1.94,0,0,1-1.29,0s.46-2.74.7-3.39C445.32,1094.5,446.49,1097.63,445.91,1097.89Z"/><path d="M27.31,981.46c0,.14.2.13.42,0C27.43,981.27,27.23,981.18,27.31,981.46Z"/><path d="M197.72,1013.08a.16.16,0,0,0-.08.06C197.47,1013.33,197.54,1013.33,197.72,1013.08Z"/><path d="M89.17,1000.77a16.9,16.9,0,0,0-1-2.11c-.59-.94-1.41.16-2.24,0s-.11,1.34,0,2.11,1.53.66,1.53,1.19-.94.78-1.41,1.43.47,1.44.83,1.31,2.81.26,3.75,0a4.16,4.16,0,0,0,1.41-.64,9.86,9.86,0,0,1-1.29-2.1C90.7,1001.57,89.17,1000.77,89.17,1000.77Z"/></g><g id="Layer_6" data-name="Layer 6"><path d="M-53.68,983.23s40.5-1.5,45,6,40.49,6,45,15,28.5,15,28.5,15l25.5,21s25.5-4.5,39,0S161.84,1051,161.84,1051s14,14,16,8,20,12.66,20,12.66,24,7.34,25.34,10.67S242.51,1103,244.51,1101s22-.35,24,.16,20,9.84,22.67,9.84,26,8.66,28.66,3.33S356.51,1097,356.51,1097s20.67-18,28-18,10.67-29.34,96.67-9.34c0,0,50,31.34,60.66,39.34s22,9.33,26.67,10.66,18.67,12,22,12,14.67,6.67,20,6,16.67-2.57,23.33,0,25.34,14,30.67,14,8-4,17.33-3.33,31.34,13.33,36.67,12,21.33,7.33,27.33,3.33,57.34-35.33,64.67-35.33,52-27.33,52-27.33l28-6s33.33-18.82,41.33-21.08,20.67-11.59,20.67-11.59,24.67,16,29.33,25.33,36.67,24,37.34,26,40,22.67,46.66,25.34,16,2,19.34,5.33,15.33,12,15.33,12l20,8.4,6.67,6.93s31.33,15.34,33.33,15.34,35.33,4,35.33,0,17.34-10,17.34-10,12.66-11.34,22.66-11.34,23.34-8,54.67,7.34,30,20.66,34,20.66,26-4,28.67,4.67,21.33,14,21.33,14l47.33-11.33s18.67,2.66,20.67,2,0-8.67,9.33-9.34,27.34.67,29.34-2.66,24-18.67,24-18.67,13.33-6,18-6,28.66-11.33,58.66-2.67,30.67,14,40,12.67,25.34-3.33,25.34-3.33l12,11.33,36-6s14,18.67,21.33,22,208.14,92.59,254.63,17.59-10.42,234.8-10.42,234.8l-2053.4-99Z"/></g><g id="Layer_8" data-name="Layer 8"><path d="M130.8,930.44s6,2.68,6,1.84c0-.47-.57-2.9-1.05-6A33.84,33.84,0,0,1,130.8,930.44Z"/><path d="M146.22,1124.16l-.28-.13a14.52,14.52,0,0,0,1.8,5.66C148.66,1127.93,149.16,1125.53,146.22,1124.16Z"/><path d="M150.84,1120.09c-.15-.79-.26-1.29-.26-1.29S150.67,1119.31,150.84,1120.09Z"/><path d="M168.68,1114.11a47.92,47.92,0,0,0,4,6.47v-.1Z"/><path d="M149.8,1014.77a12.77,12.77,0,0,0-2.91,1.13S148.14,1015.44,149.8,1014.77Z"/><path d="M199.18,1081.26c0,.25.38.07,1-.4C199.54,1081,199.18,1081.12,199.18,1081.26Z"/><path d="M137.17,923.9c.13-1.87,1.54-5.24-2-4.12a52.69,52.69,0,0,0,.63,6.49A4.69,4.69,0,0,0,137.17,923.9Z"/><path d="M184.76,1078.24a2.69,2.69,0,0,0-1.49.47C185,1078.42,185.84,1078.24,184.76,1078.24Z"/><path d="M-37.39,1337.7l275.84,12.74s-91.83-108.59-89.15-115.3,6-11.39,10.72-10.05,18.77,2.68,18.77,2.68l-4.69-8.72-14.75-4c6.71-5.36,2-10,2-10s-10.05-1.34-12.73-.67a58.33,58.33,0,0,0-8,3.35l-7.37-9.39-2.68-8a22.06,22.06,0,0,1,12.73,7.37s10.06,4.7,8.72-.67-7.38-12.06-7.38-12.06c4.7-6,10.73-2.68,16.76,5.36s5.37-9.38,5.37-9.38L150,1170.79s20.11-2.68,22.79,0,14.08,5.36,14.08,5.36l-4-11.39s10.06-2,14.08,5.36,14.75,9.38,7.37-5.36,14.08,4,16.09-.67-10-12.07-10-12.07-12.07-7.37-3.35-9.38,14.74-6.71,9.38-7.38-17.43-6-17.43-2-5.36,4.69-10.72,2.68c-4.31-1.61-6-7.11-4.79-9.56-3.78,1.94-12,5.54-12,5.54s-1.34-9.05-6.37-5.36a47.09,47.09,0,0,0-9.05,9.38s-.67-13.07-2-12.73-.67,17.09-3.69,18.1-24.8-1.34-26.14.67-6.7-3-6.7-3-6.52,1.92-5.87.67c-.79-1.26-1.85-6-2.18-8.51-4.85-2.28,0-3.89,0-3.89s1-3.69,3.69-4.36,4,2.35,4,2.35a25,25,0,0,0,.06,5.9c.09,0-5.18,1.43-5.09,1.47,2.94,1.37.26,4.19,6.88,4.19,1.11,1.77,2.42,2.2,3.18.84,1.28-2.3.41-7.91-.07-10.45-.18-.77-.27-1.28-.27-1.28s.12.5.27,1.28c.51,2.27,1.76,6.86,3.76,8.1,2.68,1.68,4-14.41,2.34-17.76s3-2.35,3-2.35,5,10.06,5.36,15.42,4.36,11.4,6.37,8.71c1.88-2.51,1.12-10.6,1-11.62a49.14,49.14,0,0,1-4-6.47l4,6.36,0,.11c1.2,1.51,2.36,2.46,3,1.57,1.68-2.35,0-10.39-1.68-12.4s13.75,0,14.08,4,7-3.69,2.35-6.7,16.09-4.69,18.43-1.68-3.68-10-3.68-10,17.42-5.37,20.11-3-.68-9.38-5.7-7.71,10.72-5.36,10.72-5.36-24.89.53-30.17,1.61c-.62.46-1,.65-1,.4s.37-.28,1-.4c2.66-2,9.73-9.32,9.73-9.32s-2.68-3.69-8,.34-21.45,13.4-21.45,13.4.49-5,2.87-6.57c-4.24.71-13.94,2.13-15.6,3.56-2.35,2-2.68-10.39-5-12.07s.67,5.36-4,6.7-13.41,1.34-13.41,1.34l5.7-12.06-7.71-1s3-5.36,5.7-4.36,7.37-.33,6.7-1.34,4.69,1.68,4.69,1.68-1-6.37-3.68-7,9.72-1.67,11.39.34,8,3.35,8,1-3.36-6-3.36-6,14.08-5.7,17.1-4.69,2.34-6.5,2.34-6.5l6.37,3.48a10.2,10.2,0,0,0-6.37-9.38c-6.7-3,8.72-2,6.71-5.7S157,1031.36,157,1033s-.67-10.39-.67-10.39-4.7-1-4.7,2a17.16,17.16,0,0,1-1.34,6l-4-8.38-1.17,2.35s.16-2-4.86-1c-.64.13-1.25,3.9-1.51,4.19,2,1.53,4.2,1.17,3.34,2.18,1.21,2.21.51,3-.16,4.36-1.34,2.68-3.68,8.71-6.7,7.71s.67-6,.67-6,3.69-9.38-3.69-2.34-10,10-10,10,2.68-6.7,1.67-8.71-11.73,9.8-14.74,10.26-7.38,2.14-7.71-2.22a28.1,28.1,0,0,1,1.34-9.38s7,3.68,8.38,3.35,4.69-6.7,2.34-8.38,8.38,3.35,8.38,3.35,4.36-3,2.68-4.36,8.22.84,9.22,1.85c.37.36,2-.66,2.68-1.51,1.34-1.37-.55-4.2.24-5.09-.92-.7,0,0-2.08-.61a24.69,24.69,0,0,0-13.51-.46c-1.66.67-2.91,1.13-2.91,1.13a12.77,12.77,0,0,1,2.91-1.13c3.45-1.39,8.71-3.66,8.48-4.57-.33-1.34-17.09,0-18.1,1.68s-3.68-.67-3.68-.67,4.19-3.85,4.19-5.19-7.21.83-9.89,1.5,3.52-2,2.34-3.35-8.21,2-8.71,2.52-6.7-2.18-2.68-5.37,11.06-.67,11.06-.67-6-7.2-7.88-7.71-4-5-2-6.36S100.7,998,100.7,998s4.52.34,2.34-3.68a32,32,0,0,0-6.2-7.55s13.5-.25,17.42.36c-2.68-1.3-9.6-5.25-10.38-5.38-1-.17,8.21-1.51,10.06-.17a18.38,18.38,0,0,0,4.52,2.18s4-2.35,2.85-4.19,12.07-.34,12.4.67,5-2.85-1.17-5.7-14.58-2-14.58-2,5-6.87,2.35-7.88S103,977.23,103,977.23s2-6.2,4.36-7.54-2.68-3-3.85-1.51-6.71,2.52-7.21.34,6.37-2.52,6.37-2.52,1.51-3.35-1.17-3.35a19.81,19.81,0,0,1-6-1.34,5.08,5.08,0,0,1,5.7-3.18,24.23,24.23,0,0,1,7.37,2.34s2.52-3,.17-4.86a33.32,33.32,0,0,0-6.37-3.51s17.94-.51,17.94-3.69l2.17-2.52s-7.54-1-7.54-2,5.37-1,5.37-1l5.19,3.18s4.52-1.17,2.35-3.85-9.89-4.69-9.89-4.69l7.54-11.06s2-3.36-4.19-1.35-6.54,6.54-8.38,6.54,4.19-12.48,4.19-12.48-10.56.08-10.72,6.11c0,.52,1.66-.36,1.67.17,3.55-1.12,3,2.67,2.85,4.54,0,.68.77,2.51,0,3.36a34.17,34.17,0,0,1,.5,5.17c0,.84-6.36.23-6.36.23a9.5,9.5,0,0,1,2-5.4,52.73,52.73,0,0,1-.62-6.49,19.16,19.16,0,0,0-3.69,1.77c-8,4.7-9.22,5-9.22,5s-1.34-5,.5-6.7,5.7-6.87-5.53-12.4c0,0,5.53-5.87,5.7-8.55S90,901.32,90,901.32s3.86-9.39,9.89-9.05a126.83,126.83,0,0,0,14.91-.5s-.83-4.19-3-4.7,6.7.17,6.7.17,1.68-4.52-4.36-4.86-8-1.31-8-1.31,6-7.57,7.37-7.74-.83-6.37-5-2.18-5.37,8.21-6.87,7.54-4.86-3-3.69-4.86,6.7-8.21,6.7-8.21-.5-6.37-4.52-1.17A9.15,9.15,0,0,1,90.48,868l-3.19,3-1.84,5.86s-3.52-4.19-8.55-4-12.06,6.37-12.06,6.37-2.85-.51.33-3.69,21.12-13.24,21.12-13.24,2-5-4.19-2.51a94.32,94.32,0,0,0-10.56,5l1.17-7s-4.86.33-7.37,2.68-3.19-1.34-.67-3.86S86,837.3,86,837.3s.84-5.36-12.23-1.34c0,0,2.34-9.72.33-11.4s-2.85-6.87-11.73-1.34c0,0-1-3.85,3.35-4.69s11.57-3,11.57-3,6.87-3-1.34-5.2l-11.9,3,3.35-4.7s-.84-8.71-7.21-3.85c0,0-.33,3.52-2,3.52s-2.85-7.71-1.84-8.55,19.1-17.09,19.1-17.09,1.51-5.87-5.53-3.35a30.54,30.54,0,0,0-11.23,7s.34-47.43-5.86-46.17c0,0-7,33.68-5,42.73s-10.3-11.31-10.3-11.31-4,1.26-3.77,4.78,13.82,23.37,13.82,23.37,2.77,7.54.5,7.29-13.32-12.57-13.32-12.57S28.89,795,30.9,799,43,809.32,43,809.32H38.19s-3-.51,2,6-4.27,1.25-4.27,1.25-9.55-7.53-7.54,2l12,9.55-10.8,1.25s-3.32,3.78-1.53,4.28,7.06,8.8,6.31,8.8H28.89l-7-7v8l-8-1.76v4L.48,840.49s-3.52.75,0,5.27l10.06,3s-1.76,3.27-1.26,5,14.33,6.28,14.33,6.28l-9.8,5.28s-1,2,.75,2.77,11.28,0,11.28,0,3.24,3.26,0,3.77a36.32,36.32,0,0,1-7.76,0s-.5,2.26,1,2.76,8.29,3,9.3,4-.51,2.38-.51,2.38l-9.8-3.38s-2.51,1.48-1.26,3.38,7.54,5.67,7.54,5.67-2.26,3-3.51,2.51S9.28,876.43,9.28,876.43s-2.51-.5-2,2.77L11.8,887s-18.35-9.55-20.37-7c0,0-4.27-.28-3.26,1.12s7,2.15,7,4.16a7.66,7.66,0,0,1-1.75,4.08l1.5,3,7.8,4.27s3.52,2.26.75,2.52-9.8,3.51-9.8,3.51-.51,2.52,2.51,2.52H8l-1.25,4.27s8.8-.75,9.05-2.76,9.55,4.77,9.3,6-6.54,1.51-7.29,7.29-7.29-6-7.29-6-3.77-2.27-6.79,1.76c0,0-6.79-4.28-9.3-2.77s7,10.06,7,10.06-2.77,7-4.78,7.54.76,2.51,2,2.26S9.28,926,11.29,929.47l11.06-.5s1.76,10,.25,10.56-9,0-9.3,1.5,3.52,4,3.52,4-7.29.75-7.29,1.76S.74,939.28.74,939.28s-3,1-2.77,2.26S-5.3,943.3-5.8,941s-3.77-7.79-3.77-7.79-2.77-2.26-3.77.76a28.09,28.09,0,0,0-1.26,5.28l-3.27-6.54s-2-3-3.77.25a6.8,6.8,0,0,0,0,6.29s-5.28-2-8.8-1.76,2.77,4,2.77,4l6.79,4s1,.67-2.27,1.34-8.42,5.2-8.36,6.45,8.62-.5,9.37,0-4.78,7.79-4.78,7.79a5,5,0,0,0,2.27,0c1.5-.25,5.78-2.76,5.78-2.76a3.23,3.23,0,0,1,1.25,2.88c0,2.15,9.05-3.13,7.8-4.89s10.05-2.26,9.8-1,4.78,2,2.77,3.52-8.8.23-10.31,2.88-3.52,6.42-3.52,6.42-15.84-.25-15.33,1.26,10.05,3,10.05,3,4.28,1.76,2.77,2.51-18,8.3-17.92,11.06,4.59,2,4.59,2l9.81-3.27-.76,3.37s5-2.11,5.28-3.11,7.29-3.52,7.29-3.52l2,8.54s4,0,3.77-1.76S2,979.49,2,979.49l3.77-1.75s3,.25,2.77,3A19.45,19.45,0,0,1,6.27,987s-5.53,4-5.53,5v4s5-2.52,6.78-5.28,4.78,0,4.78,0,2,7.54,1,8.79-14.83,1.76-14.83,1.76S-6,1009.91-5,1011.67s-10-2.76-10-2.76-4,2.57-3.77,3.17-12.64-3.68-12.64-3.68-5.46.93-2.44,3.73,12.82,6.58,11.31,9.6-15.59-7.55-15.59-7.55v6.54s-17.59-.75-18.35-3.77-2,3-2,3-14.33.33-15.08,2.3a4.56,4.56,0,0,0,0,3.48s8.29,1.25,10.05,1.76-.75,5.28-.75,5.28,10.56,1.5,10.81,0,5-2,5-2-6,6.78-5.28,7.54,3.77,0,3.77,0,9.55-11.57,10.56-9.81-.51,7.29-.51,7.29l-2.76,4.28s3.77,4,5,3.26-4.77,5.53-4.77,5.53,2.76,2,5.53,1.76,9.8-3.26,9.8-3.26,2.27,9.8,4,9.8,2.52-11.82,2.52-11.82,5,1.51,5,3,7.29-7.29,7-8,4,.75,3.52,2-2.76,3-2.76,3l4.27,5.28-9.3.26s-2.51,1-1.26,2.51,6,3.77,6,3.77-12.07,5-12.57,6.28,7,2,7,2l6,3.27h9.3l-5.53,5.53S-36.22,1066.72-38,1068s-2.76,4.77-2.76,4.77l-4-3.77s-4.78-2.76-3,2,1,3-.25,3.27-19.61-8-23.13-5.53,3.27,4.28,3.27,4.28,14.83,9,13.57,11.81-9.55,7.79-9.55,7.79-2.76,7.8,4.28,5,9.55-7.29,11.56-5.78,1.51,9.3,1.51,9.3l5.78-6.28s2.51,2.26,1,3.77l-8.29,8.29s2.51,5.53,7.79,3.77,9.8-9,10.81-7.54,3.52,10.56,5.53,10.81,8.3,5.28,8.8,4,7-9,8.55-8.8,4,4,3,5-7.08,7.79-7.08,7.79-4.48,9.56,11.61,9.56c0,0-.51,7.54-5.28,9.3,0,0-8-10.06-20.87-5.78l-10.3-7s-7-2-2.27,2.51,9.81,10.31,9.81,10.31a8.76,8.76,0,0,1-4.78,0c-2.51-.76-6.78.33-6.78.33s-6.54-1.84-8.05-3.35-4.52-9.55-4.52-9.55-4.28-4.78-7,.5l-1,4-9.3-7.79s-4-2.76-2.51,1a95.85,95.85,0,0,0,5.28,10,9.89,9.89,0,0,1-5.53.75c-3-.5-9.3-3-11.32-2.51s-8,.5-8,.5,6,7.21,7,6.37,9,2.93,9,2.93l-1.26,2.77,2.26,2.51s-8.79-2-9.55,0,4,4,4,4L-94,1159.73s-10.31,11.06,2.76,7,15.84-7,16.59-6-4.52,8.54-4.52,8.54-.25,3,1.51,3.27,7.54-3.77,7.54-3.77,4.52-8.8,6-8.3,7.29-.25,5,2.52-3.52,9.56-3.52,9.56,8.8-6.29,8.8-9.31,6.28,0,6.28,0l-6.79,6.79s8.3-2.27,10.31.5-7,9.3-7,9.3-.25,3.52,1.76,3a11.56,11.56,0,0,1,4.53.05l-5.53,13.77s4.52,3,8.54-2,5-12.32,5-12.32,3.52,1,3.77,3.27,3,3.52,3,3.52,3.27-9.3,4.77-9.3a26.86,26.86,0,0,1,4.53.75s-8.55,11.06-7.54,12.32a19.51,19.51,0,0,1,2,4.67l6.28-1.9s4.53-7.29,4.78-10.06,2.76-5,3.77-3.52S-1,1202.21-6,1202.71s-13.58,3.27-15.34,2-5-4-5-4-4,.76-2.52,3,4,5.78,2.27,6.54-10.31,2-10.56,3-7.79,3-7,5,2.76,5.78,1,4.78-7.29-7.55-7.29-7.55-3.26-1.75-3,.76a10.57,10.57,0,0,1-1,5s-8-5.45-12.06,1.92L-90.26,1211s-6.79-2.51-1.51,2.77,9.55,9.46,9.55,9.46l-17.34-2.68s-13.07-2.26-14.83-.25,7,4.78,7,4.78l9.81,4.27s1.76,5.28,4.27,4.52-8,7.8-8,7.8-2,2.26-1,3.52,12.57-4.53,14.33-2.52,4.78,2.63,7.54,2.7,11.31-4,12.82-3.2,7.79,6,6.29,7-19.86,6-19.86,6-3.27,3.27.75,4.28,20.61-5.79,21.12-4.28,6-1.51,3.77,2-3.77,6.29-3.77,6.29l8.29-2s2-4,4.28-4.78,5.53,3.27,5.53,5.28,4.27,12.57,4.27,12.57-6.54,1.76-8,0-8.05-1.26-8.05-1.26l.5,5.78s-16.34,1.51-16.84,3.77-4.52-3-4.52-3-4.28-2.52-5,1.76,3,4.77,3,4.77-8.8-.75-10.06-2.51-18.35-8.3-21.37.5c0,0-11.31-6.79-12.06-7.79s-10.81-4.27-4.53,3,11.06,9.31,11.06,9.31l-23.12,1.25s-13.32,2.52-2,4.53,14.33,2,14.33,2-4.28,4.52-1.76,6.79-11.82,2-11.82,2-9.3,6.28-.75,7,21.11-3.77,21.87-5,2,2.76,2,2.76-1.51,6,0,8.55c1.21,2,4.19-4.2,5.32-6.75a2.73,2.73,0,0,1,.79-1.95c1-2.6,4-10,6.71-10.15a13.54,13.54,0,0,1,6,1l-9.8,7a10.21,10.21,0,0,0-2.94,2.11c-.21.56-.33.91-.33.91s-.17.41-.46,1a2.67,2.67,0,0,0,1,1.72c3.27,3,13.58-2,13.58-2s9.3-7.29,9.55-5.53,2.76,1.76.75,4.53-8.8,4-8.8,7,5,1.4,5,1.4,4.78.87,2.77,2.37-10.31,11.32-10.31,11.32l1,10s9-12.65,11-11.65,4.69-6,6-5,4,7,4,7l6,6.7,12.07-19.11,7.71,16.43,4.69-2.35L-47.44,1323s9,2.68,8.71,1.34-2-9-2-9-2.35-4.7.33-4.7,9.39,4,10.39,3-4.35,5.36-3.68,7S-34,1328-34,1328ZM105.73,1093s4.69,6.71,4.69,8.72-4.69,0-4.69,0Zm-19-203.78c3.52-3.66,1.51,2.26,1.51,2.26l-4.14,5s-2.9.5-2.64-1S86.7,889.25,86.7,889.25Zm-5.29,29.92,7.38,4.27H77.4C75.64,919.92,81.41,919.17,81.41,919.17Zm-8-41.73,4,3.63s-3,3.66-4,2.65S73.38,877.44,73.38,877.44Zm-6.53-49.52s-.25,8.54-1.89,8-1.63-3.52-1.88-4.52S66.85,827.92,66.85,827.92ZM60.14,993.49s4.7,3.68,4,5-2,5-2,5,.3-5.69-2-5S60.14,993.49,60.14,993.49Zm-32-32.17a34.39,34.39,0,0,1,6.79-3.44s2-.51,1.59,1.17S29,964.83,29,964.83,25.62,963.17,28.13,961.32Zm-6.78-11s3.77,7.29,3,7.54-5.78-5.53-5.78-5.53Zm-8.47,61.25c1.35-2,11.58,0,11.58,0l-7.55,5S11.54,1013.6,12.88,1011.59Zm-11.67,3.62,1.06-8.44s8-.54,8.14.16.66,2.32-.41,2.35-3-.69-3.92,0-1.91,1.44-1.91,1.44-1.34,6.26,0,7.27,1.44.5,1.44.5-.35,1.66-1.51,1.19S1.21,1015.21,1.21,1015.21Zm-8.1,80.84c-3,1-5.83,5.7-5.83,5.7s1.14,2,4.15,1l-8.71,7.71s-3.69-5.7-1.68-7.71S-8.57,1093-8.57,1093-3.87,1095-6.89,1096.05Z"/><path d="M144,980.38a2.05,2.05,0,0,0-1-.32C143.79,980.44,144.23,980.6,144,980.38Z"/><path d="M213.59,1118.13a2,2,0,0,0-1.43,1.16C213.78,1118.46,214.6,1117.93,213.59,1118.13Z"/><path d="M1644.51,978.17s-7,2.68-7,1.84c0-.46.66-2.9,1.21-6A37.68,37.68,0,0,0,1644.51,978.17Z"/><path d="M1626.76,1171.89l.32-.13a13.19,13.19,0,0,1-2.07,5.66C1624,1175.66,1623.37,1173.27,1626.76,1171.89Z"/><path d="M1621.44,1167.82c.17-.79.3-1.29.3-1.29S1621.64,1167,1621.44,1167.82Z"/><path d="M1600.9,1161.84a48.09,48.09,0,0,1-4.64,6.47.82.82,0,0,0,0-.1Z"/><path d="M1622.63,1062.5a15.49,15.49,0,0,1,3.35,1.14S1624.55,1063.17,1622.63,1062.5Z"/><path d="M1565.79,1129c0,.25-.44.07-1.15-.4C1565.36,1128.72,1565.79,1128.85,1565.79,1129Z"/><path d="M1637.18,971.63c-.16-1.87-1.78-5.23,2.31-4.12a45.52,45.52,0,0,1-.72,6.49A4.51,4.51,0,0,1,1637.18,971.63Z"/><path d="M1582.38,1126a3.44,3.44,0,0,1,1.72.46C1582.08,1126.15,1581.14,1126,1582.38,1126Z"/><path d="M1834.3,1375.71s-1.16-5.69-.39-7.37-5.4-8-4.24-7,8.87-3,12-3,.38,4.69.38,4.69-1.92,7.71-2.31,9,10-1.34,10-1.34l-5.4,12.06,5.4,2.35,8.88-16.42,13.89,19.1,7-6.7s3.08-6,4.63-7,4.63,6,6.94,5,12.64,11.64,12.64,11.64l1.16-10s-9.55-9.81-11.87-11.31,3.19-2.37,3.19-2.37,5.78,1.61,5.78-1.4-7.81-4.28-10.13-7,.58-2.77.87-4.53,11,5.53,11,5.53,11.87,5,15.63,2a2.57,2.57,0,0,0,1.1-1.72c-.32-.63-.52-1-.52-1s-.14-.35-.39-.91a11.87,11.87,0,0,0-3.37-2.11l-11.29-7a17.86,17.86,0,0,1,6.94-1c3.1.2,6.58,7.55,7.72,10.15a2.54,2.54,0,0,1,.91,1.95c1.31,2.55,4.74,8.77,6.13,6.75,1.74-2.51,0-8.55,0-8.55s1.45-4,2.32-2.76,15.34,5.78,25.18,5-.87-7-.87-7-16.5.25-13.6-2-2-6.79-2-6.79,3.48,0,16.5-2-2.32-4.53-2.32-4.53l-26.62-1.25s5.5-2,12.73-9.3-4.34-4-5.21-3-13.89,7.79-13.89,7.79c-3.47-8.8-23.15-2.26-24.6-.5s-11.58,2.51-11.58,2.51,4.34-.5,3.48-4.77-5.79-1.76-5.79-1.76-4.63,5.28-5.21,3-19.39-3.77-19.39-3.77l.58-5.78s-7.53-.5-9.27,1.26-9.26,0-9.26,0,4.92-10.56,4.92-12.57,3.77-6,6.37-5.28,4.92,4.78,4.92,4.78l9.55,2s-1.73-2.77-4.34-6.29,3.76-.5,4.34-2,19.68,5.28,24.31,4.28.87-4.28.87-4.28-21.13-5-22.86-6,5.5-6.28,7.23-7,11.58,3.27,14.76,3.2,6.66-.68,8.69-2.7,15.33,3.78,16.49,2.52-1.16-3.52-1.16-3.52-12.15-8.55-9.26-7.79,4.92-4.53,4.92-4.53l11.29-4.27s10.13-2.77,8.1-4.78-17.07.25-17.07.25l-20,2.68s4.92-4.18,11-9.46-1.74-2.77-1.74-2.77L1871.82,1271c-4.63-7.37-13.89-1.92-13.89-1.92a9.54,9.54,0,0,1-1.16-5c.29-2.51-3.47-.75-3.47-.75s-6.37,6.53-8.39,7.54.29-2.77,1.16-4.78-7.82-4-8.11-5-10.13-2.26-12.15-3,.87-4.28,2.6-6.54-2.89-3-2.89-3-3.76,2.76-5.79,4-11.87-1.51-17.66-2,4.93-19.11,6.08-20.62,4,.76,4.34,3.52,5.5,10.06,5.5,10.06l7.24,1.9s1.16-3.41,2.31-4.67-8.68-12.31-8.68-12.31a34.63,34.63,0,0,1,5.21-.76c1.74,0,5.5,9.3,5.5,9.3s3.18-1.26,3.47-3.52,4.34-3.27,4.34-3.27,1.16,7.29,5.79,12.32a8,8,0,0,0,9.84,2l-6.36-13.77a15.19,15.19,0,0,1,5.2-.05c2.32.5,2-3,2-3s-10.42-6.53-8.1-9.3,11.86-.5,11.86-.5l-7.81-6.79s7.23-3,7.23,0,10.13,9.31,10.13,9.31-1.44-6.8-4-9.56,4-2,5.79-2.51,7,8.29,7,8.29,6.65,4,8.68,3.77,1.74-3.27,1.74-3.27-6.08-7.54-5.21-8.54,4.05,2,19.1,6,3.18-7,3.18-7l-16.21-6.28s5.5-2,4.63-4-11,0-11,0l2.6-2.51-1.45-2.76s9.27-3.77,10.42-2.94,8.11-6.36,8.11-6.36-7,0-9.26-.51-9.56,2-13,2.52a13,13,0,0,1-6.37-.76,90.94,90.94,0,0,0,6.08-10c1.74-3.77-2.89-1-2.89-1l-10.71,7.79-1.16-4c-3.18-5.28-8.1-.5-8.1-.5s-3.47,8-5.21,9.55-9.26,3.35-9.26,3.35-4.92-1.09-7.82-.33a11.55,11.55,0,0,1-5.5,0s5.79-5.78,11.29-10.31-2.6-2.51-2.6-2.51l-11.87,7a24.28,24.28,0,0,0-24,5.78c-5.5-1.76-6.08-9.3-6.08-9.3,18.52,0,13.36-9.55,13.36-9.55s-7-6.79-8.15-7.8,1.74-4.77,3.47-5,9.27,7.54,9.84,8.79,7.82-3.77,10.13-4,5.21-9.3,6.37-10.81,6.37,5.78,12.45,7.54,9-3.77,9-3.77l-9.55-8.29c-1.74-1.51,1.15-3.77,1.15-3.77l6.66,6.28s-.58-7.79,1.74-9.3,5.21,3,13.31,5.78,4.92-5,4.92-5-9.55-5-11-7.79,15.63-11.81,15.63-11.81,7.82-1.76,3.76-4.28-25.18,5.79-26.62,5.53-2.32,1.51-.29-3.26-3.47-2-3.47-2l-4.64,3.77s-1.15-3.52-3.18-4.78-39.36,6.28-39.36,6.28l-6.37-5.53h10.71l7-3.26s8.68-.76,8.1-2-14.47-6.29-14.47-6.29,5.5-2.26,6.95-3.77-1.45-2.51-1.45-2.51l-10.71-.26,4.92-5.27s-2.6-1.76-3.18-3,4.34-2.77,4-2,8.1,9.55,8.1,8,5.79-3,5.79-3,.87,11.81,2.9,11.81,4.63-9.8,4.63-9.8,8.1,3,11.28,3.26a12,12,0,0,0,6.37-1.75s-7-6.29-5.5-5.53,5.79-3.27,5.79-3.27l-3.18-4.28s-1.74-5.53-.58-7.29,12.15,9.81,12.15,9.81,3.48.75,4.34,0-6.07-7.54-6.07-7.54,5.5.5,5.78,2,12.45,0,12.45,0-2.89-4.78-.87-5.28,11.58-1.76,11.58-1.76a4,4,0,0,0,0-3.48c-.87-2-17.37-2.3-17.37-2.3s-1.44-6-2.31-3-21.13,3.77-21.13,3.77v-6.53s-16.21,10.55-17.94,7.54,9.55-6.79,13-9.59-2.82-3.74-2.82-3.74-14.83,4.28-14.54,3.68-4.35-3.17-4.35-3.17-12.73,4.52-11.57,2.76-4.05-10.3-4.05-10.3-15.92-.51-17.08-1.76,1.16-8.8,1.16-8.8,3.47-2.77,5.5,0,7.81,5.28,7.81,5.28v-4c0-1-6.37-5-6.37-5s-2.31-3.52-2.6-6.29,3.18-3,3.18-3l4.34,1.76s2,7,1.74,8.79,4.34,1.76,4.34,1.76l2.32-8.54s8.1,2.51,8.39,3.52,6.08,3.11,6.08,3.11l-.87-3.36,11.29,3.26s5.21.76,5.28-2-18.89-10.3-20.62-11.06,3.18-2.51,3.18-2.51,11-1.51,11.58-3-17.66-1.26-17.66-1.26-2.31-3.77-4-6.42-9.55-1.37-11.86-2.88,3.47-2.26,3.18-3.52,12.73-.75,11.29,1,9,7,9,4.89a3.13,3.13,0,0,1,1.45-2.88s4.92,2.51,6.65,2.77a6.89,6.89,0,0,0,2.61,0s-6.37-7.29-5.5-7.8,10.71,1.26,10.78,0-5.86-5.78-9.62-6.45-2.61-1.34-2.61-1.34l7.81-4s7.24-3.77,3.19-4S1820,987,1820,987a6,6,0,0,0,0-6.29c-2-3.27-4.34-.25-4.34-.25l-3.76,6.54a25.17,25.17,0,0,0-1.45-5.28c-1.16-3-4.34-.76-4.34-.76s-3.77,5.53-4.34,7.8-4.64,1.76-4.35.5-3.18-2.26-3.18-2.26-10.13,8.54-10.13,7.54-8.39-1.76-8.39-1.76,4.34-2.52,4-4-9-1-10.71-1.51.29-10.56.29-10.56l12.74.5c2.31-3.52,13,3,14.47,3.27s4.63-1.76,2.31-2.26-5.5-7.54-5.5-7.54,11-8.55,8.11-10.06-10.71,2.77-10.71,2.77a6.49,6.49,0,0,0-7.82-1.76s-7.52,11.81-8.39,6-8.1-6-8.39-7.29,10.42-8,10.71-6,10.41,2.76,10.41,2.76l-1.44-4.27h13.6c3.47,0,2.89-2.51,2.89-2.51s-8.1-3.27-11.28-3.52.87-2.52.87-2.52l9-4.27,1.73-3s-2-2.07-2-4.08,6.94-2.76,8.1-4.16-3.76-1.12-3.76-1.12c-2.32-2.51-23.44,7-23.44,7l5.21-7.79c.57-3.27-2.32-2.77-2.32-2.77s-11.87,12.32-13.31,12.82-4-2.51-4-2.51,7.23-3.77,8.68-5.67-1.45-3.38-1.45-3.38L1763,928.8s-1.73-1.37-.58-2.37,9-3.52,10.71-4,1.16-2.76,1.16-2.76a48.18,48.18,0,0,1-8.94,0c-3.73-.5,0-3.77,0-3.77s11,.75,13,0,.87-2.77.87-2.77l-11.29-5.28s15.92-4.52,16.5-6.28-1.45-5-1.45-5l11.58-3c4-4.53,0-5.28,0-5.28l-15.34,5.28v-4l-9.26,1.76v-8l-8.1,7h-6.37c-.87,0,5.21-8.3,7.26-8.8s-1.76-4.27-1.76-4.27l-12.43-1.26,13.87-9.55c2.32-9.55-8.68-2-8.68-2s-10.71,5.28-4.92-1.26,2.32-6,2.32-6h-5.5s11.58-6.29,13.89-10.31-4.34-4.52-4.34-4.52-12.74,12.31-15.34,12.56.58-7.29.58-7.29,15.63-19.85,15.92-23.37-4.34-4.78-4.34-4.78-14.19,20.36-11.87,11.31-5.79-42.73-5.79-42.73c-7.14-1.26-6.75,46.17-6.75,46.17a36,36,0,0,0-12.93-7c-8.1-2.51-6.37,3.35-6.37,3.35s20.84,16.26,22,17.09-.19,8.55-2.12,8.55-2.32-3.52-2.32-3.52c-7.33-4.86-8.3,3.86-8.3,3.86l3.86,4.69-13.7-3c-9.45,2.18-1.54,5.2-1.54,5.2s8.3,2.18,13.31,3,3.86,4.7,3.86,4.7c-10.22-5.53-11.19-.34-13.5,1.34s.38,11.39.38,11.39c-15-4-14.08,1.34-14.08,1.34s21.61,16.76,24.5,19.27,2.12,6.21-.77,3.86-8.49-2.68-8.49-2.68l1.35,7a115.16,115.16,0,0,0-12.15-5c-7.14-2.52-4.83,2.51-4.83,2.51s20.65,10.06,24.31,13.24.39,3.69.39,3.69-8.1-6.2-13.89-6.37a14.38,14.38,0,0,0-9.84,4l-2.13-5.86-3.66-3a11.54,11.54,0,0,1-11-3.52c-4.63-5.19-5.21,1.17-5.21,1.17s6.37,6.37,7.72,8.22-2.51,4.19-4.25,4.86-3.08-3.36-7.91-7.55-7.33,2-5.79,2.18,8.49,7.74,8.49,7.74-2.31,1-9.26,1.31-5,4.86-5,4.86,10.22-.67,7.71-.17-3.47,4.7-3.47,4.7a168.12,168.12,0,0,0,17.17.5c6.95-.34,11.39,9,11.39,9s-5,2-4.83,4.69,6.56,8.55,6.56,8.55c-12.92,5.53-8.49,10.72-6.36,12.4s.58,6.7.58,6.7-1.36-.33-10.62-5a23.44,23.44,0,0,0-4.25-1.77,44.27,44.27,0,0,1-.72,6.49,8.7,8.7,0,0,1,2.27,5.4s-7.33.61-7.33-.23a30.57,30.57,0,0,1,.58-5.17c-.89-.85,0-2.67,0-3.36-.16-1.87-.8-5.66,3.28-4.54,0-.53,2,.35,1.93-.17-.19-6-12.35-6.11-12.35-6.11s7,12.48,4.82,12.48-2.5-4.52-9.64-6.53-4.83,1.34-4.83,1.34l8.69,11.06s-8.88,2-11.39,4.69,2.7,3.85,2.7,3.85l6-3.18s6.18,0,6.18,1-8.68,2-8.68,2l2.5,2.51c0,3.18,20.65,3.69,20.65,3.69a40.36,40.36,0,0,0-7.33,3.52c-2.7,1.84.19,4.86.19,4.86a30.69,30.69,0,0,1,8.49-2.35c5-.67,6.56,3.18,6.56,3.18a25.73,25.73,0,0,1-7,1.34c-3.08,0-1.35,3.36-1.35,3.36s7.91.33,7.34,2.51-7,1.17-8.3-.34-7.14.17-4.44,1.51,5,7.54,5,7.54-16.79-13.57-19.88-12.56,2.71,7.87,2.71,7.87-9.65-.84-16.79,2-1.74,6.71-1.35,5.7,15.63-2.51,14.28-.67,3.28,4.19,3.28,4.19a23,23,0,0,0,5.21-2.18c2.12-1.34,12.73,0,11.57.17-.9.13-8.86,4.08-11.94,5.38,4.5-.61,20-.35,20-.35a34.1,34.1,0,0,0-7.14,7.54c-2.51,4,2.7,3.68,2.7,3.68s5.21-5.69,7.52-4.35-.19,5.86-2.31,6.37-9.07,7.7-9.07,7.7,8.1-2.51,12.73.67-2.5,5.87-3.08,5.37-8.69-3.86-10-2.52,5.79,4,2.7,3.35-11.38-2.84-11.38-1.5,4.82,5.19,4.82,5.19-3.08,2.35-4.24.67-20.45-3-20.84-1.67c-.26.9,5.8,3.17,9.77,4.56a15.9,15.9,0,0,1,3.35,1.13s-1.44-.46-3.35-1.13a32.59,32.59,0,0,0-15.56.46c-2.39.61-1.34-.09-2.39.61.91.89-1.27,3.72.27,5.09.83.85,2.67,1.88,3.09,1.51,1.16-1,12.54-3.18,10.61-1.84s3.09,4.35,3.09,4.35,12.35-5,9.64-3.35,1.16,8,2.71,8.38,9.64-3.35,9.64-3.35,1.93,5,1.55,9.38-5.41,2.69-8.88,2.22-15.82-12.27-17-10.26,1.93,8.71,1.93,8.71-3.09-3-11.58-10-4.24,2.35-4.24,2.35,4.24,5,.77,6-6.17-5-7.72-7.71c-.76-1.33-1.57-2.15-.17-4.36-1-1,1.55-.65,3.84-2.18-.3-.29-1-4.06-1.74-4.19-5.79-1-5.59,1-5.59,1l-1.35-2.35-4.63,8.38a15.23,15.23,0,0,1-1.55-6c0-3-5.4-2-5.4-2s-.77,12.06-.77,10.39-12.74-3-15,.67,15.43,2.68,7.72,5.7-7.34,9.38-7.34,9.38L1607,1093s-.77,7.5,2.7,6.5,19.68,4.69,19.68,4.69-3.86,3.69-3.86,6,7.33,1,9.26-1,16.21-1,13.12-.34-4.24,7-4.24,7,6.17-2.68,5.4-1.67,4.63,2.34,7.72,1.34,6.56,4.35,6.56,4.35l-8.88,1,6.56,12.06s-10,0-15.43-1.34-1.93-8.38-4.63-6.7-3.09,14.08-5.79,12.07c-1.91-1.43-13.09-2.85-18-3.56,2.73,1.56,3.29,6.57,3.29,6.57s-18.52-9.38-24.69-13.4-9.27-.34-9.27-.34,8.15,7.29,11.21,9.32c.72.12,1.14.26,1.14.4s-.43.07-1.14-.4c-6.09-1.07-34.74-1.61-34.74-1.61s18.13,7,12.34,5.36-9.64,10.06-6.56,7.71,23.16,3,23.16,3-7,13.07-4.25,10,26.63-1.34,21.23,1.68,2.31,10.72,2.7,6.7,18.13-6,16.2-4-3.85,10.06-1.92,12.4c.73.89,2.07,0,3.46-1.57a.36.36,0,0,1,0-.1l4.63-6.37a48.09,48.09,0,0,1-4.64,6.47c-.12,1-1,9.11,1.17,11.63,2.31,2.68,6.94-3.36,7.33-8.72s6.17-15.42,6.17-15.42,5.4-1,3.48,2.35-.39,19.44,2.7,17.76c2.29-1.24,3.74-5.83,4.32-8.09.18-.79.31-1.29.31-1.29s-.11.51-.31,1.29c-.55,2.53-1.55,8.14-.08,10.44.87,1.37,2.38.93,3.66-.84,7.63,0,4.53-2.82,7.92-4.19.11,0-6-1.42-5.86-1.47a21.7,21.7,0,0,0,.07-5.9s1.54-3,4.63-2.35,4.25,4.36,4.25,4.36,5.58,1.62,0,3.89c-.38,2.47-1.6,7.25-2.51,8.51.75,1.25-6.76-.67-6.76-.67s-6.17,5-7.71,3-26.63.33-30.1-.67-2.7-17.77-4.25-18.1-2.31,12.73-2.31,12.73a50.59,50.59,0,0,0-10.42-9.38c-5.79-3.69-7.33,5.36-7.33,5.36s-9.44-3.6-13.79-5.54c1.41,2.45-.55,8-5.51,9.56-6.17,2-12.35,1.35-12.35-2.68s-13.89,1.34-20.06,2,.77,5.37,10.8,7.38-3.86,9.38-3.86,9.38-13.89,7.38-11.57,12.07,27-14.08,18.52.67,3.86,12.73,8.49,5.36,16.21-5.36,16.21-5.36l-4.64,11.39s13.12-2.68,16.21-5.36,26.24,0,26.24,0l-19.29,10.06s-.77,17.43,6.17,9.38,13.89-11.39,19.3-5.36c0,0-6.95,6.7-8.49,12.06s10,.67,10,.67a26.08,26.08,0,0,1,14.66-7.37l-3.08,8-8.49,9.38A73.08,73.08,0,0,0,1624,1252c-3.09-.67-14.67.67-14.67.67s-5.4,4.69,2.32,10l-17,4-5.4,8.71s16.2-1.34,21.61-2.68,9.26,3.35,12.34,10-102.64,115.3-102.64,115.3l317.59-12.74Zm-160.92-226.23s-5.4,2-5.4,0,5.4-8.72,5.4-8.72Zm28-206.21c.29,1.51-3,1-3,1l-4.78-5s-2.31-5.93,1.74-2.27C1695.28,937,1701.07,941.76,1701.36,943.27Zm4.63,27.9h-13.11l8.5-4.27S1708,967.65,1706,971.17Zm4.63-39.72c-1.16,1-4.63-2.65-4.63-2.65l4.63-3.63S1711.78,930.45,1710.62,931.45Zm11.86-52.28c-.28,1-.27,4-2.16,4.52s-2.18-8-2.18-8S1722.77,878.16,1722.48,879.17Zm3.38,167.08c-2.7-.67-2.35,5-2.35,5s-1.51-3.68-2.28-5,4.63-5,4.63-5S1728.56,1046.92,1725.86,1046.25Zm35.89-33.69s-8.2-4.1-8.68-5.78,1.83-1.16,1.83-1.16a41.68,41.68,0,0,1,7.81,3.43C1765.61,1010.91,1761.75,1012.56,1761.75,1012.56Zm12-12.48s-5.79,5.78-6.65,5.53,3.47-7.54,3.47-7.54Zm1.93,64.27-8.7-5s11.79-2,13.33,0S1775.64,1064.35,1775.64,1064.35Zm14.75,3c-1.34.47-1.74-1.19-1.74-1.19s.11.5,1.66-.5,0-7.27,0-7.27-1.15-.78-2.2-1.44-3.29.07-4.52,0-.69-1.66-.47-2.35,9.37-.16,9.37-.16l1.23,8.45S1791.73,1066.91,1790.39,1067.38Zm14.58,73.38s9.65,7.71,12,9.72-1.93,7.71-1.93,7.71l-10-7.71c3.47,1,4.78-1,4.78-1s-3.24-4.69-6.71-5.7S1805,1140.76,1805,1140.76Z"/><path d="M1629.26,1028.11a2.63,2.63,0,0,1,1.18-.32C1629.55,1028.17,1629.05,1028.33,1629.26,1028.11Z"/><path d="M1549.19,1165.86a2.28,2.28,0,0,1,1.65,1.16C1549,1166.19,1548,1165.66,1549.19,1165.86Z"/></g><g id="Layer_9" data-name="Layer 9"><g class="cls-26"><path class="cls-27" d="M1132.4,237.69c.92,0,3.13-1.38,1.2-1.38-.92,0-3.13,1.38-1.2,1.38Z"/></g><g class="cls-26"><path class="cls-27" d="M1325,191c7.72,0,7.73-12,0-12s-7.73,12,0,12Z"/></g><g class="cls-26"><path class="cls-27" d="M225,353c7.72,0,7.73-12,0-12s-7.73,12,0,12Z"/></g><g class="cls-26"><path class="cls-27" d="M487,110c3.86,0,3.87-6,0-6s-3.87,6,0,6Z"/></g><g class="cls-26"><path class="cls-27" d="M1257,500c3.86,0,3.87-6,0-6s-3.87,6,0,6Z"/></g><g class="cls-26"><path class="cls-27" d="M801,159.5c5.79,0,5.8-9,0-9s-5.8,9,0,9Z"/></g><g class="cls-26"><path class="cls-27" d="M1605,98.5a1.5,1.5,0,0,0,0-3,1.5,1.5,0,0,0,0,3Z"/></g><g class="cls-26"><path class="cls-27" d="M305,98.5a1.5,1.5,0,0,0,0-3,1.5,1.5,0,0,0,0,3Z"/></g><g class="cls-26"><path class="cls-27" d="M445,168.5a1.5,1.5,0,0,0,0-3,1.5,1.5,0,0,0,0,3Z"/></g><g class="cls-26"><path class="cls-27" d="M1123,74.5a1.5,1.5,0,0,0,0-3,1.5,1.5,0,0,0,0,3Z"/></g><g class="cls-26"><path class="cls-27" d="M1657,496.5a1.5,1.5,0,0,0,0-3,1.5,1.5,0,0,0,0,3Z"/></g><g class="cls-26"><path class="cls-27" d="M1781,240.5a1.5,1.5,0,0,0,0-3,1.5,1.5,0,0,0,0,3Z"/></g><g class="cls-26"><path class="cls-27" d="M1817,40.5a1.5,1.5,0,0,0,0-3,1.5,1.5,0,0,0,0,3Z"/></g><g class="cls-26"><path class="cls-27" d="M1751,128.5a1.5,1.5,0,0,0,0-3,1.5,1.5,0,0,0,0,3Z"/></g><g class="cls-26"><path class="cls-27" d="M505,354c3.86,0,3.87-6,0-6s-3.87,6,0,6Z"/></g><g class="cls-26"><path class="cls-27" d="M93,94c3.86,0,3.87-6,0-6s-3.87,6,0,6Z"/></g><g class="cls-26"><path class="cls-27" d="M1113,148c3.86,0,3.87-6,0-6s-3.87,6,0,6Z"/></g><g class="cls-26"><path class="cls-27" d="M1369,70c3.86,0,3.87-6,0-6s-3.87,6,0,6Z"/></g><g class="cls-26"><path class="cls-27" d="M1685,250c3.86,0,3.87-6,0-6s-3.87,6,0,6Z"/></g><g class="cls-26"><path class="cls-27" d="M743,64c3.86,0,3.87-6,0-6s-3.87,6,0,6Z"/></g><g class="cls-26"><path class="cls-27" d="M695,309.5c5.79,0,5.8-9,0-9s-5.8,9,0,9Z"/></g><g class="cls-26"><path class="cls-27" d="M955,91.5c5.79,0,5.8-9,0-9s-5.8,9,0,9Z"/></g><g class="cls-28"><path class="cls-27" d="M1044.46,211.9c1.19,0,3-1.8,1.08-1.8-1.19,0-3,1.8-1.08,1.8Z"/></g><g class="cls-28"><path class="cls-27" d="M1438.07,141.61c.64,0,3.28-1.22,1.86-1.22-.64,0-3.28,1.22-1.86,1.22Z"/></g><g class="cls-28"><path class="cls-27" d="M1556.47,295.93c1.23,0,3-1.86,1.06-1.86-1.23,0-3,1.86-1.06,1.86Z"/></g><g class="cls-28"><path class="cls-27" d="M730.88,142.08c1.66,0,2.21-2.16.24-2.16-1.66,0-2.21,2.16-.24,2.16Z"/></g><g class="cls-28"><path class="cls-27" d="M854.39,73.63c.84,0,3.14-1.26,1.22-1.26-.84,0-3.14,1.26-1.22,1.26Z"/></g><g class="cls-28"><path class="cls-27" d="M882.47,159.93c1.22,0,3-1.86,1.06-1.86-1.22,0-3,1.86-1.06,1.86Z"/></g><g class="cls-28"><path class="cls-27" d="M474.07,147.61c.63,0,3.28-1.22,1.86-1.22-.63,0-3.28,1.22-1.86,1.22Z"/></g><g class="cls-28"><path class="cls-27" d="M376.41,99.72c1,0,3.12-1.44,1.18-1.44-1,0-3.12,1.44-1.18,1.44Z"/></g><g class="cls-28"><path class="cls-27" d="M346.06,225.61c.64,0,3.29-1.22,1.88-1.22-.64,0-3.29,1.22-1.88,1.22Z"/></g><g class="cls-28"><path class="cls-27" d="M164.05,153.56c.59,0,3.27-1.12,1.9-1.12-.59,0-3.27,1.12-1.9,1.12Z"/></g><g class="cls-28"><path class="cls-27" d="M68.46,185.91c1.2,0,3-1.82,1.08-1.82-1.2,0-3,1.82-1.08,1.82Z"/></g><g class="cls-28"><path class="cls-27" d="M182.88,238.08c1.67,0,2.21-2.16.24-2.16-1.67,0-2.21,2.16-.24,2.16Z"/></g><g class="cls-28"><path class="cls-27" d="M1558.87,84.07c1.66,0,2.22-2.14.26-2.14-1.66,0-2.22,2.14-.26,2.14Z"/></g><g class="cls-28"><path class="cls-27" d="M1566.4,203.68c.91,0,3.13-1.36,1.2-1.36-.91,0-3.13,1.36-1.2,1.36Z"/></g><g class="cls-28"><path class="cls-27" d="M1432.42,105.76c1,0,3.1-1.52,1.16-1.52-1,0-3.1,1.52-1.16,1.52Z"/></g><g class="cls-28"><path class="cls-27" d="M1486.87,254c1.63,0,2.23-2.08.26-2.08-1.63,0-2.23,2.08-.26,2.08Z"/></g><g class="cls-28"><path class="cls-27" d="M1586.48,164c1.29,0,3-2,1-2-1.29,0-3,2-1,2Z"/></g><g class="cls-28"><path class="cls-27" d="M1208.06,141.61c.64,0,3.29-1.22,1.88-1.22-.64,0-3.29,1.22-1.88,1.22Z"/></g><g class="cls-28"><path class="cls-27" d="M1310.07,265.63c.66,0,3.29-1.26,1.86-1.26-.66,0-3.29,1.26-1.86,1.26Z"/></g><g class="cls-28"><path class="cls-27" d="M865.07,248.09c1.3,0,3-2,1-2-1.3,0-3,2-1,2Z"/></g><g class="cls-28"><path class="cls-27" d="M943,328.93c1.08,0,3.08-1.63,1.13-1.63-1.08,0-3.08,1.63-1.13,1.63Z"/></g><g class="cls-28"><path class="cls-27" d="M511.89,132.9c1.72,0,6.29-2.56,2.45-2.56-1.72,0-6.29,2.56-2.45,2.56Z"/></g><g class="cls-28"><path class="cls-27" d="M616.21,185.23c1.16,0,6.52-2.23,3.79-2.23-1.16,0-6.52,2.23-3.79,2.23Z"/></g><g class="cls-28"><path class="cls-27" d="M601.39,84.4c3.42,0,4.36-4.55.43-4.55-3.41,0-4.35,4.55-.43,4.55Z"/></g><g class="cls-28"><path class="cls-27" d="M888.39,232c1.83,0,6.26-2.73,2.41-2.73-1.83,0-6.27,2.73-2.41,2.73Z"/></g><g class="cls-28"><path class="cls-27" d="M1706,54c2.44,0,6-3.69,2.15-3.69-2.44,0-6.06,3.69-2.15,3.69Z"/></g><g class="cls-28"><path class="cls-27" d="M1809.34,135.94c1.77,0,6.27-2.64,2.42-2.64-1.77,0-6.27,2.64-2.42,2.64Z"/></g><g class="cls-28"><path class="cls-27" d="M1697,310.33c2.27,0,6.11-3.44,2.21-3.44-2.27,0-6.12,3.44-2.21,3.44Z"/></g><g class="cls-28"><path class="cls-27" d="M1685.69,440.33c1.28,0,6.57-2.45,3.73-2.45-1.28,0-6.57,2.45-3.73,2.45Z"/></g><g class="cls-28"><path class="cls-27" d="M1463,418.4c2.37,0,6.08-3.59,2.17-3.59-2.37,0-6.08,3.59-2.17,3.59Z"/></g><g class="cls-28"><path class="cls-27" d="M1301.7,248.31c1.24,0,6.56-2.39,3.75-2.39-1.25,0-6.56,2.39-3.75,2.39Z"/></g><g class="cls-28"><path class="cls-27" d="M1136.7,290.29c1.23,0,6.55-2.35,3.76-2.35-1.23,0-6.55,2.35-3.76,2.35Z"/></g><g class="cls-28"><path class="cls-27" d="M1134.41,350.58c2,0,6.22-2.94,2.35-2.94-2,0-6.23,2.94-2.35,2.94Z"/></g><g class="cls-28"><path class="cls-27" d="M994.32,396.2c3.3,0,4.47-4.19.53-4.19-3.29,0-4.46,4.19-.53,4.19Z"/></g><g class="cls-28"><path class="cls-27" d="M891.41,292c1.88,0,6.24-2.83,2.37-2.83-1.88,0-6.24,2.83-2.37,2.83Z"/></g><g class="cls-28"><path class="cls-27" d="M866.82,120.19c3.27,0,4.49-4.14.55-4.14-3.27,0-4.49,4.14-.55,4.14Z"/></g><g class="cls-28"><path class="cls-27" d="M561.56,264c2.53,0,6-3.83,2.1-3.83-2.53,0-6,3.83-2.1,3.83Z"/></g><g class="cls-28"><path class="cls-27" d="M592.38,346.84c3.39,0,4.38-4.46.46-4.46-3.39,0-4.38,4.46-.46,4.46Z"/></g><g class="cls-28"><path class="cls-27" d="M433.22,246.73c1.16,0,6.52-2.23,3.79-2.23-1.15,0-6.52,2.23-3.79,2.23Z"/></g><g class="cls-28"><path class="cls-27" d="M301.4,220.86c3.4,0,4.37-4.49.45-4.49-3.4,0-4.37,4.49-.45,4.49Z"/></g><g class="cls-28"><path class="cls-27" d="M254,148.27c2.19,0,6.15-3.3,2.25-3.3-2.19,0-6.15,3.3-2.25,3.3Z"/></g><g class="cls-28"><path class="cls-27" d="M273.56,319.5c2.51,0,6-3.78,2.13-3.78-2.51,0-6,3.78-2.13,3.78Z"/></g><g class="cls-28"><path class="cls-27" d="M152.06,217.46c2.43,0,6.05-3.69,2.14-3.69-2.43,0-6,3.69-2.14,3.69Z"/></g><g class="cls-28"><path class="cls-27" d="M454.62,62.62c3.86,0,3.86-6,0-6s-3.87,6,0,6Z"/></g><g class="cls-28"><path class="cls-27" d="M1524.06,65.62c3.86,0,3.87-6,0-6s-3.86,6,0,6Z"/></g><g class="cls-28"><path class="cls-27" d="M641.79,297.78c3.86,0,3.86-6,0-6s-3.87,6,0,6Z"/></g><g class="cls-28"><path class="cls-27" d="M806.8,291.78c3.86,0,3.87-6,0-6s-3.86,6,0,6Z"/></g><g class="cls-28"><path class="cls-27" d="M764.8,462.79c3.86,0,3.87-6,0-6s-3.87,6,0,6Z"/></g><g class="cls-28"><path class="cls-27" d="M1418.86,249.77c3.87,0,3.87-6,0-6s-3.86,6,0,6Z"/></g><g class="cls-28"><path class="cls-27" d="M1418.86,339.78c3.87,0,3.87-6,0-6s-3.86,6,0,6Z"/></g><g class="cls-28"><path class="cls-27" d="M227.75,411.79c3.86,0,3.86-6,0-6s-3.87,6,0,6Z"/></g><g class="cls-28"><path class="cls-27" d="M116.73,270.77c3.87,0,3.87-6,0-6s-3.86,6,0,6Z"/></g><g class="cls-28"><path class="cls-27" d="M1357,612c3.86,0,3.87-6,0-6s-3.87,6,0,6Z"/></g><g class="cls-28"><path class="cls-27" d="M1543,538c3.86,0,3.87-6,0-6s-3.87,6,0,6Z"/></g><g class="cls-28"><path class="cls-27" d="M809,504c3.86,0,3.87-6,0-6s-3.87,6,0,6Z"/></g><g class="cls-28"><path class="cls-27" d="M655,392c3.86,0,3.87-6,0-6s-3.87,6,0,6Z"/></g><g class="cls-28"><path class="cls-27" d="M961,342c3.86,0,3.87-6,0-6s-3.87,6,0,6Z"/></g><g class="cls-28"><path class="cls-27" d="M629,232c3.86,0,3.87-6,0-6s-3.87,6,0,6Z"/></g><g class="cls-28"><path class="cls-27" d="M249,480c3.86,0,3.87-6,0-6s-3.87,6,0,6Z"/></g><g class="cls-28"><path class="cls-27" d="M179,436c3.86,0,3.87-6,0-6s-3.87,6,0,6Z"/></g><g class="cls-28"><path class="cls-27" d="M55,284c3.86,0,3.87-6,0-6s-3.87,6,0,6Z"/></g><g class="cls-28"><path class="cls-27" d="M349,380c3.86,0,3.87-6,0-6s-3.87,6,0,6Z"/></g><g class="cls-28"><path class="cls-27" d="M25,478c3.86,0,3.87-6,0-6s-3.87,6,0,6Z"/></g><g class="cls-28"><path class="cls-27" d="M1831,200c3.86,0,3.87-6,0-6s-3.87,6,0,6Z"/></g><g class="cls-28"><path class="cls-27" d="M1871,370c3.86,0,3.87-6,0-6s-3.87,6,0,6Z"/></g><g class="cls-28"><path class="cls-27" d="M331,114.5a1.5,1.5,0,0,0,0-3,1.5,1.5,0,0,0,0,3Z"/></g><g class="cls-28"><path class="cls-27" d="M429,146.5a1.5,1.5,0,0,0,0-3,1.5,1.5,0,0,0,0,3Z"/></g><g class="cls-28"><path class="cls-27" d="M607,144.5a1.5,1.5,0,0,0,0-3,1.5,1.5,0,0,0,0,3Z"/></g><g class="cls-28"><path class="cls-27" d="M741,214.5a1.5,1.5,0,0,0,0-3,1.5,1.5,0,0,0,0,3Z"/></g><g class="cls-28"><path class="cls-27" d="M967,192.5a1.5,1.5,0,0,0,0-3,1.5,1.5,0,0,0,0,3Z"/></g><g class="cls-28"><path class="cls-27" d="M1093,192.5a1.5,1.5,0,0,0,0-3,1.5,1.5,0,0,0,0,3Z"/></g><g class="cls-28"><path class="cls-27" d="M1233,180.5a1.5,1.5,0,0,0,0-3,1.5,1.5,0,0,0,0,3Z"/></g><g class="cls-28"><path class="cls-27" d="M1313,52.5a1.5,1.5,0,0,0,0-3,1.5,1.5,0,0,0,0,3Z"/></g><g class="cls-28"><path class="cls-27" d="M1489,184.5a1.5,1.5,0,0,0,0-3,1.5,1.5,0,0,0,0,3Z"/></g><g class="cls-28"><path class="cls-27" d="M1593,166.5a1.5,1.5,0,0,0,0-3,1.5,1.5,0,0,0,0,3Z"/></g><g class="cls-28"><path class="cls-27" d="M1659,314.5a1.5,1.5,0,0,0,0-3,1.5,1.5,0,0,0,0,3Z"/></g><g class="cls-28"><path class="cls-27" d="M1659,212.5a1.5,1.5,0,0,0,0-3,1.5,1.5,0,0,0,0,3Z"/></g><g class="cls-28"><path class="cls-27" d="M1795,340.5a1.5,1.5,0,0,0,0-3,1.5,1.5,0,0,0,0,3Z"/></g><g class="cls-28"><path class="cls-27" d="M1047,302.5a1.5,1.5,0,0,0,0-3,1.5,1.5,0,0,0,0,3Z"/></g><g class="cls-28"><path class="cls-27" d="M901,244.5a1.5,1.5,0,0,0,0-3,1.5,1.5,0,0,0,0,3Z"/></g><g class="cls-28"><path class="cls-27" d="M539,182.5a1.5,1.5,0,0,0,0-3,1.5,1.5,0,0,0,0,3Z"/></g><g class="cls-28"><path class="cls-27" d="M441,306.5a1.5,1.5,0,0,0,0-3,1.5,1.5,0,0,0,0,3Z"/></g><g class="cls-28"><path class="cls-27" d="M271,210.5a1.5,1.5,0,0,0,0-3,1.5,1.5,0,0,0,0,3Z"/></g><g class="cls-28"><path class="cls-27" d="M147,40.5a1.5,1.5,0,0,0,0-3,1.5,1.5,0,0,0,0,3Z"/></g><g class="cls-28"><path class="cls-27" d="M1271,240.5a1.5,1.5,0,0,0,0-3,1.5,1.5,0,0,0,0,3Z"/></g><g class="cls-28"><path class="cls-27" d="M1201,104.5a1.5,1.5,0,0,0,0-3,1.5,1.5,0,0,0,0,3Z"/></g><g class="cls-28"><path class="cls-27" d="M1375,152.5a1.5,1.5,0,0,0,0-3,1.5,1.5,0,0,0,0,3Z"/></g><g class="cls-28"><path class="cls-27" d="M1573,150.5a1.5,1.5,0,0,0,0-3,1.5,1.5,0,0,0,0,3Z"/></g><g class="cls-28"><path class="cls-27" d="M1799,142.5a1.5,1.5,0,0,0,0-3,1.5,1.5,0,0,0,0,3Z"/></g><g class="cls-28"><path class="cls-27" d="M1873,78.5a1.5,1.5,0,0,0,0-3,1.5,1.5,0,0,0,0,3Z"/></g><g class="cls-28"><path class="cls-27" d="M1895,168.5a1.5,1.5,0,0,0,0-3,1.5,1.5,0,0,0,0,3Z"/></g></g></svg>
