<?xml version="1.0" encoding="utf-8"?>
<!-- Generator: Adobe Illustrator 22.0.1, SVG Export Plug-In . SVG Version: 6.00 Build 0)  -->
<svg version="1.1" id="Layer_1" xmlns="http://www.w3.org/2000/svg" xmlns:xlink="http://www.w3.org/1999/xlink" x="0px" y="0px"
	 viewBox="0 0 2030.4 771.1" style="enable-background:new 0 0 2030.4 771.1;" xml:space="preserve">
<style type="text/css">
	.st0{fill:url(#SVGID_1_);}
	.st1{fill:url(#SVGID_2_);}
	.st2{fill:#302A49;}
	.st3{opacity:0.63;}
	.st4{fill:none;stroke:#FFFFFF;stroke-miterlimit:10;}
	.st5{fill:#FFFFFF;}
	.st6{opacity:0.24;}
</style>
<linearGradient id="SVGID_1_" gradientUnits="userSpaceOnUse" x1="202.7514" y1="503.0762" x2="1292.882" y2="503.0762" gradientTransform="matrix(-1.000000e-15 0.7981 -1.8562 -4.000000e-15 1946.639 -200.9177)">
	<stop  offset="0" style="stop-color:#8647BE"/>
	<stop  offset="1" style="stop-color:#F8AEFF;stop-opacity:0"/>
</linearGradient>
<polygon class="st0" points="-3,830.9 -3,-39.1 2028.7,-39.1 2028.7,830.9 "/>
<linearGradient id="SVGID_2_" gradientUnits="userSpaceOnUse" x1="240.795" y1="508.3044" x2="1213.8027" y2="508.3044" gradientTransform="matrix(-1.000000e-15 0.7981 -1.8562 -4.000000e-15 1946.639 -200.9177)">
	<stop  offset="0" style="stop-color:#8647BE"/>
	<stop  offset="1" style="stop-color:#F8AED1;stop-opacity:0"/>
</linearGradient>
<polygon class="st1" points="-22.4,767.8 -22.4,-8.7 2028.7,-8.7 2028.7,767.8 "/>
<g>
	<path class="st2" d="M382.4,568c0.2-0.3,1.3,0.2,1.3,0.2s-0.3-1.7-1-2c-0.7-0.3-1.9,0-1.9,0v1.8C380.8,568,382.2,568.3,382.4,568z"
		/>
	<path class="st2" d="M358.2,560.7c-0.3,0.5-2.7,0-2.7,0c-0.8,0.3-1.3,2.4-1.3,2.4s0.3,0.3,1.3,0.3s3.2,0.4,3.2,0.4s0.3-1,0.8-1.6
		S358.5,560.2,358.2,560.7z"/>
	<polygon class="st2" points="155.5,494.9 157.2,495.7 157.2,494 155.5,493.4 	"/>
	<path class="st2" d="M382.8,569.6l-0.6,1.6l-3.5,0.9c0,0-0.8,2.2,0,2.3c0.8,0.1,2.6-0.4,2.6-0.4s-0.1-1.7,0.5-1.8
		c0.6-0.1,2.1-0.8,2.1-0.8l-0.3-1.7H382.8z"/>
	<path class="st2" d="M180.5,503.4l-1.9,2.1c0,0-0.5,1.5,0,2c0.5,0.5,4.3-0.9,5.5-1c1.2-0.1,0-3,0-3H180.5z"/>
	<path class="st2" d="M516.5,586c-0.8,0.2-1.7,0-1.7,0l-0.3-0.9l-2.2-1.1c0,0,0,0.3-1.3,1.1c-1.3,0.9-2.4,1.8-2.4,1.8s0.5,0.2,1,0.6
		c0.5,0.4,2.3,0.3,2.3,0.3l1.7-0.8c0,0,1.9,0.6,2,0.8c0.2,0.2,2.7,0.4,2.9,0C518.7,587.5,517.2,585.8,516.5,586z"/>
	<path class="st2" d="M511.7,582.1c0.4-0.1,1.2,0.5,1.9,0.8c0.7,0.3,1.4-0.1,1.6-0.4c0.2-0.3,1.6-0.6,2.3-0.7
		c0.7-0.1,1.1-0.9,1.1-0.9l-1.5-1.7h-1.6c0,0-1.2-1.1-1.3-1.3c-0.2-0.2-1.2,0-1.2,0l-0.7,1.5c0,0-1,1.1-1.5,1.1
		c-0.5-0.1-0.3,2.3-0.3,2.3S511.3,582.2,511.7,582.1z"/>
	<path class="st2" d="M589.9,604.7c0,0,0.7,0.3,1.3,0c0.6-0.3-0.6-3.4-0.6-3.4C590.3,602,589.9,604.7,589.9,604.7z"/>
	<path class="st2" d="M618.3,614.6c-0.2,0.2,0.1,0.1,0.6-0.1C618.7,614.5,618.5,614.5,618.3,614.6z"/>
	<path class="st2" d="M515.8,574.1C515.8,574.1,515.8,574.1,515.8,574.1C515.8,574.1,515.8,574.1,515.8,574.1z"/>
	<path class="st2" d="M193.3,454.7C193.3,454.7,193.3,454.7,193.3,454.7C193.4,454.7,193.4,454.7,193.3,454.7z"/>
	<path class="st2" d="M308.3,507.1C308.3,507.1,308.2,507.1,308.3,507.1C308.3,507.1,308.3,507.1,308.3,507.1z"/>
	<path class="st2" d="M207.8,445.5c0.1,0.1,0.1,0.1,0.1,0.1S207.9,445.6,207.8,445.5z"/>
	<path class="st2" d="M426.6,546.7c-0.3,0.5-0.3,0.9-0.3,0.9S426.5,547.3,426.6,546.7z"/>
	<path class="st2" d="M184.7,487.5c0,0.1,0.1,0,0.4-0.3C184.8,487.3,184.7,487.4,184.7,487.5z"/>
	<path class="st2" d="M659.2,626l-4.8,3.4c0,0-2.9,0.4-4-1.2c-1.1-1.6,6.3-6.5,7.2-7.2c0.8-0.8,1.6-2.7,1.6-2.7s-1.4,0.8-2,1.4
		c-0.6,0.7-9.5-0.1-10.3-0.4c-0.8-0.3-0.1-2.6,1.4-2.7c1.5-0.1,2.8-3.9,3.5-4.6c0.7-0.7,1.2-3,1.2-3l-2.5,0.3l-3.1-0.4
		c0,0-1.4-2.7-2-5.7c-0.6-2.9,0.8-2.8,0.8-2.8s0.9-1.3,1.2-1.8c0.2-0.5-0.7-2.1-0.7-2.1s-4.2,0.3-5.2-1c-0.9-1.3,3.2-4.7,3.9-5
		c0.7-0.3,1.3-2.2,1.3-2.2s-5.3-0.5-6.5-2.2s1.2-3.4,2.1-4.8c0,0-4.8-1.3-5.8-2.1c-0.9-0.8,3.3-2.6,3.3-2.6l-2.8-0.5l-2.9-3.3
		l-0.8-5h-1.4c0,0-0.5,8-1.3,8.4c-0.8,0.4-2.8,1.2-2.8,1.2l3.2,1.4c0,0,0.3,2.3-0.5,2.2c-0.8-0.1-3.6,0.3-3.6,0.3l3.9,2.2
		c0,0,0.7,2.3,0,3s-3.4-0.3-3.4-0.3l-2.5,0.5l1.4,1.7l3.3,1.6v1.7h-2.5l-3.5-0.1l0.8,1.3l2,1.7c0,0,2.3,1.6,2.9,2c0.6,0.4,0,3,0,3
		h-1.9l-3.1-0.5l-2.1,1.7l1.9-0.4l1.4,1.2c0,0,1.1,1.4,1.8,1.8c0.7,0.3-1.5,4-1.5,4l-2-0.3c0,0-3.1,0.3-3.4,0.4
		c-0.4,0.1-1.3,1.6-1.3,1.6l-1.6,3.7l1.4-1.4l2.3,0.1c0,0,3.3,0.9,3.1,1.4c-0.2,0.5,0,1.6,0,1.6l-2.7-0.7c0,0-1.7,0.8-2.7,1.1
		c0.4,0.2,0.8,0.7,0.8,0.7l1.2,1.4c0,0,1.4,1.4,2.8,2.1c1.4,0.7,0,1.8,0,1.8s-1.9,0.1-2.2,0.1c-0.4,0-1.5,1-2.9,1.3
		c-1.4,0.3-0.7,2.5-0.7,2.5l2.8,0.5c0,0-0.2,2-1.4,2.9c-1.2,0.9-1.2-1.7-1.2-1.7s-2.5-1-2.8-1.3s-0.6-6.9-0.6-6.9s-2.8,0.9-3.2,0
		c-0.4-0.9,1.2-2.3,1.2-2.3l2.6-1.7h-3.5l-0.1-4h1.9l-1.9-1.4l-2.1-1.2l-0.2-1.3l2.3-0.4c0,0-2.2-0.7-2.6-0.8s-0.8-0.4-1.1-0.9
		c-0.2-0.5,0.1-1.8,0.1-1.8h2.5l-2.6-1.8c0,0-3.5,0-4.6-0.3c-1.1-0.3-1.6-2.7-1.6-2.7l2.5-2l2.9,0.4c0,0-1.9-1.6-2.5-2.3
		c-0.6-0.8-1.3-0.1-1.3-0.1l-3.4-0.4l-0.6-3.3h4l-1.2-1.5c0,0-3.4-1.3-3.9-1.5c-0.5-0.1-0.8-1.7-0.8-1.7l-1.5-5.5l-1.9,1
		c0,0,0.5,4.1,0.9,4.8s-1.4,2.9-1.4,2.9l-4.3,0.9h2.7l-0.8,2.3c0,0,1.6-1.6,2-1.6c0.4,0,1.2,0.9,1.2,0.9s-1.1,2.3-2.8,2.3
		c-1.8,0-0.6,2.2-0.5,2s1.2-0.1,1.2-0.1l2.1,2.1l-3.6,0.9l-3.2,0.3l2.1-1.3l-2.2-0.7c0,0,1.5-1.2,0.6-1.2s-1.2-2-1.2-2l1.9-0.5
		l-1.9-0.8c0,0-1.3-3.3-1.3-2.1s-2.5,2.5-2.5,2.5s1.9,0.3,1.5,0.7c-0.4,0.4-1.6,2-1.6,2s2,0,1.5,0.7c-0.5,0.7-0.9,1.8-0.9,1.8
		c-0.9,0.5-1.4,0.7-1.4,0.7l1.4,0.9l-3.3,2.7l3.3-0.8l-1.8,1.7l1.8,0.8l-1.8,1l1.8,0.7l-2.6,1.8c0,0,1.3-0.5,1.8-0.1s0,2.9-1.1,2.3
		c-1.1-0.5-1.9-3.1-1.9-3.1l-1.5,2.5l-2,1.7l-3.8-0.9c0,0,2.5-2.5,2.5-4.4s5.2-4.7,4.8-5.3c-0.4-0.5-7.7,0.1-9,0
		c-1.3-0.1-1.1-2.4-1-2.7s1.4-1.7,1.4-2.5s2.3-2.3,4-2.9c1.6-0.6,2-0.5,2-0.5l-1-1.5h-3c0,0-4.3-0.9-4.5-2.7
		c-0.2-1.8-0.8-4.5-0.7-5.2c0.1-0.7,0.9-1.7,0.9-1.7l1.7,0.7c0,0-0.1-2.8-1.8-3.8c-1.7-1-4.7,0.2-5,0.2c-0.3,0,0.1-3.1,0.1-3.1
		s1.9-2.3,3.4-2.8s1.6-2.2,1.6-2.2l-3,0.2c0,0-2.3-1.2-2.8-1.6c-0.5-0.3-0.2-2.5-0.4-3c-0.2-0.4,0-1.8,0.9-1.7
		c0.9,0.1,2.3-0.3,2.3-0.3l-1.6-1.7l-1.4,0.3l-3.1-0.6l-0.9-3l3.2-0.4c0,0-1.6-2.9-3.4-3.9c-1.7-1-2-0.8-2-0.8l1-4.1l-1.6,1.6
		l-0.6-5.2l-0.9,5.7l-2.2-0.8c0,0,1.9,2.5,2.2,3c0.3,0.5-1.8,3.3-1.8,3.3s-1.6,1.2-1.6,1.9s-1,1.9-1,1.9l-3.5,3l3.7-1.5
		c0,0-2.1,1.9-0.4,1.7s-0.5,1.8-0.5,1.8l-2,1l0.6,1.6L545,570l3.1-0.4l2.1,0.5l1.1,2.1l-1.6,0.1c0,0-2-0.2-2.7,0.3s-2.3,1-2.3,1
		l2.9-0.1l1.3,1.3l3,2.1l0.3,1.9l-2.3,0.8l-2.7,0.1l-2,1.3c0,0,1,1.1,0.2,1.5c-0.9,0.3-1.2,1.9-1.2,2.3c0,0.3,0.5,2.9,0.5,2.9
		s-2.5-0.1-3.5-1.7s4.2-7.1,4.2-7.1l1.5-2.2c0,0-4.2-0.1-5.5-0.3c-1.3-0.3-1.6-2.4-1.3-2.4c0.2,0,0.3-5.1,0-5.7
		c-0.3-0.5-0.4-2.6-0.4-2.6l3,0.5l-1.6-1.5l2-0.4c0,0-1.6-0.6-2.9-0.4c-1.3,0.2-4.1,0.6-5.3,0c-1.2-0.6,0.1-1.6,0.1-1.6
		s1.7-1.9,2.6-1.9c0.9,0,0.5-1.5,0.5-1.5l1.3-0.9l1.4-1.6l-1.2-0.9c0,0-5.6-0.8-5.8-1c-0.2-0.3-0.5-1.3-0.5-1.3l1.6-0.5
		c0,0-1.5-1.8-1-2.3c0.5-0.5,3.5,0.2,3.5,0.2l-0.9-1.8l-4.9-0.5c0,0-1.3-1.8-1-2.5c0.2-0.7,2.9-0.5,2.9-0.5l-0.7-1.6l-3.2-1.3
		c0,0-1.6-1.9-1.8-2.4c-0.2-0.5-0.5-2.6-0.6-3.3s-1.5-2.2-1.5-2.2l-0.5,4.8l0.9,3.2c0,0-1.5,0.8-3,1.4c-1.5,0.6-1.3,1.8-1.3,1.8
		s3.5,0.6,3.8,1.1c0.3,0.5-0.5,1.7-0.5,1.7s-1.7,0.4-2.8,0.6c-1.1,0.2-1,1.7-1,1.7l2-0.1l1,1c0,0,1.6,1.5,1.7,2s-4.8-0.2-5.9-0.3
		c-1.2-0.1-1.1,2.1-1.1,2.1s1.9-0.2,1.9,0.2c0,0.3,1.6,1.6,1.6,1.6l1.1,0.8c0,0,0.6,1,0,1.7s-3.1-0.3-4-0.5
		c-0.9-0.2-2.3,1.4-1.6,1.3c0.8-0.1,1.9,1.2,1.9,1.2s0.6,1.8,2.6,2.2c2,0.3,0.7,2.1,0.7,2.1c0.2,1.1-1.3,0.7-1.3,0.7l-2.4,0.1
		c0,0-2.3,1.4-0.7,1.5c1.6,0.1,0,1.5,0,1.5v1.8l-1.9,0.6c0,0-1,1.7-1.2,1.9c0.2-0.3,0.5-0.1,1.1-0.2c0.5-0.1,1.5,1.5,1.5,1.5
		s-2.3,0-2.6,0c-0.3,0-1.6,1.3-1.6,1.3l-0.9-0.5l-1.2-1.6c0,0-0.5-2.4-0.9-2.4c-0.4,0-1.2,0.7-1.5,0.7c-0.2,0-1.3,0.4-1.8-1
		c-0.5-1.4,0.5-0.9,0.8-1.3c0.3-0.4,0.9,0.3,1.2,0.3c0.3,0.1,1.5-1.8,1.9-1.8s0-1,0-1l-1,0.7l-1.8-0.7c0,0-1.8,0-2.8-0.1
		s-0.4-1.6-0.4-1.6l0.6-0.8l1.9,0.8l-0.4-1.2l-1.1-0.9l0.4-1l1.8,0.5l-0.9-1.2l-1.3-0.8l-1.8-0.2l-0.7-1.5l-0.2-1.9l2.2,0.5l-0.4-2
		c0,0-1.3-0.6-1.6-0.7c-0.3-0.1-1.8-0.1-1.8-0.1s-0.1-1.4,0-1.6c0.1-0.2,1.4,0.2,1.4,0.2l-0.6-1.2l1.1-0.3c0,0,0.9,0,0.9-0.3
		s-0.8-0.7-1.1-0.8c-0.3-0.1-2.7-0.1-2.7-0.1s-0.5-2.3-0.2-2.7c0.2-0.5,1.9,0.8,1.9,0.8s-0.1-0.7-0.5-1.3s-2.5-0.9-2.5-0.9l-0.2-2.1
		l1.6-0.3c0,0-3.1-1.2-2.9-1.4s0.7-2.2,0.7-2.2l-1.5,1.8c0,0,0.5-4.1,0-4.1s-0.8,4.2-0.8,4.2s-2-0.1-1.1,0.3c0.9,0.4,0,1.7-0.3,1.8
		c-0.3,0.1-1.1,1.5-1.1,1.5l2.3-0.2c0,0,0.4,1.2-0.8,1.2c-1.1,0-1.6,1.2-1.6,1.2h2.3c0,0-0.1,1.2-1,1.1c-0.9-0.1-2.9,2.2-2.9,2.2
		s2.6-0.8,2.8-0.8s-0.4,1.5-1.1,1.4c-0.8-0.1-1.5,2.4-1.5,2.4l1.7-0.5c0,0,2.1,1.6,0,1.6c-2.1,0.1-2.4,2.4-2.4,2.4s2.2,0.1,2.1,1.7
		c-0.1,1.6-1.2,0.2-2.6,0.3c-1.3,0.1-3.1,2-3.1,2s3.3,0.3,2.1,0.6c-1.2,0.3-1.5,1.6-1.5,1.6s0.8-0.5,1.2-0.7s1.2,0.4,0.6,0.6
		c-0.6,0.2-0.6,2-0.5,1.8c0.1-0.2,2.4-1,2.4-1v1.2c0,0-1.2,0.8-2.3,1s-1,2.3-1,2.3s1.6-0.6,1.9-0.1c0.3,0.5-0.3,1.4-0.3,1.4
		s-1.1,0.7-1.9,0.7s-1.2,0.9-1.5,1.8c-0.4,0.9-1.6-0.5-1.9-0.7c-0.3-0.2,0.4-1.4,1.1-2.4c0.8-1,1.2-3.1,1.2-3.1l-2.6,0.5
		c0,0-0.1-1.8-0.1-3.3c0.1-1.5-0.7-2.3-0.7-2.3s-1.6,0.1-2.1-1s0.3-1.4,0.3-1.4l1.2-1.1c0,0-1.8-0.5-0.8-0.7c1-0.2,2.6,0.7,2.6,0.7
		s0.1-0.7-0.3-1.2c-0.4-0.5-3.3-0.7-3.3-0.7s-1.3-2.1,0.1-2.1c1.5,0,2-0.1,2-0.1l-1.2-0.8l-1.7-0.5l-1.7-1.7l2.4-0.5l-3.3-2.2
		l-0.9-2.7l-0.6,3.6l-1.7,2l1.7-0.2l-0.5,2l-2,0.8c0,0,1.5,0.8,0.9,1.2c-0.6,0.4-2.1,1.5-2.1,1.5l2.7-0.5l-1.8,1.6
		c0,0,1.6-0.5,1.5,0.1s-3.1,2.1-3.1,2.1l2.1-0.7c0,0,1.8,2.1,1.3,2.5c-0.5,0.5-2.6-1.2-2.6-1.2l1.8,1.9l-1.5,0.9l1.4,0.2l-1,1.1
		c0,0,1.4-0.2,1.3,0.9c-0.1,1.1-1.3,0.5-1.9,0.5s-1,1.5-1,1.5s0.8-0.5,1.2-0.7s0.2,3.2-0.2,3.1c-0.4-0.1-1.2,1.3-1.2,1.3l1.8-0.1
		v3.1l-3.2-1.1c0,0-1.3-0.1-1.5-0.5c-0.2-0.3,2.2-1.1,2.2-1.1l0.4-1c0,0-0.5-1-0.8-2c-0.4-0.9,1.2-1.8,0.9-2.1c-0.3-0.3-0.5-2-0.5-2
		l0.9-1.4c0,0-1-2.1-2-2.1c-1,0-1.6,0.3-3.1,0.4c-1.4,0.1-0.5-2.2-0.5-2.2l2.8-1.3c0,0-1.2-2.4-0.9-2.3c0.2,0.2,1.6-0.8,1.6-0.8
		s-2.3-1.9-3.1-3.8c-0.7-1.9-0.7-1.1-0.7-1.1l-2-0.5l-0.3-1.3l0.3-1c0,0-0.1-2.6-1.3-3.4c-1.2-0.8,1.3-6.4,0.8-7.3
		c-0.5-1-3.9-0.3-3.9-0.3s-0.5-2,0.7-2.1c1.2-0.1,0-3.1,0-3.1s-2.2-0.8-3.3-1.2c-1.2-0.4-0.5-2.1-0.1-2.9s3.9-0.8,3.4-1.7
		c-0.5-0.9-4.2-0.2-4.2-0.2s-1.3-1.5,0.5-2.3c1.9-0.8,3.7-0.3,3.7-0.3l-0.7-1.6l-4.3-0.2c0,0-1.6-1.2-0.9-1.9c0.7-0.7,2.8-1,2.8-1
		l-2.8-1.7c0,0-0.4-2.2,0.9-2c1.3,0.2,3.3,0.9,3.2-0.3c-0.1-1.1-3.6-1.9-4.5-1.8c-0.9,0.1-0.4-1.7-0.1-2c0.2-0.3,0.2-4.8,0-5.6
		c-0.2-0.8-1.8-0.6-1.8-0.6l-1.3,6.4l-3,0.1c0,0,1.7,0.7,1.2,1s-2.2,2.8-2.2,2.8s2.8-1.7,3.4,0.7c0.6,2.3-1,2.3-1,2.3
		s-1.8-1.6-2.5-1.4s-2.6,3-1.2,2.2c1.4-0.9,1.8,1.4,1.8,1.4s0.9,1.7,0.9,2.4s-2.7,0.3-4.8,0.6s-1.7,2.3-1.7,2.3l3.6,0.6
		c0,0,1.3,1.1,1.8,2.3c0.5,1.1-2.3,0.5-2.3,0.5s-2,0-2.7-0.1c-0.7-0.1-1.2,0.5-1.2,0.5l0.5,2.3c0,0,1.1,0.3,2.3,2.4
		c1.2,2.1-0.7,2.9-1,3.6c-0.3,0.7,0,1.4,0,1.4s-0.8,0.7-1.8,0.5c-1-0.2-0.9-2.8-0.9-2.8s-3-3-1.5-2.8c1.5,0.2,2-0.8,2-0.8
		s-4.5-2-3.1-2s2.7,0.5,2.7,0s-2-1.7-2-1.7s-2.2-2.3-1.1-1.9c1.1,0.4,2.6-0.1,2.6-0.1l-1.9-1c0,0-2.4-1.8-1.6-1.5
		c0.8,0.3,1.6-1.1,1.6-1.1s-1.5-0.8-2.1-0.8s-1.5-1.2-0.7-1s0.7-1.5,0.7-1.5l-1.6-3.4l-2.4,5c0,0,1.4-1.1,1.8-1
		c0.3,0.1-0.2,1.5-0.8,1.7c-0.6,0.2-1.2,2.4-1.2,2.4s1.3-0.7,1.7-0.2c0.3,0.5,0.9,1-0.9,1s-2.3,1.7-2.3,1.7s2.7-0.4,3-0.3
		c0.3,0.1,0.2,1.3-0.7,1.3c-0.9,0-2.7,1.7-2.7,1.7s2.9-0.4,2.7,0s-0.6,0.8-0.6,0.8s-1,0.9-1.9,1.3c-0.9,0.4,0.2,0.9,0.2,0.9
		s2.3-0.3,2.2-0.3s0.4,1.5,0,2.1s-2.2-0.3-2.2-0.3l-0.5,1l0.9,1.4c0,0,1.6,1,1.8,2.6s-7.2,0.4-7.2,0.4s3.6,1.9,2.3,2.2
		c-0.9,0.2-1.6,2.2-2,3.5c0.2-0.4,0.5-0.8,1.2-1c1.4-0.6,3,1.2,2.7,2c-0.2,0.8-3,1-3,1s2.2,1.2,1.3,2.4c-0.9,1.2-5.6-1.5-5.6-1.5
		l3.8,3.4h-2c0,0,1.8,0.9,2.3,1.5c0.5,0.6-0.3,1.3-1,1.7c-0.7,0.4-3.1,0.3-3.1,0.3l3.1,1.7c0,0,0.3,3-1.8,2.3
		c-2.1-0.7-0.6-2.9-0.6-2.9s-1.6-0.6-2-1c-0.4-0.3-0.5-1.2,0.4-1.7c0.9-0.4,2.8,0.1,2.8,0.1l-1.4-1.2c0,0-3.1-0.7-3.2-1.2
		c-0.1-0.5,4-0.9,4-0.9s-3.2-0.5-4.6-2c-1.4-1.5-0.9-3.7-0.9-3.7l2.1,0.2l-2.3-2l3.8,0.5l-3.4-1.8l-0.1-3l0.5-4.9l-3.1,4.8l-1.4,0.1
		l0.8,1c0,0,0.1,2.2,0,3c-0.1,0.8-2.8,1.2-2.8,1.2l2,0.3c0,0,0.2,2.3,0,2.6s-2.3,0.3-2.3,0.3l-0.5,1.4l2.2,1.5c0,0-0.9,0.7-1.1,1.8
		c-0.2,1.1-1.7,0-1.7,0l-0.2-1.5l0.3-2.8l-1.1-0.7c0,0-0.3-1.7-0.2-2.2c0.2-0.4,3.4,0.3,3.4,0.3l-3.8-1.4l-1.2-1.3
		c0,0,2.3-0.1,1.9-0.7c-0.4-0.6-2.2-1.1-3.1-1.4c-0.9-0.3,0.4-3,0-3.5c-0.4-0.5-1.2,0.2-1.2,0.2s0.1,3.5,0,3.5
		c-0.1,0-2.5,1.8-2.5,1.8s2.3-0.7,2.5,0.3c0.2,1-0.7,0.9-0.7,0.9l-1.6,1.3c0,0,1.7,0,1.6,0.5c-0.2,0.5-0.2,1.4-0.6,1.5
		c-0.5,0.1-1.7,1.5-1.7,1.5s2.3,0,2.3,0.9s-1.2,0.3-1.6,0.3c-0.4,0-1.5,2.1-1.5,2.1l1.6-0.8c0,0,0.9,1.5,0.8,1.9
		c-0.2,0.4-1.8,1.1-1.3,1.6s-0.1,2.6-0.6,2.6c-0.5,0-2.7,3.2-2.7,3.2h2.1l-2.6,2.5c0,0,2.3-0.8,2.5-0.5c0.2,0.3-0.2,1.8-1.1,2
		c-0.9,0.2-3,2.9-3,2.9s1.6-0.9,2.3-1c0.7-0.1-0.5,2.5-0.5,2.5h-2.3l-0.6,1c0,0-0.5,0-2.1,0s1.6-2.4,1.6-2.4s2.6-2.2,0-2.1
		c-2.6,0.1-1.8-2.1-1.7-2.2c0.1-0.2,0-4,0-4l-1.8-0.6c0,0-0.8-1.5-0.9-2.3c-0.2-0.9,1.8-1.1,1.8-1.1s-1.6-0.9-1.9-1.2
		c-0.3-0.3,0.2-1.9,0-2.8c-0.2-0.9-1.8-0.7-2-0.8c-0.2-0.1,0.2-1,0.9-1.5c0.7-0.4,0-1,0-1s-1.9-0.9-2.1-1.1s0-2.5,0-2.5
		s-0.9-1.8-0.8,0.5c0.1,2.3-0.5,2.6-1.1,2.6c-0.6,0-1,1.6-1,1.6s1.3-0.3,1,0.5c-0.2,0.8-0.6,0.9-0.6,0.9s-1.1,0.8,0.3,1l-0.9,1.7
		l-0.9,0.2v1l1.5,1.1c0,0-0.8,1-1.3,0.8c-0.5-0.2-2.1,2.1-2.1,2.1s2.2-0.6,2.7-0.4c0.5,0.2,0.6,2,0.6,2s-0.8,2-0.2,2.8
		c0.6,0.8-0.6,2.3-1.8,2.6c-1.2,0.3-2-2.5-2.4-4s-0.9-3-1.2-3.2c-0.4-0.2-1.7,0.9-1.7,0.9h-1.6c0,0-0.6-1.8-0.6-2.8s4.3-2,3.9-2.4
		c-0.4-0.4-4.7,0.9-5.4,0.6c-0.7-0.3,0-1.7-0.2-2.3c-0.2-0.6,2.9-3.9,2.9-3.9s-2.5,0.6-3.3,0.3c-0.8-0.3-0.5-2.5-0.1-3
		c0.4-0.4,0.5-3.4,0.5-3.4s-2.4,0.2-2.7,0.1c-0.2-0.1-0.8-1.9-0.6-2.3c0.2-0.4,3.3,0.9,3.3,0.9s-0.4-1.1-2.1-1.9
		c-1.7-0.8-1.4-1.4-1.4-1.4s-1.6-1.4-1.8-1.9s2.5-0.9,2.5-0.9s-2.5-1-2.1-1.3c0.4-0.3,0.9-2.2,0.5-2.3c-0.4-0.1-1.6-0.6-1.6-1
		c-0.1-0.4-1.2-4.4-1.2-4.4l-1,2.3l-0.4,3.2c0,0-0.9,1.7,0.2,1.6c1.2-0.2,0.1,1.4,0,1.8c-0.1,0.4-2.3,1.1-0.9,1.5
		c1.3,0.3-0.6,1.5-0.9,2.3s-2.3,2.3-2.3,2.3s1.3-0.3,1.6,0.1c0.3,0.3-0.2,1.7-0.2,1.7l-1.9,1.2c0,0,2.3-0.2,1.8-0.1
		c-0.5,0.1-0.9,2-0.5,1.7s1.4,0.7,1.4,2.3c0,1.7-2.4,0-3.5,0.3s-0.5,2-0.1,1.5s2.5,0.4,1.6,0.8c-0.9,0.3-1.2,2.9-1.2,2.9
		s1.8-1.5,1.9-0.9s-0.9,2.3-2.2,2.4c-1.3,0.1-0.5,2.3-0.9,2.5c-0.4,0.2-2.7,0.6-3.3-1c-0.5-1.6,3.3-3.7,3.3-3.7s-2.5-1.6-1.8-1.9
		c0.7-0.3,0-3.8,0-3.8s-2.9,2.3-4,1.2c-1.1-1,2.9-4.7,2.9-4.7s-4.3,1-5,0.9s-0.5-2.3,0.5-3.1s2.2-3.6,2.2-3.6s-2.6,0-3.9-3
		s1.9-3,1.9-3s-4.1-0.3-4.2-0.7c-0.1-0.4,2.5-1.2,2.5-1.2l-1.7-2.1l-1.5-1.5c0,0-2.7-2.2-1.4-1.9c1.3,0.3,1.8-1.1,1.2-0.8
		c-0.6,0.3-1.6-1.7-1.6-1.7l-0.8-1.8l1.6-0.3c0,0-1.5-1.2-2.1-1.7c-0.6-0.5,0-2.8,0-2.8s-0.5,0-1.2,2.3c-0.3,1.3-0.8,2.1-1,2.4
		c0.4-0.1,1,1.5,1,1.5l-1.6,1l1.3,0.9l-2,1.4c0,0,2.3-0.3,2.3-0.1c-0.1,0.3-0.8,1.1-1.5,1.4s-1.9,1.6-1.9,1.6l1.6-0.2
		c0,0,0.5,2.4,0,2.9s-4.2-0.1-4.9-0.5c-0.6-0.4-0.1-2.5,2.4-3.6c2.5-1,1.4-7.5,1.4-7.5s-4.3,0-5.2-0.6c-0.9-0.6,2.1-8.9,2.1-9.2
		c0-0.3-1.6-2.3-1.6-2.3s-4.8,0.3-5.2-0.5c-0.4-0.8,2-1.9,2.2-2.3c0.2-0.3,1-2.7,2.9-3.6c1.9-0.9,0-1.3,0-1.3s-0.7-0.2-2.4-0.3
		s-2.6-0.1-3.2-0.4c-0.6-0.3,0,0,0-1.9s0.9-1.8,1.1-2.3c0.2-0.4,1.9-1.4,1.4-1.8c-0.5-0.4-2.5,0.6-3.8,0.4c-1.3-0.2-1.3-0.8-2.1-2.1
		c-0.8-1.3-0.5-2.7,0.4-2.7c0.9,0,2.1-1.4,2.1-1.4s-0.9-1.2-2.5-1.6c-1.6-0.3-1.6-1.4-1.6-1.4l-0.5-1.9c0,0-1.8-3.8-2.2-4.7
		c-0.4-0.9-1.6-0.2-1.6-0.2l0.5,5.2c0,0,0.3,2.3,0,3.4c-0.3,1-3.5,1-4.1,1c-0.6,0-1.8,2.3-1.8,2.3l2.4-0.2c0,0,1.6,0.7,1.5,1.8
		c-0.2,1.1-1.3,1.2-1.8,1.2c-0.5,0-2.2,2.4-2.2,2.4s1.1-0.4,1.4-0.5c0.4-0.1,2.8,0.6,3.3,1.4c0.5,0.8,1.3,1.8,1.3,1.8s-5,0.1-6-0.1
		s-2.4,2.5-2.4,2.5s1.5-0.4,2-0.5c0.5-0.1,1.9,0.1,3.8,1.5c1.9,1.4,0.4,2.2,0.4,2.2l-1.1,0.7c0,0-2.3-0.2-3.2-0.5
		c-0.8-0.3-2.1-1.2-2.1-1.2l0.9,1.5c0,0,1.3,2,1.6,2.4c0.3,0.5,2.9,1.9,2.9,1.9s0.2,0.8,0.4,1.6c0.2,0.8-3.3,0.5-3.3,0.5
		s-0.7,1-1.2,1.8c-0.5,0.8,0.5,2,0.7,2.5c0.2,0.5,1.8,0,1.8,0s0.5,2.9-1.1,3.8s-2.1-1.2-2.1-1.2v-4.2H313c0,0-0.4-1.5-0.4-2.4
		c0-0.9,1.6-0.8,1.6-0.8s-1.6-0.6-2.3-0.9c-0.7-0.3-0.9-1.3-0.9-1.3l1.8-1.1c0,0-2.5-0.4-2.1-1s-1.4-3.8-1.4-3.8l-0.9,4.8l-1.7,1.3
		c0,0,1.3,0.6,1.6,0.7c0,0,0,0,0.1,0c0,0,0,0-0.1,0c-0.4,0.1-2.3,1.8-2.3,1.8l2.3-0.6c0,0,0.1,1.7-0.8,1.3c-1-0.4-2.3,0.4-2.3,0.4
		l0.8,1.5l1.5,1.6l-3,0.9c0,0,2.7,0.3,2.2,0.3s-2,2.1-2,2.1s2.3-0.9,2.7-0.5c0.4,0.4-0.4,1.6-0.6,1.3c-0.2-0.3-1.8,1.7-1.8,1.7
		s1.9,1.4,1.8,2.1c-0.1,0.7-2.2,0.1-3.3,0.4c-1.1,0.3-0.5,1.4-0.5,1.4l2,0.9l-3.3,2.2l3.1-0.4c0,0,0.5,1.8,0,2.7s-3.9,0.3-3.9,0.3
		l2.6,2.3c0,0-1.6,0-2.6,0s-1.4-1.7-1.6-2.2c-0.2-0.5-0.2-3.4-0.2-3.4s1.8-5.4,1.9-6.1c0.1-0.8-1.8-1.3-1.8-1.3s-3.3-0.1-3.7-1
		c-0.4-0.9,1.5-2.3,1.5-2.3s2-1.4,2.1-2c0.1-0.5,0.1-1.6-1.6-1.8s-4-0.7-4-0.7l0.2-2.9l1.4-1.3v-1.4c0,0-1.3,0-3.1,0
		s-1.6-1.6-1.6-1.6l0.1-1.6l1.2-1.3c0,0,1.5-0.5,2.3-1.2c0.8-0.7,0-2,0-2l-2,1.7c0,0-2.2-1.2-3.2-1.3c-0.9-0.1-1.8-2.1-1.8-2.1v-3.9
		c0,0-1.6-1.8-2.1-1.6c-0.5,0.3,0,7.6,0,7.6s-1.9,0.7-3.4,0.5s-1.6,3.1-1.5,2.7c0.1-0.4,3.8-0.1,4.2,0.3c0.4,0.4-1.2,1.8-1.2,1.8
		s-1.9,1.2-2.5,1.8s-0.6,2.1-0.6,2.1l2.3-1.1c0,0,1.6,0.3,1.9,2.1c0.2,1.8-0.5,1.5-0.5,1.5s-2.7,0.4-3.3,0.1
		c-0.6-0.3-2.3,0.7-2.3,0.7s2,0.9,2.3,0.9c0.4,0,1.5,0.9,1.5,0.9s0.8,1.1,0.8,2.8s-2.8,0.9-3.1,1.7s-0.7,2.3-0.7,2.3l-1.8-0.9
		l1.1-1.7c0,0,1.1-2.7,0.6-4.2c-0.5-1.5-2.3-0.7-2.3-0.7l0.7-3.3l-1.5-1.2l-1.2-1.3l1.2-1.7l-1.2-1.8l-2-0.3c0,0-0.8-1-0.1-1.2
		s0.9-2.1,0.9-2.1l-1.4-0.5l-0.8-1.2l2.2-1.3l-2.7-0.8v-1.7l-1.2-2.6v4l-1.4,1.4v2.1l-1.1,1.2l1.1,1.2l-1.3,1l1.3,0.8l-1.3,1
		l-2.1,2.3h1.4l1.4-0.8v2.2l-1.1-0.1c0,0-1.8,1.2-0.8,1.2c0.9,0,0.8,2.2,0.8,2.2c-0.2,0.4-2.1,1.2-2.5,1c-0.4-0.1-3.3-0.9-4.5-2.5
		c-1.2-1.6,4.1-4.2,5.2-5c1.1-0.8,0-4.1,0-4.1s-2.9,0.7-4.7,0.5s-0.6-3-0.6-3l-0.5-3.4c0,0,1.2-4.3,1.1-5.5
		c-0.1-1.2-5.4-2.2-5.6-2.5c-0.2-0.3,1.4-3,3.4-3.8c2-0.8,0.8-2.7,0.8-2.7s-4.5,0.1-5.5,0s0.1-3.5,0.1-3.5s1.3-1.6,1.5-2
		s0-2.2,0-2.2l-3.2,0.7l-2.2-1.3l2.2-2v-3.4l-3.3-1.4l-1.8-3.5c0,0-0.9-4.2-1.6-4.2c-0.7,0,0,6,0,6s-0.3,2.2,0,3.3
		c0.2,1-2.8,0.5-3.6,0.5c-0.8,0-1.1,2.5-1.1,2.5s2.6-0.5,3.9,0.4s-0.8,1.8-1.8,2.1c-0.9,0.3-3.2,2-3.2,2s2.5,0,2.7-0.5
		c0.2-0.5,2.9,3.3,3.1,3.8c0.1,0.5-3.5,0.3-5.3,0.1s-2.6,2.5-2.6,2.5s1.8-0.3,3.6-0.4s2,3.5,0,3.8s-4.8-1.2-4.8-1.2l1.1,1.7l2.9,3.3
		l2.6,3.3c0,0-3.1,0.4-4.5-0.1c-1.4-0.5-3.1,3-2.3,2.5s2.9,1.3,4,3.1c1.1,1.8-0.1,2.3-1.5,3.4c-1.4,1-3.9-0.5-3.9-0.5
		s-1.8,0.8-2.3,1.3c-0.6,0.5,0.2,2.7,0.7,2.3c0.5-0.4,4.8,0.5,4.9,1.4c0.1,0.9-2.3,1.4-2.3,1.4l-3.6-0.6l-0.8-1.9l-0.2-4.3l1.1-5.6
		l-1.1,3l-1.6,1.2l-0.2,3.5c0,0,0.4,2.3,0,2.5s-1.7-0.7-1.7-0.7s-0.5-2.6-0.2-3.5s0-1.8,0-1.8s-0.9-0.8-2.3,0
		c-1.4,0.8-1.8,2.9-1.8,2.9s-2.8,0.7-3.3,0.7c-0.5,0-1.1-1.6-1.1-1.6s2.5-3,2.1-4.3c-0.4-1.3,4.2-2.9,4.2-2.9l0.6-2.5
		c0,0-10.6,0.3-11.2,0.2c-0.6-0.1,1.3-2.3,1.3-2.3s1.6-1.7,2.1-2.2c0.5-0.4,0.9-2.8,1.8-3.6c0.9-0.8,2.1-0.2,2.1-0.2l-2.1-2.2
		c0,0-3.4-1.2-5.3-1.4c-2-0.2-0.9-3.7-1-4.8c-0.1-1.1,0.6-2.3,0.6-2.3l1.6-4.4l-1.5-0.3l-3,0.4c0,0-2.5-0.9-2.6-1.4
		c-0.1-0.5,1.9-1,2-1.7c0.2-0.8,2.7-2.3,2.7-2.3l0.5-2.8l-4.1,0.4c0,0-1.9-1-2.1-1.7c-0.2-0.7-0.3-2.3-0.3-2.3l1.2-1.5l1.5-0.1
		l1.1-0.6v-1c0,0-2-0.3-2.6-0.3c-0.5,0-2,0.3-2.7,0.2c-0.7-0.1-1.3-1.6-1.3-1.6l-0.2-2.5c0,0,1.2-0.7,2.7-0.5
		c0.9,0.1,1.2,0.2,1.4,0.3c-0.4-0.4-1.5-1.6-1.8-1.8c-0.3-0.3-3.4-0.3-3.8-0.6c-0.3-0.3-0.5-2-0.5-2.3s-0.4-3.2-0.4-3.2l-0.3-1.7
		h-1.6l-1.2,1.9l0.5,2.5c0,0-0.2,2.7-0.2,3s-1.1,0.7-1.1,0.7l-1.8,0.5l-0.5,1.2l1.1,0.5c0,0,2.4,1.3,3,2.9c0.5,1.6-0.5,0.8-0.5,0.8
		h-1.2c0,0-1.6-0.1-2-0.1c-0.3,0-2.2-0.7-2.2-0.7l2.2,2.3l1.9,0.7c0,0,0.9,1,1.3,1.8c0.4,0.9-1.1,1.2-1.1,1.2h-1.8l-1.7-1.2
		l-2.6,0.3c0,0,1.5,0.4,1.8,0.4c0,0,0,0,0,0c0,0,0,0,0,0c-0.3-0.1-1.2,0.6-1.2,0.6s0.5,0.8,0.5,1c0.1,0.3,2,1.3,2,1.3l1.6,0.7
		c0,0,0.7,0.4,1.2,1c0.5,0.5-0.3,1.4-0.3,1.4s-3.3,0.5-3.7,0.2c-0.4-0.3-1.9,0-1.9,0l0.8,1.7c0,0,1.6,1.1,2,1.9
		c0.4,0.8,2.2,0.7,2.2,0.7s0.8,1.9,0.5,3c-0.2,1-3.7-0.3-4.8-0.2c-1.1,0.2-2,1.8-2,1.8l2.7-0.8l0.7,1.7c0,0,1.2,1.4,1.1,4.2
		s-2.3,3-2.3,3l-1.8,0.3l-2.8-0.3l-3.3,0.1c0,0,3.5,1.4,2.6,2.2c-0.9,0.8-0.2,2.1-0.2,2.1s2-1.4,2.7-2.1c0.7-0.7,2.2,0.9,2.2,0.9
		s0.5,1.6,0.6,1.9s-1.5,0.6-1.5,0.6l-2.1-0.6l-2.1,1.1c0,0,0,0-0.1,0.5c-0.1,0.4-1,1.9-1.5,2.6c0.8-0.4,2.6-1,2.6-1l3.3,0.9v1.7
		c0,0-1.2,0.7-2.7,0.4s-2.5,0.4-3.3,1.3c-0.8,0.9,0.2,2.1,0.2,2.1s1.6,0.4,2.2,0.8c0.6,0.4,0,2.3,0,2.3s-2.3,0.5-2.5,0.9
		c-0.1,0.4-2.5,0.8-4.1,1s-1.8,2.2-1.1,2s1.1,2,1.1,2l-1.3,0.3c0,0-1.6-0.8-1.9-1.3c-0.2-0.5,1.3-2.9,1.3-2.9l2.6-2
		c0,0-3.9-0.3-4.6-0.4c-0.7-0.1-1.1-0.8-1.1-0.8s-0.2-2.2,0.1-3c0.4-0.8,0.9-2,0.9-2h-2.6c0,0-0.8-0.9-1.3-1.3
		c-0.2,0.1-0.4,0.1-0.4,0c-0.1-0.3,0.1-0.2,0.4,0c1.1-0.4,3.9-3,3.9-3l-3.6,0.1l-3.1-2.4h3.2l1.8-1.4l-1.5-0.3c0,0-3.5-1.2-2.2-1.3
		c1.3-0.1,0.2-2,0.2-2l-1.8-0.7l2.6-2.1l-1.8,0.1v-1.4l-2.6-0.7l-0.6-1.2c0,0,0.5-2.1,0.7-2.7c0.2-0.7,1.9,0,1.9,0l-1.6-2.1
		l-2.3,0.9v2.9c0,0-0.8,2-1.5,1.8c-0.7-0.1-2.2,1.6-2.2,1.6h1.6c0,0-1.1,1.2-1.3,1.4c0.4-0.4,1.3,0.8,1.3,1.4s-1.3,1-1.3,1
		s-0.9,0.7-1.8,0.7c-0.8,0-1.2,1.4-1.2,1.4h2v1.7v1.8c0,0-2-0.1-2.8,0c-0.8,0.1-1.9,2-1.9,2l1.2-0.5l0.6,1.8c0,0,1.1,0.7,2,1
		c0.9,0.4,0,2.2,0,2.2s-1.9-0.3-2.1,0.1s-4.8-0.8-4.9-1.3c-0.1-0.5,0.2-2.3,0.2-2.3l3.6-2.9l-3.3,1.2c0,0-1.1-1-2.1-2.4
		c-1.1-1.4,0.8-2.3,0.8-2.3l3.2-2.2l-5-0.1l-0.5-1.7l1.7-1.6c0,0-1.4-0.3-2-0.9c-0.6-0.7,0.5-1.4,0.5-1.4s2.1-0.9,1.4-1
		c-0.7-0.1-2.6-1-2.6-1.6c0-0.5,0.8-1.7,0.8-1.7l-2.3-1.2l-1.2-4.7l-0.6,5l-1.6,1.2l0.5,1.4l-1.9,1.7c0,0,2.2-0.7,1.9,0.9l-2.6,1.3
		c0,0,1.8-0.4,2.3,0c0.6,0.4,0,2,0,2h-1.6l-0.4,1.3c0,0,1.6,0,1.9,0s0,1.4,0,1.4h-2.2c0,0-1.5,2-0.6,1.4c0.9-0.5,1.8,0.7,1.8,0.7
		s0.2,1.4,0,2.7c-0.2,1.3-3.5,1.2-3.5,1.2l2.3,0.8l-3,0.9c0,0,2.8-0.1,2.9,1.2c0.1,1.3,0,1.3,0,1.3l-3.9-1.3l3.1,2.4v3.5
		c0,0-1.6,3.8-2.2,3.5s-4.1,1.7-4.1,1.7l4.1,3.1c0,0-2.8,1.7-4.1,1.4v135.3h526.7v-11.9L659.2,626z M157.2,495.7l-1.6-0.8v-1.6
		l1.6,0.7V495.7z M184.2,506.4c-1.2,0.1-5,1.6-5.5,1c-0.5-0.5,0-2,0-2l1.9-2.1h3.6C184.2,503.4,185.4,506.3,184.2,506.4z
		 M235.8,511.5c-0.9,0.3-3.4-0.1-3.8,0s-1.3-0.7-0.8-1.3c0.5-0.7,1.4-0.9,1.4-1.4s-1.4-0.4-1.5-1.2c-0.1-0.8-0.8-2.3,0-2.1
		c0.8,0.2,1.7-0.9,2.2,0c0.6,0.9,1.1,2.1,1.1,2.1s1.5,0.8,1.5,1.2s1.3,2.1,1.3,2.1S236.8,511.3,235.8,511.5z M264.6,519.1v-2.5h1.2
		C265.9,517.6,264.6,519.1,264.6,519.1z M280.1,522.1c0,0-1.4-1.5-0.6-2.2c0.8-0.7,2.2-0.8,2.2-0.8c0.5,0.7,0.6,3,0.6,3H280.1z
		 M359.5,562.2c-0.5,0.5-0.8,1.6-0.8,1.6s-2.3-0.4-3.2-0.4s-1.3-0.3-1.3-0.3s0.5-2.1,1.3-2.4c0,0,2.3,0.5,2.7,0
		C358.5,560.2,360,561.7,359.5,562.2z M380.8,566.2c0,0,1.2-0.3,1.9,0c0.7,0.3,1,2,1,2s-1-0.5-1.3-0.2c-0.2,0.3-1.6,0-1.6,0V566.2z
		 M381.9,572c-0.6,0.1-0.5,1.8-0.5,1.8s-1.8,0.5-2.6,0.4c-0.8-0.1,0-2.3,0-2.3l3.5-0.9l0.6-1.6h0.9l0.3,1.7
		C384,571.2,382.5,571.9,381.9,572z M510.7,580.3c0.5,0.1,1.5-1.1,1.5-1.1l0.7-1.5c0,0,1-0.2,1.2,0c0.2,0.2,1.3,1.3,1.3,1.3h1.6
		l1.5,1.7c0,0-0.4,0.8-1.1,0.9c-0.7,0.1-2.1,0.3-2.3,0.7c-0.2,0.3-0.9,0.7-1.6,0.4c-0.7-0.3-1.5-0.9-1.9-0.8
		c-0.4,0.1-1.3,0.5-1.3,0.5S510.2,580.3,510.7,580.3z M518.5,587.8c-0.2,0.4-2.7,0.2-2.9,0c-0.2-0.2-2-0.8-2-0.8l-1.7,0.8
		c0,0-1.7,0.1-2.3-0.3c-0.5-0.4-1-0.6-1-0.6s1.2-1,2.4-1.8c1.3-0.9,1.3-1.1,1.3-1.1l2.2,1.1l0.3,0.9c0,0,0.9,0.2,1.7,0
		C517.2,585.8,518.7,587.5,518.5,587.8z M591.2,604.7c-0.6,0.3-1.3,0-1.3,0s0.5-2.7,0.7-3.4C590.6,601.3,591.7,604.4,591.2,604.7z"
		/>
	<path class="st2" d="M172.6,488.3c0,0.1,0.2,0.1,0.4,0C172.7,488.1,172.5,488,172.6,488.3z"/>
	<path class="st2" d="M343,519.9C342.9,519.9,342.9,519.9,343,519.9C342.7,520.1,342.8,520.2,343,519.9z"/>
	<path class="st2" d="M234.4,507.6c0,0-0.5-1.2-1.1-2.1c-0.6-0.9-1.4,0.2-2.2,0c-0.8-0.2-0.1,1.3,0,2.1c0.1,0.8,1.5,0.7,1.5,1.2
		s-0.9,0.8-1.4,1.4c-0.5,0.7,0.5,1.4,0.8,1.3s2.8,0.3,3.8,0c0.9-0.3,1.4-0.6,1.4-0.6s-1.3-1.7-1.3-2.1S234.4,507.6,234.4,507.6z"/>
</g>
<path class="st2" d="M-12.2,479.4c0,0,41.5-1.5,46.1,6.2s41.5,6.2,46.1,15.4c4.6,9.2,29.2,15.4,29.2,15.4l26.1,21.5
	c0,0,26.1-4.6,40,0c13.8,4.6,33.4,11,33.4,11s14.4,14.4,16.4,8.2c2.1-6.2,20.5,13,20.5,13s24.6,7.5,26,10.9
	c1.4,3.4,19.8,21.2,21.9,19.1s22.6-0.4,24.6,0.2c2.1,0.5,20.5,10.1,23.2,10.1s26.7,8.9,29.4,3.4s37.6-17.8,37.6-17.8
	s21.2-18.5,28.7-18.5c7.5,0,10.9-30.1,99.1-9.6c0,0,51.3,32.1,62.2,40.3c10.9,8.2,22.6,9.6,27.3,10.9c4.8,1.4,19.1,12.3,22.6,12.3
	s15,6.8,20.5,6.2c5.5-0.7,17.1-2.6,23.9,0c6.8,2.7,26,14.3,31.4,14.3s8.2-4.1,17.8-3.4c9.6,0.7,32.1,13.7,37.6,12.3
	c5.5-1.4,21.9,7.5,28,3.4s58.8-36.2,66.3-36.2s53.3-28,53.3-28l28.7-6.2c0,0,34.2-19.3,42.4-21.6c8.2-2.3,21.2-11.9,21.2-11.9
	s25.3,16.4,30.1,26s37.6,24.6,38.3,26.7c0.7,2.1,41,23.2,47.8,26c6.8,2.7,16.4,2.1,19.8,5.5c3.4,3.4,15.7,12.3,15.7,12.3l20.5,8.6
	l6.8,7.1c0,0,32.1,15.7,34.2,15.7s36.2,4.1,36.2,0s17.8-10.3,17.8-10.3s13-11.6,23.2-11.6c10.3,0,23.9-8.2,56.1,7.5
	s30.8,21.2,34.9,21.2s26.7-4.1,29.4,4.8c2.7,8.9,21.9,14.4,21.9,14.4l48.5-11.6c0,0,19.1,2.7,21.2,2.1c2.1-0.7,0-8.9,9.6-9.6
	c9.6-0.7,28,0.7,30.1-2.7c2.1-3.4,24.6-19.1,24.6-19.1s13.7-6.2,18.5-6.2c4.8,0,29.4-11.6,60.2-2.7c30.8,8.9,31.4,14.4,41,13
	c9.6-1.4,26-3.4,26-3.4l12.3,11.6l36.9-6.2c0,0,14.4,19.1,21.9,22.6c7.5,3.4,213.4,94.9,261.1,18c47.7-76.9-10.7,240.7-10.7,240.7
	L-52.2,859.3L-12.2,479.4z"/>
<g>
	<path class="st2" d="M173.1,477.8c-0.1,0-0.2-0.1-0.3-0.1c0.3,2.5,1,4.4,1.8,5.7C175.6,481.5,176.1,479.2,173.1,477.8z"/>
	<path class="st2" d="M177.8,473.7c-0.1-0.8-0.3-1.3-0.3-1.3S177.6,472.9,177.8,473.7z"/>
	<path class="st2" d="M195.6,467.7c0,0,2.1,4,4,6.5c0-0.1,0-0.1,0-0.1L195.6,467.7z"/>
	<path class="st2" d="M176.7,368.4c-1.9,0.5-2.9,1.1-2.9,1.1S175,369.1,176.7,368.4z"/>
	<path class="st2" d="M226.1,434.9c0,0.3,0.4,0.1,1-0.4C226.5,434.6,226.1,434.7,226.1,434.9z"/>
	<path class="st2" d="M211.7,431.9c-0.6,0-1.1,0.2-1.5,0.5C211.9,432,212.8,431.9,211.7,431.9z"/>
	<path class="st2" d="M-10.5,691.3l275.8,12.7c0,0-91.8-108.6-89.2-115.3s6-11.4,10.7-10.1c4.7,1.3,18.8,2.7,18.8,2.7l-4.7-8.7
		l-14.7-4c6.7-5.4,2-10.1,2-10.1s-10.1-1.3-12.7-0.7c-2.7,0.7-8,3.4-8,3.4l-7.4-9.4l-2.7-8c8,1.3,12.7,7.4,12.7,7.4
		s10.1,4.7,8.7-0.7c-1.3-5.4-7.4-12.1-7.4-12.1c4.7-6,10.7-2.7,16.8,5.4c6,8,5.4-9.4,5.4-9.4l-16.8-10.1c0,0,20.1-2.7,22.8,0
		c2.7,2.7,14.1,5.4,14.1,5.4l-4-11.4c0,0,10.1-2,14.1,5.4c4,7.4,14.7,9.4,7.4-5.4c-7.4-14.7,14.1,4,16.1-0.7
		c2-4.7-10.1-12.1-10.1-12.1s-12.1-7.4-3.4-9.4c8.7-2,14.7-6.7,9.4-7.4c-5.4-0.7-17.4-6-17.4-2s-5.4,4.7-10.7,2.7
		c-4.3-1.6-6-7.1-4.8-9.6c-3.8,1.9-12,5.5-12,5.5s-1.3-9-6.4-5.4c-5,3.7-9,9.4-9,9.4s-0.7-13.1-2-12.7c-1.3,0.3-0.7,17.1-3.7,18.1
		s-24.8-1.3-26.1,0.7s-6.7-3-6.7-3s-6.5,1.9-5.9,0.7c-0.8-1.3-1.9-6-2.2-8.5c-4.9-2.3,0-3.9,0-3.9s1-3.7,3.7-4.4
		c2.7-0.7,4,2.3,4,2.3c-0.2,2.2-0.2,4.2,0.1,5.9c0.1,0-5.2,1.4-5.1,1.5c2.9,1.4,0.3,4.2,6.9,4.2c1.1,1.8,2.4,2.2,3.2,0.8
		c1.3-2.3,0.4-7.9-0.1-10.4c-0.2-0.8-0.3-1.3-0.3-1.3s0.1,0.5,0.3,1.3c0.5,2.3,1.8,6.9,3.8,8.1c2.7,1.7,4-14.4,2.3-17.8s3-2.3,3-2.3
		s5,10.1,5.4,15.4c0.3,5.4,4.4,11.4,6.4,8.7c1.9-2.5,1.1-10.6,1-11.6c-2-2.5-4-6.5-4-6.5l4,6.4c0,0,0,0,0,0.1c1.2,1.5,2.4,2.5,3,1.6
		c1.7-2.3,0-10.4-1.7-12.4s13.7,0,14.1,4s7-3.7,2.3-6.7c-4.7-3,16.1-4.7,18.4-1.7c2.3,3-3.7-10.1-3.7-10.1s17.4-5.4,20.1-3
		c2.7,2.3-0.7-9.4-5.7-7.7c-5,1.7,10.7-5.4,10.7-5.4s-24.9,0.5-30.2,1.6c-0.6,0.5-1,0.7-1,0.4c0-0.1,0.4-0.3,1-0.4
		c2.7-2,9.7-9.3,9.7-9.3s-2.7-3.7-8,0.3c-5.4,4-21.5,13.4-21.5,13.4s0.5-5,2.9-6.6c-4.2,0.7-13.9,2.1-15.6,3.6
		c-2.3,2-2.7-10.4-5-12.1c-2.3-1.7,0.7,5.4-4,6.7c-4.7,1.3-13.4,1.3-13.4,1.3l5.7-12.1l-7.7-1c0,0,3-5.4,5.7-4.4s7.4-0.3,6.7-1.3
		c-0.7-1,4.7,1.7,4.7,1.7s-1-6.4-3.7-7c-2.7-0.7,9.7-1.7,11.4,0.3c1.7,2,8,3.4,8,1c0-2.3-3.4-6-3.4-6s14.1-5.7,17.1-4.7
		s2.3-6.5,2.3-6.5l6.4,3.5c0,0,0.3-6.4-6.4-9.4c-6.7-3,8.7-2,6.7-5.7c-2-3.7-13.1-2.3-13.1-0.7s-0.7-10.4-0.7-10.4s-4.7-1-4.7,2
		s-1.3,6-1.3,6l-4-8.4l-1.2,2.3c0,0,0.2-2-4.9-1c-0.6,0.1-1.2,3.9-1.5,4.2c2,1.5,4.2,1.2,3.3,2.2c1.2,2.2,0.5,3-0.2,4.4
		c-1.3,2.7-3.7,8.7-6.7,7.7s0.7-6,0.7-6s3.7-9.4-3.7-2.3c-7.4,7-10.1,10.1-10.1,10.1s2.7-6.7,1.7-8.7s-11.7,9.8-14.7,10.3
		c-3,0.5-7.4,2.1-7.7-2.2c-0.3-4.4,1.3-9.4,1.3-9.4s7,3.7,8.4,3.4s4.7-6.7,2.3-8.4c-2.3-1.7,8.4,3.4,8.4,3.4s4.4-3,2.7-4.4
		c-1.7-1.3,8.2,0.8,9.2,1.8c0.4,0.4,2-0.7,2.7-1.5c1.3-1.4-0.6-4.2,0.2-5.1c-0.9-0.7,0,0-2.1-0.6c-6.2-1.8-10.8-1.2-13.5-0.5
		c-1.7,0.7-2.9,1.1-2.9,1.1s1-0.6,2.9-1.1c3.5-1.4,8.7-3.7,8.5-4.6c-0.3-1.3-17.1,0-18.1,1.7c-1,1.7-3.7-0.7-3.7-0.7
		s4.2-3.9,4.2-5.2c0-1.3-7.2,0.8-9.9,1.5c-2.7,0.7,3.5-2,2.3-3.4c-1.2-1.3-8.2,2-8.7,2.5s-6.7-2.2-2.7-5.4s11.1-0.7,11.1-0.7
		s-6-7.2-7.9-7.7c-1.8-0.5-4-5-2-6.4c2-1.3,6.5,4.4,6.5,4.4s4.5,0.3,2.3-3.7c-2.2-4-6.2-7.5-6.2-7.5s13.5-0.3,17.4,0.4
		c-2.7-1.3-9.6-5.3-10.4-5.4c-1-0.2,8.2-1.5,10.1-0.2c1.8,1.3,4.5,2.2,4.5,2.2s4-2.3,2.8-4.2c-1.2-1.8,12.1-0.3,12.4,0.7
		s5-2.8-1.2-5.7c-6.2-2.8-14.6-2-14.6-2s5-6.9,2.3-7.9c-2.7-1-17.3,12.6-17.3,12.6s2-6.2,4.4-7.5c2.3-1.3-2.7-3-3.9-1.5
		s-6.7,2.5-7.2,0.3c-0.5-2.2,6.4-2.5,6.4-2.5s1.5-3.4-1.2-3.4c-2.7,0-6-1.3-6-1.3s1.3-3.9,5.7-3.2c4.4,0.7,7.4,2.3,7.4,2.3
		s2.5-3,0.2-4.9c-2.3-1.8-6.4-3.5-6.4-3.5s17.9-0.5,17.9-3.7l2.2-2.5c0,0-7.5-1-7.5-2s5.4-1,5.4-1l5.2,3.2c0,0,4.5-1.2,2.3-3.9
		c-2.2-2.7-9.9-4.7-9.9-4.7l7.5-11.1c0,0,2-3.4-4.2-1.3c-6.2,2-6.5,6.5-8.4,6.5c-1.8,0,4.2-12.5,4.2-12.5s-10.6,0.1-10.7,6.1
		c0,0.5,1.7-0.4,1.7,0.2c3.5-1.1,3,2.7,2.8,4.5c0,0.7,0.8,2.5,0,3.4c0.5,3.1,0.5,4.7,0.5,5.2c0,0.8-6.4,0.2-6.4,0.2s0.1-3.3,2-5.4
		c-0.3-2-0.6-4.3-0.6-6.5c-0.9,0.3-2.1,0.8-3.7,1.8c-8,4.7-9.2,5-9.2,5s-1.3-5,0.5-6.7s5.7-6.9-5.5-12.4c0,0,5.5-5.9,5.7-8.5
		c0.2-2.7-4.2-4.7-4.2-4.7s3.9-9.4,9.9-9s14.9-0.5,14.9-0.5s-0.8-4.2-3-4.7c-2.2-0.5,6.7,0.2,6.7,0.2s1.7-4.5-4.4-4.9
		c-6-0.3-8-1.3-8-1.3s6-7.6,7.4-7.7c1.3-0.2-0.8-6.4-5-2.2c-4.2,4.2-5.4,8.2-6.9,7.5c-1.5-0.7-4.9-3-3.7-4.9
		c1.2-1.8,6.7-8.2,6.7-8.2s-0.5-6.4-4.5-1.2c-4,5.2-9.6,3.5-9.6,3.5l-3.2,3l-1.8,5.9c0,0-3.5-4.2-8.5-4c-5,0.2-12.1,6.4-12.1,6.4
		s-2.8-0.5,0.3-3.7c3.2-3.2,21.1-13.2,21.1-13.2s2-5-4.2-2.5c-6.2,2.5-10.6,5-10.6,5l1.2-7c0,0-4.9,0.3-7.4,2.7
		c-2.5,2.3-3.2-1.3-0.7-3.9s21.3-19.3,21.3-19.3s0.8-5.4-12.2-1.3c0,0,2.3-9.7,0.3-11.4c-2-1.7-2.8-6.9-11.7-1.3c0,0-1-3.9,3.4-4.7
		c4.4-0.8,11.6-3,11.6-3s6.9-3-1.3-5.2l-11.9,3l3.4-4.7c0,0-0.8-8.7-7.2-3.9c0,0-0.3,3.5-2,3.5c-1.7,0-2.8-7.7-1.8-8.5
		c1-0.8,19.1-17.1,19.1-17.1s1.5-5.9-5.5-3.4s-11.2,7-11.2,7s0.3-47.4-5.9-46.2c0,0-7,33.7-5,42.7c2,9-10.3-11.3-10.3-11.3
		s-4,1.3-3.8,4.8s13.8,23.4,13.8,23.4s2.8,7.5,0.5,7.3c-2.3-0.3-13.3-12.6-13.3-12.6s-5.8,0.5-3.8,4.5c2,4,12.1,10.3,12.1,10.3h-4.8
		c0,0-3-0.5,2,6c5,6.5-4.3,1.3-4.3,1.3s-9.6-7.5-7.5,2l12.1,9.5L56.6,183c0,0-3.3,3.8-1.5,4.3c1.8,0.5,7.1,8.8,6.3,8.8s-5.5,0-5.5,0
		l-7-7v5.3v2.8l-8-1.8v4l-13.3-5.3c0,0-3.5,0.8,0,5.3l10.1,3c0,0-1.8,3.3-1.3,5c0.5,1.8,14.3,6.3,14.3,6.3l-9.8,5.3c0,0-1,2,0.8,2.8
		c1.8,0.8,11.3,0,11.3,0s3.2,3.3,0,3.8c-3.2,0.5-7.8,0-7.8,0s-0.5,2.3,1,2.8c1.5,0.5,8.3,3,9.3,4s-0.5,2.4-0.5,2.4l-9.8-3.4
		c0,0-2.5,1.5-1.3,3.4c1.3,1.9,7.5,5.7,7.5,5.7s-2.3,3-3.5,2.5c-1.3-0.5-11.6-12.8-11.6-12.8s-2.5-0.5-2,2.8l4.5,7.8
		c0,0-18.4-9.6-20.4-7c0,0-4.3-0.3-3.3,1.1c1,1.4,7,2.2,7,4.2s-1.8,4.1-1.8,4.1l1.5,3l7.8,4.3c0,0,3.5,2.3,0.8,2.5
		c-2.8,0.3-9.8,3.5-9.8,3.5s-0.5,2.5,2.5,2.5s11.8,0,11.8,0l-1.3,4.3c0,0,8.8-0.8,9-2.8s9.6,4.8,9.3,6s-6.5,1.5-7.3,7.3
		s-7.3-6-7.3-6s-3.8-2.3-6.8,1.8c0,0-6.8-4.3-9.3-2.8s7,10.1,7,10.1s-2.8,7-4.8,7.5s0.8,2.5,2,2.3c1.3-0.3,10.6-6.8,12.6-3.3
		l11.1-0.5c0,0,1.8,10.1,0.3,10.6c-1.5,0.5-9,0-9.3,1.5s3.5,4,3.5,4s-7.3,0.8-7.3,1.8s-8.8-7.5-8.8-7.5s-3,1-2.8,2.3
		s-3.3,1.8-3.8-0.5s-3.8-7.8-3.8-7.8s-2.8-2.3-3.8,0.8s-1.3,5.3-1.3,5.3L9,286.4c0,0-2-3-3.8,0.3s0,6.3,0,6.3s-5.3-2-8.8-1.8
		s2.8,4,2.8,4l6.8,4c0,0,1,0.7-2.3,1.3c-3.3,0.7-8.4,5.2-8.4,6.5c0.1,1.3,8.6-0.5,9.4,0S0,314.8,0,314.8s0.8,0.3,2.3,0S8,312,8,312
		s1.3,0.7,1.3,2.9s9-3.1,7.8-4.9c-1.3-1.8,10.1-2.3,9.8-1s4.8,2,2.8,3.5s-8.8,0.2-10.3,2.9c-1.5,2.6-3.5,6.4-3.5,6.4
		S0,321.5,0.5,323.1s10.1,3,10.1,3s4.3,1.8,2.8,2.5s-18,8.3-17.9,11.1c0.1,2.8,4.6,2,4.6,2l9.8-3.3L9,341.8c0,0,5-2.1,5.3-3.1
		s7.3-3.5,7.3-3.5l2,8.5c0,0,4,0,3.8-1.8c-0.3-1.8,1.5-8.8,1.5-8.8l3.8-1.8c0,0,3,0.3,2.8,3s-2.3,6.3-2.3,6.3s-5.5,4-5.5,5
		c0,1,0,4,0,4s5-2.5,6.8-5.3c1.8-2.8,4.8,0,4.8,0s2,7.5,1,8.8c-1,1.3-14.8,1.8-14.8,1.8s-4.5,8.5-3.5,10.3c1,1.8-10.1-2.8-10.1-2.8
		s-4,2.6-3.8,3.2c0.3,0.6-12.6-3.7-12.6-3.7s-5.5,0.9-2.4,3.7s12.8,6.6,11.3,9.6c-1.5,3-15.6-7.5-15.6-7.5v6.5
		c0,0-17.6-0.8-18.4-3.8c-0.8-3-2,3-2,3s-14.3,0.3-15.1,2.3s0,3.5,0,3.5s8.3,1.3,10.1,1.8c1.8,0.5-0.8,5.3-0.8,5.3s10.6,1.5,10.8,0
		s5-2,5-2s-6,6.8-5.3,7.5c0.8,0.8,3.8,0,3.8,0s9.6-11.6,10.6-9.8s-0.5,7.3-0.5,7.3l-2.8,4.3c0,0,3.8,4,5,3.3s-4.8,5.5-4.8,5.5
		s2.8,2,5.5,1.8s9.8-3.3,9.8-3.3s2.3,9.8,4,9.8S6.3,399,6.3,399s5,1.5,5,3s7.3-7.3,7-8s4,0.8,3.5,2c-0.5,1.3-2.8,3-2.8,3l4.3,5.3
		l-9.3,0.3c0,0-2.5,1-1.3,2.5s6,3.8,6,3.8s-12.1,5-12.6,6.3s7,2,7,2l6,3.3h9.3l-5.5,5.5c0,0-32.4-7.5-34.2-6.3s-2.8,4.8-2.8,4.8
		l-4-3.8c0,0-4.8-2.8-3,2c1.8,4.8,1,3-0.3,3.3s-19.6-8-23.1-5.5s3.3,4.3,3.3,4.3s14.8,9,13.6,11.8c-1.3,2.8-9.6,7.8-9.6,7.8
		s-2.8,7.8,4.3,5s9.6-7.3,11.6-5.8s1.5,9.3,1.5,9.3l5.8-6.3c0,0,2.5,2.3,1,3.8s-8.3,8.3-8.3,8.3s2.5,5.5,7.8,3.8s9.8-9,10.8-7.5
		S1,467.3,3,467.6s8.3,5.3,8.8,4c0.5-1.3,7-9,8.5-8.8c1.5,0.3,4,4,3,5c-1,1-7.1,7.8-7.1,7.8s-4.5,9.6,11.6,9.6c0,0-0.5,7.5-5.3,9.3
		c0,0-8-10.1-20.9-5.8l-10.3-7c0,0-7-2-2.3,2.5C-6,488.7-1,494.5-1,494.5s-2.3,0.8-4.8,0s-6.8,0.3-6.8,0.3s-6.5-1.8-8-3.4
		s-4.5-9.6-4.5-9.6s-4.3-4.8-7,0.5l-1,4l-9.3-7.8c0,0-4-2.8-2.5,1c1.5,3.8,5.3,10.1,5.3,10.1s-2.5,1.3-5.5,0.8s-9.3-3-11.3-2.5
		s-8,0.5-8,0.5s6,7.2,7,6.4c1-0.8,9,2.9,9,2.9l-1.3,2.8l2.3,2.5c0,0-8.8-2-9.6,0s4,4,4,4l-14.1,6.3c0,0-10.3,11.1,2.8,7
		s15.8-7,16.6-6c0.8,1-4.5,8.5-4.5,8.5s-0.3,3,1.5,3.3c1.8,0.3,7.5-3.8,7.5-3.8s4.5-8.8,6-8.3c1.5,0.5,7.3-0.3,5,2.5
		c-2.3,2.8-3.5,9.6-3.5,9.6s8.8-6.3,8.8-9.3s6.3,0,6.3,0l-6.8,6.8c0,0,8.3-2.3,10.3,0.5c2,2.8-7,9.3-7,9.3s-0.3,3.5,1.8,3
		s4.5,0,4.5,0l-5.5,13.8c0,0,4.5,3,8.5-2s5-12.3,5-12.3s3.5,1,3.8,3.3c0.3,2.3,3,3.5,3,3.5s3.3-9.3,4.8-9.3s4.5,0.8,4.5,0.8
		s-8.5,11.1-7.5,12.3c1,1.3,2,4.7,2,4.7l6.3-1.9c0,0,4.5-7.3,4.8-10.1c0.3-2.8,2.8-5,3.8-3.5s10.3,20.1,5.3,20.6s-13.6,3.3-15.3,2
		c-1.8-1.3-5-4-5-4s-4,0.8-2.5,3c1.5,2.3,4,5.8,2.3,6.5c-1.8,0.8-10.3,2-10.6,3c-0.3,1-7.8,3-7,5c0.8,2,2.8,5.8,1,4.8
		s-7.3-7.5-7.3-7.5s-3.3-1.8-3,0.8s-1,5-1,5s-8-5.4-12.1,1.9l-23.6-12.2c0,0-6.8-2.5-1.5,2.8c5.3,5.3,9.6,9.5,9.6,9.5l-17.3-2.7
		c0,0-13.1-2.3-14.8-0.3c-1.8,2,7,4.8,7,4.8l9.8,4.3c0,0,1.8,5.3,4.3,4.5c2.5-0.8-8,7.8-8,7.8s-2,2.3-1,3.5c1,1.3,12.6-4.5,14.3-2.5
		c1.8,2,4.8,2.6,7.5,2.7c2.8,0.1,11.3-4,12.8-3.2c1.5,0.8,7.8,6,6.3,7c-1.5,1-19.9,6-19.9,6s-3.3,3.3,0.8,4.3s20.6-5.8,21.1-4.3
		c0.5,1.5,6-1.5,3.8,2s-3.8,6.3-3.8,6.3l8.3-2c0,0,2-4,4.3-4.8c2.3-0.8,5.5,3.3,5.5,5.3s4.3,12.6,4.3,12.6s-6.5,1.8-8,0
		c-1.5-1.8-8-1.3-8-1.3l0.5,5.8c0,0-16.3,1.5-16.8,3.8c-0.5,2.3-4.5-3-4.5-3s-4.3-2.5-5,1.8c-0.8,4.3,3,4.8,3,4.8s-8.8-0.8-10.1-2.5
		c-1.3-1.8-18.4-8.3-21.4,0.5c0,0-11.3-6.8-12.1-7.8c-0.8-1-10.8-4.3-4.5,3c6.3,7.3,11.1,9.3,11.1,9.3l-23.1,1.3c0,0-13.3,2.5-2,4.5
		s14.3,2,14.3,2s-4.3,4.5-1.8,6.8c2.5,2.3-11.8,2-11.8,2s-9.3,6.3-0.8,7c8.5,0.8,21.1-3.8,21.9-5c0.8-1.3,2,2.8,2,2.8s-1.5,6,0,8.5
		c1.2,2,4.2-4.2,5.3-6.7c-0.1-0.7,0.3-1.4,0.8-2c1-2.6,4-9.9,6.7-10.2c3.3-0.3,6,1,6,1l-9.8,7c0,0-1.8,0.8-2.9,2.1
		c-0.2,0.6-0.3,0.9-0.3,0.9s-0.2,0.4-0.5,1c0,0.6,0.3,1.1,1,1.7c3.3,3,13.6-2,13.6-2s9.3-7.3,9.6-5.5c0.3,1.8,2.8,1.8,0.8,4.5
		c-2,2.8-8.8,4-8.8,7s5,1.4,5,1.4s4.8,0.9,2.8,2.4c-2,1.5-10.3,11.3-10.3,11.3l1,10.1c0,0,9-12.7,11-11.6s4.7-6,6-5c1.3,1,4,7,4,7
		l6,6.7l12.1-19.1l7.7,16.4l4.7-2.3l-4.7-12.1c0,0,9,2.7,8.7,1.3c-0.3-1.3-2-9-2-9s-2.3-4.7,0.3-4.7c2.7,0,9.4,4,10.4,3
		s-4.4,5.4-3.7,7s-0.3,7.4-0.3,7.4L-10.5,691.3z M132.6,446.6c0,0,4.7,6.7,4.7,8.7c0,2-4.7,0-4.7,0V446.6z M113.6,242.9
		c3.5-3.7,1.5,2.3,1.5,2.3l-4.1,5c0,0-2.9,0.5-2.6-1S113.6,242.9,113.6,242.9z M108.3,272.8l7.4,4.3h-11.4
		C102.6,273.5,108.3,272.8,108.3,272.8z M100.3,231.1l4,3.6c0,0-3,3.7-4,2.7S100.3,231.1,100.3,231.1z M93.8,181.5
		c0,0-0.3,8.5-1.9,8s-1.6-3.5-1.9-4.5S93.8,181.5,93.8,181.5z M87.1,347.1c0,0,4.7,3.7,4,5c-0.7,1.3-2,5-2,5s0.3-5.7-2-5
		C84.7,352.8,87.1,347.1,87.1,347.1z M55,314.9c2.5-1.9,6.8-3.4,6.8-3.4s2-0.5,1.6,1.2c-0.4,1.7-7.5,5.8-7.5,5.8
		S52.5,316.8,55,314.9z M48.3,304c0,0,3.8,7.3,3,7.5s-5.8-5.5-5.8-5.5L48.3,304z M39.8,365.2c1.3-2,11.6,0,11.6,0l-7.6,5
		C43.8,370.2,38.5,367.2,39.8,365.2z M28.1,368.8l1.1-8.4c0,0,7.9-0.5,8.1,0.2c0.2,0.7,0.7,2.3-0.4,2.4c-1.1,0-3-0.7-3.9,0
		c-0.9,0.7-1.9,1.4-1.9,1.4s-1.3,6.3,0,7.3c1.3,1,1.4,0.5,1.4,0.5s-0.3,1.7-1.5,1.2C29.8,372.8,28.1,368.8,28.1,368.8z M20,449.7
		c-3,1-5.8,5.7-5.8,5.7s1.1,2,4.2,1l-8.7,7.7c0,0-3.7-5.7-1.7-7.7c2-2,10.4-9.7,10.4-9.7S23,448.7,20,449.7z"/>
	<path class="st2" d="M171,334c-0.1-0.1-0.5-0.2-1-0.3C170.7,334.1,171.1,334.2,171,334z"/>
	<path class="st2" d="M240.5,471.7c-0.7,0.1-1.1,0.6-1.4,1.2C240.7,472.1,241.5,471.5,240.5,471.7z"/>
</g>
<g>
	<path class="st2" d="M1805.4,590.1c0.1-0.1,0.2-0.1,0.4-0.1c-0.4,2.7-1.3,4.8-2.3,6.2C1802.3,594.3,1801.7,591.6,1805.4,590.1z"/>
	<path class="st2" d="M1799.6,585.6c0.2-0.9,0.3-1.4,0.3-1.4S1799.8,584.8,1799.6,585.6z"/>
	<path class="st2" d="M1777,579.1c0,0-2.6,4.4-5.1,7.1c0-0.1,0-0.1,0-0.1L1777,579.1z"/>
	<path class="st2" d="M1738.4,542.9c0,0.3-0.5,0.1-1.3-0.4C1737.9,542.6,1738.4,542.8,1738.4,542.9z"/>
	<path class="st2" d="M2033.7,814.3c0,0-1.3-6.3-0.4-8.1c0.8-1.8-5.9-8.8-4.7-7.7c1.3,1.1,9.8-3.3,13.2-3.3c3.4,0,0.4,5.2,0.4,5.2
		s-2.1,8.5-2.5,10c-0.4,1.5,11-1.5,11-1.5l-5.9,13.3l5.9,2.6l9.8-18.1l15.3,21l7.6-7.4c0,0,3.4-6.6,5.1-7.7c1.7-1.1,5.1,6.6,7.6,5.5
		c2.5-1.1,13.9,12.8,13.9,12.8l1.3-11.1c0,0-10.5-10.8-13.1-12.4c-2.5-1.7,3.5-2.6,3.5-2.6s6.4,1.8,6.4-1.5s-8.6-4.7-11.1-7.7
		c-2.5-3,0.6-3,1-5s12.1,6.1,12.1,6.1s13.1,5.5,17.2,2.2c0.8-0.6,1.2-1.3,1.2-1.9c-0.4-0.7-0.6-1.1-0.6-1.1s-0.2-0.4-0.4-1
		c-1.4-1.4-3.7-2.3-3.7-2.3l-12.4-7.7c0,0,3.5-1.4,7.6-1.1c3.4,0.2,7.2,8.3,8.5,11.2c0.6,0.6,1.1,1.4,1,2.1c1.4,2.8,5.2,9.6,6.7,7.4
		c1.9-2.8,0-9.4,0-9.4s1.6-4.4,2.5-3c1,1.4,16.9,6.4,27.7,5.5c10.8-0.8-1-7.7-1-7.7s-18.1,0.3-15-2.2c3.2-2.5-2.2-7.5-2.2-7.5
		s3.8,0,18.1-2.2c14.3-2.2-2.5-5-2.5-5l-29.3-1.4c0,0,6-2.2,14-10.2c8-8-4.8-4.4-5.7-3.3s-15.3,8.6-15.3,8.6
		c-3.8-9.7-25.5-2.5-27.1-0.6s-12.7,2.8-12.7,2.8s4.8-0.6,3.8-5.3s-6.4-1.9-6.4-1.9s-5.1,5.8-5.7,3.3s-21.3-4.1-21.3-4.1l0.6-6.4
		c0,0-8.3-0.6-10.2,1.4c-1.9,1.9-10.2,0-10.2,0s5.4-11.6,5.4-13.8c0-2.2,4.1-6.6,7-5.8c2.9,0.8,5.4,5.3,5.4,5.3l10.5,2.2
		c0,0-1.9-3-4.8-6.9c-2.9-3.9,4.1-0.6,4.8-2.2s21.6,5.8,26.7,4.7c5.1-1.1,1-4.7,1-4.7s-23.2-5.5-25.2-6.6c-1.9-1.1,6-6.9,8-7.7
		c1.9-0.8,12.7,3.6,16.2,3.5c3.5-0.1,7.3-0.8,9.6-3c2.2-2.2,16.9,4.1,18.1,2.8c1.3-1.4-1.3-3.9-1.3-3.9s-13.4-9.4-10.2-8.6
		s5.4-5,5.4-5l12.4-4.7c0,0,11.1-3,8.9-5.3c-2.2-2.2-18.8,0.3-18.8,0.3l-22,2.9c0,0,5.4-4.6,12.1-10.4c6.7-5.8-1.9-3-1.9-3
		l-29.9,13.5c-5.1-8.1-15.3-2.1-15.3-2.1s-1.6-2.8-1.3-5.5c0.3-2.8-3.8-0.8-3.8-0.8s-7,7.2-9.2,8.3s0.3-3,1.3-5.3
		c1-2.2-8.6-4.4-8.9-5.5s-11.1-2.5-13.4-3.3c-2.2-0.8,1-4.7,2.9-7.2s-3.2-3.3-3.2-3.3s-4.1,3-6.4,4.4c-2.2,1.4-13.1-1.7-19.4-2.2
		s5.4-21,6.7-22.7s4.5,0.8,4.8,3.9s6,11.1,6,11.1l8,2.1c0,0,1.3-3.8,2.5-5.1s-9.6-13.5-9.6-13.5s3.8-0.8,5.7-0.8s6,10.2,6,10.2
		s3.5-1.4,3.8-3.9s4.8-3.6,4.8-3.6s1.3,8,6.4,13.5s10.8,2.2,10.8,2.2l-7-15.2c0,0,3.2-0.6,5.7-0.1s2.2-3.3,2.2-3.3
		s-11.5-7.2-8.9-10.2c2.5-3,13.1-0.6,13.1-0.6l-8.6-7.5c0,0,8-3.3,8,0c0,3.3,11.1,10.2,11.1,10.2s-1.6-7.5-4.5-10.5s4.5-2.2,6.4-2.8
		c1.9-0.6,7.6,9.1,7.6,9.1s7.3,4.4,9.6,4.1c2.2-0.3,1.9-3.6,1.9-3.6s-6.7-8.3-5.7-9.4s4.5,2.2,21,6.6c16.6,4.4,3.5-7.7,3.5-7.7
		l-17.8-6.9c0,0,6-2.2,5.1-4.4c-1-2.2-12.1,0-12.1,0l2.9-2.8l-1.6-3c0,0,10.2-4.1,11.5-3.2c1.3,0.9,8.9-7,8.9-7s-7.6,0-10.2-0.6
		s-10.5,2.2-14.3,2.8c-3.8,0.6-7-0.8-7-0.8s4.8-6.9,6.7-11.1c1.9-4.1-3.2-1.1-3.2-1.1l-11.8,8.6l-1.3-4.4c-3.5-5.8-8.9-0.6-8.9-0.6
		s-3.8,8.8-5.7,10.5c-1.9,1.7-10.2,3.7-10.2,3.7s-5.4-1.2-8.6-0.4c-3.2,0.8-6,0-6,0s6.4-6.4,12.4-11.3c6-5-2.9-2.8-2.9-2.8
		l-13.1,7.7c-16.2-4.7-26.4,6.4-26.4,6.4c-6-1.9-6.7-10.2-6.7-10.2c20.4,0,14.7-10.5,14.7-10.5s-7.7-7.5-9-8.6
		c-1.3-1.1,1.9-5.3,3.8-5.5c1.9-0.3,10.2,8.3,10.8,9.7c0.6,1.4,8.6-4.1,11.1-4.4c2.5-0.3,5.7-10.2,7-11.9s7,6.4,13.7,8.3
		c6.7,1.9,9.9-4.1,9.9-4.1s-8.6-7.5-10.5-9.1c-1.9-1.7,1.3-4.1,1.3-4.1l7.3,6.9c0,0-0.6-8.6,1.9-10.2c2.5-1.7,5.7,3.3,14.6,6.4
		c8.9,3,5.4-5.5,5.4-5.5s-10.5-5.5-12.1-8.6s17.2-13,17.2-13s8.6-1.9,4.1-4.7c-4.5-2.8-27.7,6.4-29.3,6.1c-1.6-0.3-2.5,1.7-0.3-3.6
		s-3.8-2.2-3.8-2.2l-5.1,4.1c0,0-1.3-3.9-3.5-5.3s-43.3,6.9-43.3,6.9l-7-6.1h11.8l7.6-3.6c0,0,9.6-0.8,8.9-2.2s-15.9-6.9-15.9-6.9
		s6-2.5,7.6-4.1c1.6-1.7-1.6-2.8-1.6-2.8l-11.8-0.3l5.4-5.8c0,0-2.9-1.9-3.5-3.3c-0.6-1.4,4.8-3,4.5-2.2c-0.3,0.8,8.9,10.5,8.9,8.8
		c0-1.7,6.4-3.3,6.4-3.3s1,13,3.2,13c2.2,0,5.1-10.8,5.1-10.8s8.9,3.3,12.4,3.6c3.5,0.3,7-1.9,7-1.9s-7.6-6.9-6-6.1s6.4-3.6,6.4-3.6
		l-3.5-4.7c0,0-1.9-6.1-0.6-8s13.4,10.8,13.4,10.8s3.8,0.8,4.8,0c1-0.8-6.7-8.3-6.7-8.3s6,0.6,6.4,2.2s13.7,0,13.7,0s-3.2-5.3-1-5.8
		s12.7-1.9,12.7-1.9s1-1.7,0-3.8c-1-2.2-19.1-2.5-19.1-2.5s-1.6-6.6-2.5-3.3c-1,3.3-23.2,4.1-23.2,4.1v-7.2c0,0-17.8,11.6-19.7,8.3
		c-1.9-3.3,10.5-7.5,14.3-10.6c3.8-3.1-3.1-4.1-3.1-4.1s-16.3,4.7-16,4c0.3-0.7-4.8-3.5-4.8-3.5s-14,5-12.7,3s-4.5-11.3-4.5-11.3
		s-17.5-0.6-18.8-1.9s1.3-9.7,1.3-9.7s3.8-3,6,0c2.2,3,8.6,5.8,8.6,5.8s0-3.3,0-4.4c0-1.1-7-5.5-7-5.5s-2.5-3.9-2.9-6.9
		c-0.3-3,3.5-3.3,3.5-3.3l4.8,1.9c0,0,2.2,7.7,1.9,9.7c-0.3,1.9,4.8,1.9,4.8,1.9l2.5-9.4c0,0,8.9,2.8,9.2,3.9
		c0.3,1.1,6.7,3.4,6.7,3.4l-1-3.7l12.4,3.6c0,0,5.7,0.8,5.8-2.2c0.1-3-20.8-11.3-22.7-12.2c-1.9-0.8,3.5-2.8,3.5-2.8
		s12.1-1.7,12.7-3.3s-19.4-1.4-19.4-1.4s-2.5-4.1-4.5-7.1c-1.9-2.9-10.5-1.5-13.1-3.2c-2.5-1.7,3.8-2.5,3.5-3.9
		c-0.3-1.4,14-0.8,12.4,1.1s9.9,7.7,9.9,5.4c0-2.4,1.6-3.2,1.6-3.2s5.4,2.8,7.3,3s2.9,0,2.9,0s-7-8-6-8.6c1-0.6,11.8,1.4,11.9,0
		c0.1-1.4-6.4-6.4-10.6-7.1c-4.1-0.7-2.9-1.5-2.9-1.5l8.6-4.4c0,0,8-4.1,3.5-4.4s-11.1,1.9-11.1,1.9s2.2-3.3,0-6.9
		c-2.2-3.6-4.8-0.3-4.8-0.3l-4.1,7.2c0,0-0.3-2.5-1.6-5.8c-1.3-3.3-4.8-0.8-4.8-0.8s-4.1,6.1-4.8,8.6c-0.6,2.5-5.1,1.9-4.8,0.6
		c0.3-1.4-3.5-2.5-3.5-2.5s-11.1,9.4-11.1,8.3c0-1.1-9.2-1.9-9.2-1.9s4.8-2.8,4.5-4.4c-0.3-1.7-9.9-1.1-11.8-1.7
		c-1.9-0.6,0.3-11.6,0.3-11.6l14,0.6c2.5-3.9,14.3,3.3,15.9,3.6c1.6,0.3,5.1-1.9,2.5-2.5c-2.5-0.6-6-8.3-6-8.3s12.1-9.4,8.9-11.1
		c-3.2-1.7-11.8,3-11.8,3c-3.8-4.4-8.6-1.9-8.6-1.9s-8.3,13-9.2,6.6s-8.9-6.6-9.2-8c-0.3-1.4,11.5-8.8,11.8-6.6s11.5,3,11.5,3
		l-1.6-4.7c0,0,11.1,0,15,0c3.8,0,3.2-2.8,3.2-2.8s-8.9-3.6-12.4-3.9c-3.5-0.3,1-2.8,1-2.8l9.9-4.7l1.9-3.3c0,0-2.2-2.3-2.2-4.5
		s7.6-3,8.9-4.6c1.3-1.5-4.1-1.2-4.1-1.2c-2.5-2.8-25.8,7.7-25.8,7.7l5.7-8.6c0.6-3.6-2.5-3-2.5-3s-13.1,13.5-14.6,14.1
		c-1.6,0.6-4.5-2.8-4.5-2.8s8-4.1,9.6-6.2c1.6-2.1-1.6-3.7-1.6-3.7l-12.4,3.7c0,0-1.9-1.5-0.6-2.6c1.3-1.1,9.9-3.9,11.8-4.4
		c1.9-0.6,1.3-3,1.3-3s-5.7,0.6-9.8,0s0-4.1,0-4.1s12.1,0.8,14.3,0c2.2-0.8,1-3,1-3l-12.4-5.8c0,0,17.5-5,18.1-6.9s-1.6-5.5-1.6-5.5
		l12.7-3.3c4.5-5,0-5.8,0-5.8l-16.9,5.8v-4.4l-10.2,1.9v-3v-5.8l-8.9,7.7c0,0-6,0-7,0s5.7-9.1,8-9.7c2.3-0.6-1.9-4.7-1.9-4.7
		l-13.7-1.4l15.3-10.5c2.5-10.5-9.6-2.2-9.6-2.2s-11.8,5.8-5.4-1.4s2.5-6.6,2.5-6.6h-6c0,0,12.7-6.9,15.3-11.3c2.5-4.4-4.8-5-4.8-5
		s-14,13.5-16.9,13.8c-2.9,0.3,0.6-8,0.6-8s17.2-21.8,17.5-25.7c0.3-3.9-4.8-5.3-4.8-5.3s-15.6,22.4-13.1,12.4c2.5-10-6.4-47-6.4-47
		c-7.9-1.4-7.4,50.8-7.4,50.8s-5.3-5-14.2-7.7c-8.9-2.8-7,3.7-7,3.7s22.9,17.9,24.2,18.8c1.3,0.9-0.2,9.4-2.3,9.4
		c-2.1,0-2.5-3.9-2.5-3.9c-8.1-5.3-9.1,4.2-9.1,4.2l4.2,5.2l-15.1-3.3c-10.4,2.4-1.7,5.7-1.7,5.7s9.1,2.4,14.6,3.3
		c5.5,0.9,4.2,5.2,4.2,5.2c-11.2-6.1-12.3-0.4-14.9,1.5c-2.5,1.8,0.4,12.5,0.4,12.5c-16.6-4.4-15.5,1.5-15.5,1.5s23.8,18.4,27,21.2
		c3.2,2.8,2.3,6.8-0.8,4.2c-3.2-2.6-9.3-2.9-9.3-2.9l1.5,7.7c0,0-5.5-2.8-13.4-5.5c-7.9-2.8-5.3,2.8-5.3,2.8s22.7,11.1,26.7,14.6
		c4,3.5,0.4,4.1,0.4,4.1s-8.9-6.8-15.3-7c-6.4-0.2-10.8,4.4-10.8,4.4l-2.3-6.5l-4-3.3c0,0-7,1.8-12.1-3.9c-5.1-5.7-5.7,1.3-5.7,1.3
		s7,7,8.5,9c1.5,2-2.8,4.6-4.7,5.3c-1.9,0.7-3.4-3.7-8.7-8.3c-5.3-4.6-8.1,2.2-6.4,2.4c1.7,0.2,9.3,8.5,9.3,8.5s-2.5,1.1-10.2,1.4
		c-7.6,0.4-5.5,5.3-5.5,5.3s11.2-0.7,8.5-0.2c-2.8,0.6-3.8,5.2-3.8,5.2s11.2,0.9,18.9,0.6c7.6-0.4,12.5,10,12.5,10s-5.5,2.2-5.3,5.2
		c0.2,2.9,7.2,9.4,7.2,9.4c-14.2,6.1-9.3,11.8-7,13.6c2.3,1.8,0.6,7.4,0.6,7.4s-1.5-0.4-11.7-5.5c-2-1-3.5-1.6-4.7-1.9
		c-0.1,2.4-0.4,4.9-0.8,7.1c2.4,2.3,2.5,5.9,2.5,5.9s-8.1,0.7-8.1-0.3c0-0.5,0-2.3,0.6-5.7c-1-0.9,0.1-2.9,0-3.7
		c-0.2-2.1-0.9-6.2,3.6-5c0-0.6,2.1,0.4,2.1-0.2c-0.2-6.6-13.6-6.7-13.6-6.7s7.6,13.7,5.3,13.7c-2.3,0-2.8-5-10.6-7.2
		c-7.9-2.2-5.3,1.5-5.3,1.5l9.6,12.2c0,0-9.8,2.2-12.5,5.2c-2.8,2.9,3,4.2,3,4.2l6.6-3.5c0,0,6.8,0,6.8,1.1c0,1.1-9.6,2.2-9.6,2.2
		l2.8,2.8c0,3.5,22.7,4.1,22.7,4.1s-5.1,1.8-8.1,3.9c-3,2,0.2,5.3,0.2,5.3s3.8-1.8,9.3-2.6s7.2,3.5,7.2,3.5s-4.2,1.5-7.6,1.5
		c-3.4,0-1.5,3.7-1.5,3.7s8.7,0.4,8.1,2.8c-0.6,2.4-7.6,1.3-9.1-0.4c-1.5-1.7-7.9,0.2-4.9,1.7c3,1.5,5.5,8.3,5.5,8.3
		s-18.5-14.9-21.9-13.8c-3.4,1.1,3,8.7,3,8.7s-10.6-0.9-18.5,2.2c-7.9,3.1-1.9,7.4-1.5,6.3c0.4-1.1,17.2-2.8,15.7-0.7
		c-1.5,2,3.6,4.6,3.6,4.6s3.4-0.9,5.7-2.4c2.3-1.5,14,0,12.7,0.2c-1,0.1-9.7,4.5-13.1,5.9c5-0.7,22.1-0.4,22.1-0.4s-5.1,3.9-7.9,8.3
		c-2.8,4.4,3,4.1,3,4.1s5.7-6.3,8.3-4.8c2.5,1.5-0.2,6.5-2.5,7c-2.3,0.6-10,8.5-10,8.5s8.9-2.8,14,0.7c5.1,3.5-2.8,6.5-3.4,5.9
		c-0.6-0.6-9.6-4.2-11-2.8c-1.5,1.5,6.4,4.4,3,3.7c-3.4-0.7-12.5-3.1-12.5-1.7c0,1.5,5.3,5.7,5.3,5.7s-3.4,2.6-4.7,0.7
		c-1.3-1.8-22.5-3.3-22.9-1.8c-0.3,1,6.4,3.5,10.7,5c2.4,0.6,3.7,1.2,3.7,1.2s-1.6-0.5-3.7-1.2c-3.5-0.8-9.3-1.5-17.1,0.5
		c-2.6,0.7-1.5-0.1-2.6,0.7c1,1-1.4,4.1,0.3,5.6c0.9,0.9,2.9,2.1,3.4,1.7c1.3-1.1,13.8-3.5,11.7-2c-2.1,1.5,3.4,4.8,3.4,4.8
		s13.6-5.5,10.6-3.7c-3,1.8,1.3,8.8,3,9.2c1.7,0.4,10.6-3.7,10.6-3.7s2.1,5.5,1.7,10.3c-0.4,4.8-5.9,2.9-9.8,2.4
		c-3.8-0.5-17.4-13.5-18.7-11.3c-1.3,2.2,2.1,9.6,2.1,9.6s-3.4-3.3-12.7-11.1s-4.7,2.6-4.7,2.6s4.7,5.5,0.8,6.6
		c-3.8,1.1-6.8-5.5-8.5-8.5c-0.8-1.5-1.7-2.4-0.2-4.8c-1.1-1.1,1.7-0.7,4.2-2.4c-0.3-0.3-1.1-4.5-1.9-4.6c-6.4-1.1-6.2,1.1-6.2,1.1
		l-1.5-2.6l-5.1,9.2c0,0-1.7-3.3-1.7-6.6c0-3.3-5.9-2.2-5.9-2.2s-0.8,13.3-0.8,11.4s-14-3.3-16.6,0.7c-2.5,4.1,17,2.9,8.5,6.3
		c-8.5,3.3-8.1,10.3-8.1,10.3l8.1-3.8c0,0-0.8,8.2,3,7.1c3.8-1.1,21.6,5.2,21.6,5.2s-4.2,4.1-4.2,6.6c0,2.6,8.1,1.1,10.2-1.1
		c2.1-2.2,17.8-1.1,14.4-0.4c-3.4,0.7-4.7,7.7-4.7,7.7s6.8-2.9,5.9-1.8c-0.8,1.1,5.1,2.6,8.5,1.5c3.4-1.1,7.2,4.8,7.2,4.8l-9.8,1.1
		l7.2,13.3c0,0-11,0-17-1.5c-5.9-1.5-2.1-9.2-5.1-7.4c-3,1.8-3.4,15.5-6.4,13.3c-2.1-1.6-14.4-3.1-19.8-3.9c3,1.7,3.6,7.2,3.6,7.2
		s-20.4-10.3-27.2-14.7c-6.8-4.4-10.2-0.4-10.2-0.4s9,8,12.3,10.2c0.8,0.1,1.3,0.3,1.3,0.4c0,0.3-0.5,0.1-1.3-0.4
		c-6.7-1.2-38.2-1.8-38.2-1.8s20,7.7,13.6,5.9c-6.4-1.8-10.6,11.1-7.2,8.5c3.4-2.6,25.5,3.3,25.5,3.3s-7.6,14.4-4.7,11.1
		c3-3.3,29.3-1.5,23.3,1.8c-5.9,3.3,2.5,11.8,3,7.4s20-6.6,17.8-4.4c-2.1,2.2-4.2,11.1-2.1,13.6c0.8,1,2.3-0.1,3.8-1.7
		c0-0.1,0-0.1,0-0.1l5.1-7c0,0-2.6,4.4-5.1,7.1c-0.1,1.1-1.1,10,1.3,12.8c2.5,2.9,7.6-3.7,8.1-9.6c0.4-5.9,6.8-17,6.8-17
		s5.9-1.1,3.8,2.6c-2.1,3.7-0.4,21.4,3,19.5c2.5-1.4,4.1-6.4,4.8-8.9c0.2-0.9,0.3-1.4,0.3-1.4s-0.1,0.6-0.3,1.4
		c-0.6,2.8-1.7,9-0.1,11.5c1,1.5,2.6,1,4-0.9c8.4,0,5-3.1,8.7-4.6c0.1-0.1-6.6-1.6-6.4-1.6c0.3-1.9,0.4-4.1,0.1-6.5
		c0,0,1.7-3.3,5.1-2.6c3.4,0.7,4.7,4.8,4.7,4.8s6.1,1.8,0,4.3c-0.4,2.7-1.8,8-2.8,9.4c0.8,1.4-7.4-0.7-7.4-0.7s-6.8,5.5-8.5,3.3
		c-1.7-2.2-29.3,0.4-33.1-0.7c-3.8-1.1-3-19.5-4.7-19.9c-1.7-0.4-2.5,14-2.5,14s-5.1-6.3-11.5-10.3c-6.4-4.1-8.1,5.9-8.1,5.9
		s-10.4-4-15.2-6.1c1.6,2.7-0.6,8.7-6.1,10.5c-6.8,2.2-13.6,1.5-13.6-2.9s-15.3,1.5-22.1,2.2c-6.8,0.7,0.8,5.9,11.9,8.1
		c11,2.2-4.2,10.3-4.2,10.3s-15.3,8.1-12.7,13.3c2.5,5.2,29.7-15.5,20.4,0.7c-9.3,16.2,4.2,14,9.3,5.9c5.1-8.1,17.8-5.9,17.8-5.9
		l-5.1,12.5c0,0,14.4-2.9,17.8-5.9c3.4-2.9,28.9,0,28.9,0l-21.2,11.1c0,0-0.8,19.2,6.8,10.3c7.6-8.8,15.3-12.5,21.2-5.9
		c0,0-7.6,7.4-9.3,13.3c-1.7,5.9,11,0.7,11,0.7s5.9-6.6,16.1-8.1l-3.4,8.8l-9.3,10.3c0,0-6.8-2.9-10.2-3.7
		c-3.4-0.7-16.1,0.7-16.1,0.7s-5.9,5.2,2.5,11.1l-18.7,4.4l-5.9,9.6c0,0,17.8-1.5,23.8-2.9c5.9-1.5,10.2,3.7,13.6,11.1
		S1688.6,839,1688.6,839l349.4-14L2033.7,814.3z M1856.7,565.5c0,0-5.9,2.2-5.9,0c0-2.2,5.9-9.6,5.9-9.6V565.5z M1887.5,338.6
		c0.3,1.7-3.3,1.1-3.3,1.1l-5.3-5.5c0,0-2.5-6.5,1.9-2.5C1880.8,331.7,1887.2,337,1887.5,338.6z M1892.6,369.3h-14.4l9.3-4.7
		C1887.5,364.6,1894.8,365.5,1892.6,369.3z M1897.7,325.6c-1.3,1.1-5.1-2.9-5.1-2.9l5.1-4C1897.7,318.7,1898.9,324.5,1897.7,325.6z
		 M1910.7,268.1c-0.3,1.1-0.3,4.4-2.4,5c-2.1,0.6-2.4-8.8-2.4-8.8S1911,267,1910.7,268.1z M1914.4,451.9c-3-0.7-2.6,5.5-2.6,5.5
		s-1.7-4.1-2.5-5.5c-0.8-1.5,5.1-5.5,5.1-5.5S1917.4,452.7,1914.4,451.9z M1953.9,414.9c0,0-9-4.5-9.6-6.4c-0.5-1.8,2-1.3,2-1.3
		s5.4,1.7,8.6,3.8C1958.2,413,1953.9,414.9,1953.9,414.9z M1967.1,401.1c0,0-6.4,6.4-7.3,6.1c-1-0.3,3.8-8.3,3.8-8.3L1967.1,401.1z
		 M1969.2,471.8l-9.6-5.5c0,0,13-2.2,14.7,0C1976,468.5,1969.2,471.8,1969.2,471.8z M1985.4,475.2c-1.5,0.5-1.9-1.3-1.9-1.3
		s0.1,0.6,1.8-0.6c1.7-1.1,0-8,0-8s-1.3-0.9-2.4-1.6c-1.2-0.7-3.6,0.1-5,0c-1.4,0-0.8-1.8-0.5-2.6c0.2-0.8,10.3-0.2,10.3-0.2
		l1.4,9.3C1989.1,470.3,1986.9,474.6,1985.4,475.2z M2001.5,555.9c0,0,10.6,8.5,13.2,10.7c2.5,2.2-2.1,8.5-2.1,8.5l-11-8.5
		c3.8,1.1,5.3-1.1,5.3-1.1s-3.6-5.2-7.4-6.3S2001.5,555.9,2001.5,555.9z"/>
	<path class="st2" d="M1808.2,432c0.1-0.1,0.6-0.3,1.3-0.3C1808.5,432,1807.9,432.2,1808.2,432z"/>
</g>
<g class="st3">
	<g>
		<path class="st5" d="M1182.2,149.5c0.9,0,3.1-1.4,1.2-1.4C1182.5,148.2,1180.3,149.5,1182.2,149.5L1182.2,149.5z"/>
	</g>
</g>
<g class="st3">
	<g>
		<path class="st5" d="M1374.8,102.8c7.7,0,7.7-12,0-12C1367.1,90.8,1367.1,102.8,1374.8,102.8L1374.8,102.8z"/>
	</g>
</g>
<g class="st3">
	<g>
		<path class="st5" d="M274.8,264.8c7.7,0,7.7-12,0-12C267.1,252.8,267.1,264.8,274.8,264.8L274.8,264.8z"/>
	</g>
</g>
<g class="st3">
	<g>
		<path class="st5" d="M536.8,21.8c3.9,0,3.9-6,0-6C533,15.8,533,21.8,536.8,21.8L536.8,21.8z"/>
	</g>
</g>
<g class="st3">
	<g>
		<path class="st5" d="M1306.8,411.8c3.9,0,3.9-6,0-6C1303,405.8,1303,411.8,1306.8,411.8L1306.8,411.8z"/>
	</g>
</g>
<g class="st3">
	<g>
		<path class="st5" d="M850.8,71.3c5.8,0,5.8-9,0-9C845.1,62.3,845,71.3,850.8,71.3L850.8,71.3z"/>
	</g>
</g>
<g class="st3">
	<g>
		<path class="st5" d="M1654.8,10.3c1.9,0,1.9-3,0-3C1652.9,7.3,1652.9,10.3,1654.8,10.3L1654.8,10.3z"/>
	</g>
</g>
<g class="st3">
	<g>
		<path class="st5" d="M354.8,10.3c1.9,0,1.9-3,0-3C352.9,7.3,352.9,10.3,354.8,10.3L354.8,10.3z"/>
	</g>
</g>
<g class="st3">
	<g>
		<path class="st5" d="M494.8,80.3c1.9,0,1.9-3,0-3C492.9,77.3,492.9,80.3,494.8,80.3L494.8,80.3z"/>
	</g>
</g>
<g class="st3">
	<g>
		<path class="st5" d="M1706.8,408.3c1.9,0,1.9-3,0-3C1704.9,405.3,1704.9,408.3,1706.8,408.3L1706.8,408.3z"/>
	</g>
</g>
<g class="st3">
	<g>
		<path class="st5" d="M1830.8,152.3c1.9,0,1.9-3,0-3C1828.9,149.3,1828.9,152.3,1830.8,152.3L1830.8,152.3z"/>
	</g>
</g>
<g class="st3">
	<g>
		<path class="st5" d="M1800.8,40.3c1.9,0,1.9-3,0-3C1798.9,37.3,1798.9,40.3,1800.8,40.3L1800.8,40.3z"/>
	</g>
</g>
<g class="st3">
	<g>
		<path class="st5" d="M554.8,265.8c3.9,0,3.9-6,0-6C551,259.8,551,265.8,554.8,265.8L554.8,265.8z"/>
	</g>
</g>
<g class="st3">
	<g>
		<path class="st5" d="M142.8,5.8c3.9,0,3.9-6,0-6C139-0.2,139,5.8,142.8,5.8L142.8,5.8z"/>
	</g>
</g>
<g class="st3">
	<g>
		<path class="st5" d="M1162.8,59.8c3.9,0,3.9-6,0-6C1159,53.8,1159,59.8,1162.8,59.8L1162.8,59.8z"/>
	</g>
</g>
<g class="st3">
	<g>
		<path class="st5" d="M1734.8,161.8c3.9,0,3.9-6,0-6C1731,155.8,1731,161.8,1734.8,161.8L1734.8,161.8z"/>
	</g>
</g>
<g class="st3">
	<g>
		<path class="st5" d="M744.8,221.3c5.8,0,5.8-9,0-9C739.1,212.3,739,221.3,744.8,221.3L744.8,221.3z"/>
	</g>
</g>
<g class="st3">
	<g>
		<path class="st5" d="M1004.8,3.3c5.8,0,5.8-9,0-9C999.1-5.7,999,3.3,1004.8,3.3L1004.8,3.3z"/>
	</g>
</g>
<g class="st6">
	<g>
		<path class="st5" d="M1094.3,123.7c1.2,0,3-1.8,1.1-1.8C1094.2,121.9,1092.4,123.7,1094.3,123.7L1094.3,123.7z"/>
	</g>
</g>
<g class="st6">
	<g>
		<path class="st5" d="M1487.9,53.5c0.6,0,3.3-1.2,1.9-1.2C1489.1,52.2,1486.5,53.5,1487.9,53.5L1487.9,53.5z"/>
	</g>
</g>
<g class="st6">
	<g>
		<path class="st5" d="M1606.3,207.8c1.2,0,3-1.9,1.1-1.9C1606.1,205.9,1604.4,207.8,1606.3,207.8L1606.3,207.8z"/>
	</g>
</g>
<g class="st6">
	<g>
		<path class="st5" d="M780.7,53.9c1.7,0,2.2-2.2,0.2-2.2C779.3,51.8,778.8,53.9,780.7,53.9L780.7,53.9z"/>
	</g>
</g>
<g class="st6">
	<g>
		<path class="st5" d="M932.3,71.8c1.2,0,3-1.9,1.1-1.9C932.2,69.9,930.4,71.8,932.3,71.8L932.3,71.8z"/>
	</g>
</g>
<g class="st6">
	<g>
		<path class="st5" d="M523.9,59.5c0.6,0,3.3-1.2,1.9-1.2C525.1,58.2,522.5,59.5,523.9,59.5L523.9,59.5z"/>
	</g>
</g>
<g class="st6">
	<g>
		<path class="st5" d="M426.3,11.6c1,0,3.1-1.4,1.2-1.4C426.5,10.1,424.3,11.6,426.3,11.6L426.3,11.6z"/>
	</g>
</g>
<g class="st6">
	<g>
		<path class="st5" d="M395.9,137.5c0.6,0,3.3-1.2,1.9-1.2C397.1,136.2,394.5,137.5,395.9,137.5L395.9,137.5z"/>
	</g>
</g>
<g class="st6">
	<g>
		<path class="st5" d="M213.9,65.4c0.6,0,3.3-1.1,1.9-1.1C215.2,64.3,212.5,65.4,213.9,65.4L213.9,65.4z"/>
	</g>
</g>
<g class="st6">
	<g>
		<path class="st5" d="M118.3,97.8c1.2,0,3-1.8,1.1-1.8C118.2,95.9,116.4,97.8,118.3,97.8L118.3,97.8z"/>
	</g>
</g>
<g class="st6">
	<g>
		<path class="st5" d="M232.7,149.9c1.7,0,2.2-2.2,0.2-2.2C231.3,147.8,230.8,149.9,232.7,149.9L232.7,149.9z"/>
	</g>
</g>
<g class="st6">
	<g>
		<path class="st5" d="M1616.2,115.5c0.9,0,3.1-1.4,1.2-1.4C1616.5,114.2,1614.3,115.5,1616.2,115.5L1616.2,115.5z"/>
	</g>
</g>
<g class="st6">
	<g>
		<path class="st5" d="M1482.3,17.6c1,0,3.1-1.5,1.2-1.5C1482.4,16.1,1480.3,17.6,1482.3,17.6L1482.3,17.6z"/>
	</g>
</g>
<g class="st6">
	<g>
		<path class="st5" d="M1536.7,165.9c1.6,0,2.2-2.1,0.3-2.1C1535.3,163.8,1534.7,165.9,1536.7,165.9L1536.7,165.9z"/>
	</g>
</g>
<g class="st6">
	<g>
		<path class="st5" d="M1636.3,75.8c1.3,0,3-2,1-2C1636.1,73.9,1634.4,75.8,1636.3,75.8L1636.3,75.8z"/>
	</g>
</g>
<g class="st6">
	<g>
		<path class="st5" d="M1257.9,53.5c0.6,0,3.3-1.2,1.9-1.2C1259.1,52.2,1256.5,53.5,1257.9,53.5L1257.9,53.5z"/>
	</g>
</g>
<g class="st6">
	<g>
		<path class="st5" d="M1359.9,177.5c0.7,0,3.3-1.3,1.9-1.3C1361.1,176.2,1358.5,177.5,1359.9,177.5L1359.9,177.5z"/>
	</g>
</g>
<g class="st6">
	<g>
		<path class="st5" d="M914.9,159.9c1.3,0,3-2,1-2C914.7,158,913,159.9,914.9,159.9L914.9,159.9z"/>
	</g>
</g>
<g class="st6">
	<g>
		<path class="st5" d="M992.9,240.8c1.1,0,3.1-1.6,1.1-1.6C992.9,239.1,990.9,240.8,992.9,240.8L992.9,240.8z"/>
	</g>
</g>
<g class="st6">
	<g>
		<path class="st5" d="M561.7,44.7c1.7,0,6.3-2.6,2.4-2.6C562.5,42.2,557.9,44.7,561.7,44.7L561.7,44.7z"/>
	</g>
</g>
<g class="st6">
	<g>
		<path class="st5" d="M666.1,97.1c1.2,0,6.5-2.2,3.8-2.2C668.7,94.8,663.3,97.1,666.1,97.1L666.1,97.1z"/>
	</g>
</g>
<g class="st6">
	<g>
		<path class="st5" d="M938.2,143.8c1.8,0,6.3-2.7,2.4-2.7C938.8,141.1,934.4,143.8,938.2,143.8L938.2,143.8z"/>
	</g>
</g>
<g class="st6">
	<g>
		<path class="st5" d="M1859.2,47.8c1.8,0,6.3-2.6,2.4-2.6C1859.8,45.1,1855.3,47.8,1859.2,47.8L1859.2,47.8z"/>
	</g>
</g>
<g class="st6">
	<g>
		<path class="st5" d="M1746.8,222.2c2.3,0,6.1-3.4,2.2-3.4C1746.7,218.7,1742.9,222.2,1746.8,222.2L1746.8,222.2z"/>
	</g>
</g>
<g class="st6">
	<g>
		<path class="st5" d="M1735.5,352.2c1.3,0,6.6-2.4,3.7-2.4C1738,349.7,1732.7,352.2,1735.5,352.2L1735.5,352.2z"/>
	</g>
</g>
<g class="st6">
	<g>
		<path class="st5" d="M1512.8,330.2c2.4,0,6.1-3.6,2.2-3.6C1512.6,326.7,1508.9,330.2,1512.8,330.2L1512.8,330.2z"/>
	</g>
</g>
<g class="st6">
	<g>
		<path class="st5" d="M1351.5,160.2c1.2,0,6.6-2.4,3.8-2.4C1354,157.8,1348.7,160.2,1351.5,160.2L1351.5,160.2z"/>
	</g>
</g>
<g class="st6">
	<g>
		<path class="st5" d="M1186.5,202.1c1.2,0,6.6-2.4,3.8-2.4C1189.1,199.8,1183.8,202.1,1186.5,202.1L1186.5,202.1z"/>
	</g>
</g>
<g class="st6">
	<g>
		<path class="st5" d="M1184.3,262.4c2,0,6.2-2.9,2.3-2.9C1184.6,259.5,1180.4,262.4,1184.3,262.4L1184.3,262.4z"/>
	</g>
</g>
<g class="st6">
	<g>
		<path class="st5" d="M1044.2,308c3.3,0,4.5-4.2,0.5-4.2C1041.4,303.9,1040.2,308,1044.2,308L1044.2,308z"/>
	</g>
</g>
<g class="st6">
	<g>
		<path class="st5" d="M941.3,203.9c1.9,0,6.2-2.8,2.4-2.8C941.7,201,937.4,203.9,941.3,203.9L941.3,203.9z"/>
	</g>
</g>
<g class="st6">
	<g>
		<path class="st5" d="M916.7,32c3.3,0,4.5-4.1,0.5-4.1C913.9,27.9,912.7,32,916.7,32L916.7,32z"/>
	</g>
</g>
<g class="st6">
	<g>
		<path class="st5" d="M611.4,175.9c2.5,0,6-3.8,2.1-3.8C611,172,607.5,175.9,611.4,175.9L611.4,175.9z"/>
	</g>
</g>
<g class="st6">
	<g>
		<path class="st5" d="M642.2,258.7c3.4,0,4.4-4.5,0.5-4.5C639.3,254.2,638.3,258.7,642.2,258.7L642.2,258.7z"/>
	</g>
</g>
<g class="st6">
	<g>
		<path class="st5" d="M483.1,158.6c1.2,0,6.5-2.2,3.8-2.2C485.7,156.3,480.3,158.6,483.1,158.6L483.1,158.6z"/>
	</g>
</g>
<g class="st6">
	<g>
		<path class="st5" d="M351.2,132.7c3.4,0,4.4-4.5,0.4-4.5C348.3,128.2,347.3,132.7,351.2,132.7L351.2,132.7z"/>
	</g>
</g>
<g class="st6">
	<g>
		<path class="st5" d="M303.8,60.1c2.2,0,6.1-3.3,2.3-3.3C303.9,56.8,299.9,60.1,303.8,60.1L303.8,60.1z"/>
	</g>
</g>
<g class="st6">
	<g>
		<path class="st5" d="M323.4,231.3c2.5,0,6-3.8,2.1-3.8C323,227.6,319.5,231.3,323.4,231.3L323.4,231.3z"/>
	</g>
</g>
<g class="st6">
	<g>
		<path class="st5" d="M201.9,129.3c2.4,0,6.1-3.7,2.1-3.7C201.6,125.6,198,129.3,201.9,129.3L201.9,129.3z"/>
	</g>
</g>
<g class="st6">
	<g>
		<path class="st5" d="M691.6,209.6c3.9,0,3.9-6,0-6C687.8,203.6,687.8,209.6,691.6,209.6L691.6,209.6z"/>
	</g>
</g>
<g class="st6">
	<g>
		<path class="st5" d="M856.7,203.6c3.9,0,3.9-6,0-6C852.8,197.6,852.8,203.6,856.7,203.6L856.7,203.6z"/>
	</g>
</g>
<g class="st6">
	<g>
		<path class="st5" d="M814.6,374.6c3.9,0,3.9-6,0-6C810.8,368.6,810.8,374.6,814.6,374.6L814.6,374.6z"/>
	</g>
</g>
<g class="st6">
	<g>
		<path class="st5" d="M1468.7,161.6c3.9,0,3.9-6,0-6C1464.9,155.6,1464.8,161.6,1468.7,161.6L1468.7,161.6z"/>
	</g>
</g>
<g class="st6">
	<g>
		<path class="st5" d="M1468.7,251.6c3.9,0,3.9-6,0-6C1464.9,245.6,1464.8,251.6,1468.7,251.6L1468.7,251.6z"/>
	</g>
</g>
<g class="st6">
	<g>
		<path class="st5" d="M277.6,323.6c3.9,0,3.9-6,0-6C273.7,317.6,273.7,323.6,277.6,323.6L277.6,323.6z"/>
	</g>
</g>
<g class="st6">
	<g>
		<path class="st5" d="M166.6,182.6c3.9,0,3.9-6,0-6C162.7,176.6,162.7,182.6,166.6,182.6L166.6,182.6z"/>
	</g>
</g>
<g class="st6">
	<g>
		<path class="st5" d="M1406.8,523.8c3.9,0,3.9-6,0-6C1403,517.8,1403,523.8,1406.8,523.8L1406.8,523.8z"/>
	</g>
</g>
<g class="st6">
	<g>
		<path class="st5" d="M1592.8,449.8c3.9,0,3.9-6,0-6C1589,443.8,1589,449.8,1592.8,449.8L1592.8,449.8z"/>
	</g>
</g>
<g class="st6">
	<g>
		<path class="st5" d="M858.8,415.8c3.9,0,3.9-6,0-6C855,409.8,855,415.8,858.8,415.8L858.8,415.8z"/>
	</g>
</g>
<g class="st6">
	<g>
		<path class="st5" d="M704.8,303.8c3.9,0,3.9-6,0-6C701,297.8,701,303.8,704.8,303.8L704.8,303.8z"/>
	</g>
</g>
<g class="st6">
	<g>
		<path class="st5" d="M1010.8,253.8c3.9,0,3.9-6,0-6C1007,247.8,1007,253.8,1010.8,253.8L1010.8,253.8z"/>
	</g>
</g>
<g class="st6">
	<g>
		<path class="st5" d="M678.8,143.8c3.9,0,3.9-6,0-6C675,137.8,675,143.8,678.8,143.8L678.8,143.8z"/>
	</g>
</g>
<g class="st6">
	<g>
		<path class="st5" d="M298.8,391.8c3.9,0,3.9-6,0-6C295,385.8,295,391.8,298.8,391.8L298.8,391.8z"/>
	</g>
</g>
<g class="st6">
	<g>
		<path class="st5" d="M228.8,347.8c3.9,0,3.9-6,0-6C225,341.8,225,347.8,228.8,347.8L228.8,347.8z"/>
	</g>
</g>
<g class="st6">
	<g>
		<path class="st5" d="M104.8,195.8c3.9,0,3.9-6,0-6C101,189.8,101,195.8,104.8,195.8L104.8,195.8z"/>
	</g>
</g>
<g class="st6">
	<g>
		<path class="st5" d="M398.8,291.8c3.9,0,3.9-6,0-6C395,285.8,395,291.8,398.8,291.8L398.8,291.8z"/>
	</g>
</g>
<g class="st6">
	<g>
		<path class="st5" d="M74.8,389.8c3.9,0,3.9-6,0-6C71,383.8,71,389.8,74.8,389.8L74.8,389.8z"/>
	</g>
</g>
<g class="st6">
	<g>
		<path class="st5" d="M1880.8,111.8c3.9,0,3.9-6,0-6C1877,105.8,1877,111.8,1880.8,111.8L1880.8,111.8z"/>
	</g>
</g>
<g class="st6">
	<g>
		<path class="st5" d="M1920.8,281.8c3.9,0,3.9-6,0-6C1917,275.8,1917,281.8,1920.8,281.8L1920.8,281.8z"/>
	</g>
</g>
<g class="st6">
	<g>
		<path class="st5" d="M380.8,26.3c1.9,0,1.9-3,0-3C378.9,23.3,378.9,26.3,380.8,26.3L380.8,26.3z"/>
	</g>
</g>
<g class="st6">
	<g>
		<path class="st5" d="M478.8,58.3c1.9,0,1.9-3,0-3C476.9,55.3,476.9,58.3,478.8,58.3L478.8,58.3z"/>
	</g>
</g>
<g class="st6">
	<g>
		<path class="st5" d="M656.8,56.3c1.9,0,1.9-3,0-3C654.9,53.3,654.9,56.3,656.8,56.3L656.8,56.3z"/>
	</g>
</g>
<g class="st6">
	<g>
		<path class="st5" d="M790.8,126.3c1.9,0,1.9-3,0-3C788.9,123.3,788.9,126.3,790.8,126.3L790.8,126.3z"/>
	</g>
</g>
<g class="st6">
	<g>
		<path class="st5" d="M1016.8,104.3c1.9,0,1.9-3,0-3C1014.9,101.3,1014.9,104.3,1016.8,104.3L1016.8,104.3z"/>
	</g>
</g>
<g class="st6">
	<g>
		<path class="st5" d="M1142.8,104.3c1.9,0,1.9-3,0-3C1140.9,101.3,1140.9,104.3,1142.8,104.3L1142.8,104.3z"/>
	</g>
</g>
<g class="st6">
	<g>
		<path class="st5" d="M1282.8,92.3c1.9,0,1.9-3,0-3C1280.9,89.3,1280.9,92.3,1282.8,92.3L1282.8,92.3z"/>
	</g>
</g>
<g class="st6">
	<g>
		<path class="st5" d="M1538.8,96.3c1.9,0,1.9-3,0-3C1536.9,93.3,1536.9,96.3,1538.8,96.3L1538.8,96.3z"/>
	</g>
</g>
<g class="st6">
	<g>
		<path class="st5" d="M1642.8,78.3c1.9,0,1.9-3,0-3C1640.9,75.3,1640.9,78.3,1642.8,78.3L1642.8,78.3z"/>
	</g>
</g>
<g class="st6">
	<g>
		<path class="st5" d="M1708.8,226.3c1.9,0,1.9-3,0-3C1706.9,223.3,1706.9,226.3,1708.8,226.3L1708.8,226.3z"/>
	</g>
</g>
<g class="st6">
	<g>
		<path class="st5" d="M1708.8,124.3c1.9,0,1.9-3,0-3C1706.9,121.3,1706.9,124.3,1708.8,124.3L1708.8,124.3z"/>
	</g>
</g>
<g class="st6">
	<g>
		<path class="st5" d="M1844.8,252.3c1.9,0,1.9-3,0-3C1842.9,249.3,1842.9,252.3,1844.8,252.3L1844.8,252.3z"/>
	</g>
</g>
<g class="st6">
	<g>
		<path class="st5" d="M1096.8,214.3c1.9,0,1.9-3,0-3C1094.9,211.3,1094.9,214.3,1096.8,214.3L1096.8,214.3z"/>
	</g>
</g>
<g class="st6">
	<g>
		<path class="st5" d="M950.8,156.3c1.9,0,1.9-3,0-3C948.9,153.3,948.9,156.3,950.8,156.3L950.8,156.3z"/>
	</g>
</g>
<g class="st6">
	<g>
		<path class="st5" d="M588.8,94.3c1.9,0,1.9-3,0-3C586.9,91.3,586.9,94.3,588.8,94.3L588.8,94.3z"/>
	</g>
</g>
<g class="st6">
	<g>
		<path class="st5" d="M490.8,218.3c1.9,0,1.9-3,0-3C488.9,215.3,488.9,218.3,490.8,218.3L490.8,218.3z"/>
	</g>
</g>
<g class="st6">
	<g>
		<path class="st5" d="M320.8,122.3c1.9,0,1.9-3,0-3C318.9,119.3,318.9,122.3,320.8,122.3L320.8,122.3z"/>
	</g>
</g>
<g class="st6">
	<g>
		<path class="st5" d="M1320.8,152.3c1.9,0,1.9-3,0-3C1318.9,149.3,1318.9,152.3,1320.8,152.3L1320.8,152.3z"/>
	</g>
</g>
<g class="st6">
	<g>
		<path class="st5" d="M1250.8,16.3c1.9,0,1.9-3,0-3C1248.9,13.3,1248.9,16.3,1250.8,16.3L1250.8,16.3z"/>
	</g>
</g>
<g class="st6">
	<g>
		<path class="st5" d="M1424.8,64.3c1.9,0,1.9-3,0-3C1422.9,61.3,1422.9,64.3,1424.8,64.3L1424.8,64.3z"/>
	</g>
</g>
<g class="st6">
	<g>
		<path class="st5" d="M1622.8,62.3c1.9,0,1.9-3,0-3C1620.9,59.3,1620.9,62.3,1622.8,62.3L1622.8,62.3z"/>
	</g>
</g>
<g class="st6">
	<g>
		<path class="st5" d="M1848.8,54.3c1.9,0,1.9-3,0-3C1846.9,51.3,1846.9,54.3,1848.8,54.3L1848.8,54.3z"/>
	</g>
</g>
<g class="st6">
	<g>
		<path class="st5" d="M1944.8,80.3c1.9,0,1.9-3,0-3C1942.9,77.3,1942.9,80.3,1944.8,80.3L1944.8,80.3z"/>
	</g>
</g>
</svg>
