<svg id="Layer_1" data-name="Layer 1" xmlns="http://www.w3.org/2000/svg" xmlns:xlink="http://www.w3.org/1999/xlink" viewBox="0 0 1920 1080"><defs><style>.cls-1{fill:url(#linear-gradient);}.cls-2{fill:url(#linear-gradient-2);}.cls-3{opacity:0.63;}.cls-4{fill:#fff;}.cls-5{opacity:0.24;}</style><linearGradient id="linear-gradient" x1="-173.56" y1="562.58" x2="1277.89" y2="562.58" gradientTransform="translate(529.61 -646.67) scale(0.8 1.86)" gradientUnits="userSpaceOnUse"><stop offset="0" stop-color="#8647be"/><stop offset="1" stop-color="#f8aeff" stop-opacity="0"/></linearGradient><linearGradient id="linear-gradient-2" x1="-181.21" y1="568.11" x2="1270.24" y2="568.11" gradientTransform="translate(525.44 -663.05) scale(0.8 1.86)" gradientUnits="userSpaceOnUse"><stop offset="0" stop-color="#8647be"/><stop offset="1" stop-color="#f8aed1" stop-opacity="0"/></linearGradient></defs><title>header</title><rect class="cls-1" x="391.1" y="-618.27" width="1158.35" height="2031.67" transform="translate(1367.84 -572.71) rotate(90)"/><rect class="cls-2" x="380.83" y="-624.37" width="1158.35" height="2031.67" transform="translate(1351.46 -568.54) rotate(90)"/><g class="cls-3"><path class="cls-4" d="M1159.09,219.15c.91,0,3.13-1.37,1.2-1.37-.92,0-3.13,1.37-1.2,1.37Z"/></g><g class="cls-3"><path class="cls-4" d="M1351.69,172.46c7.72,0,7.73-12,0-12s-7.74,12,0,12Z"/></g><g class="cls-3"><path class="cls-4" d="M262.19,311.46c7.72,0,7.73-12,0-12s-7.74,12,0,12Z"/></g><g class="cls-3"><path class="cls-4" d="M513.69,91.46c3.86,0,3.86-6,0-6s-3.87,6,0,6Z"/></g><g class="cls-3"><path class="cls-4" d="M1294.19,458.46c3.86,0,3.86-6,0-6s-3.87,6,0,6Z"/></g><g class="cls-3"><path class="cls-4" d="M827.69,141c5.79,0,5.8-9,0-9s-5.8,9,0,9Z"/></g><g class="cls-3"><path class="cls-4" d="M1631.69,80a1.5,1.5,0,0,0,0-3,1.5,1.5,0,0,0,0,3Z"/></g><g class="cls-3"><path class="cls-4" d="M331.69,80a1.5,1.5,0,0,0,0-3,1.5,1.5,0,0,0,0,3Z"/></g><g class="cls-3"><path class="cls-4" d="M471.69,150a1.5,1.5,0,0,0,0-3,1.5,1.5,0,0,0,0,3Z"/></g><g class="cls-3"><path class="cls-4" d="M1149.69,56a1.5,1.5,0,0,0,0-3,1.5,1.5,0,0,0,0,3Z"/></g><g class="cls-3"><path class="cls-4" d="M1694.19,455a1.5,1.5,0,0,0,0-3,1.5,1.5,0,0,0,0,3Z"/></g><g class="cls-3"><path class="cls-4" d="M1807.69,222a1.5,1.5,0,0,0,0-3,1.5,1.5,0,0,0,0,3Z"/></g><g class="cls-3"><path class="cls-4" d="M1843.69,22a1.5,1.5,0,0,0,0-3,1.5,1.5,0,0,0,0,3Z"/></g><g class="cls-3"><path class="cls-4" d="M1777.69,110a1.5,1.5,0,0,0,0-3,1.5,1.5,0,0,0,0,3Z"/></g><g class="cls-3"><path class="cls-4" d="M542.19,312.46c3.86,0,3.86-6,0-6s-3.87,6,0,6Z"/></g><g class="cls-3"><path class="cls-4" d="M119.69,75.46c3.86,0,3.86-6,0-6s-3.87,6,0,6Z"/></g><g class="cls-3"><path class="cls-4" d="M1139.69,129.46c3.86,0,3.86-6,0-6s-3.87,6,0,6Z"/></g><g class="cls-3"><path class="cls-4" d="M1395.69,51.46c3.86,0,3.86-6,0-6s-3.87,6,0,6Z"/></g><g class="cls-3"><path class="cls-4" d="M1711.69,231.46c3.86,0,3.86-6,0-6s-3.87,6,0,6Z"/></g><g class="cls-3"><path class="cls-4" d="M769.69,45.46c3.86,0,3.86-6,0-6s-3.87,6,0,6Z"/></g><g class="cls-3"><path class="cls-4" d="M721.69,291c5.79,0,5.8-9,0-9s-5.8,9,0,9Z"/></g><g class="cls-3"><path class="cls-4" d="M981.69,73c5.79,0,5.8-9,0-9s-5.8,9,0,9Z"/></g><g class="cls-5"><path class="cls-4" d="M1071.14,193.37c1.2,0,3-1.81,1.09-1.81-1.2,0-3,1.81-1.09,1.81Z"/></g><g class="cls-5"><path class="cls-4" d="M1464.75,123.07c.64,0,3.29-1.22,1.87-1.22-.64,0-3.29,1.22-1.87,1.22Z"/></g><g class="cls-5"><path class="cls-4" d="M1583.15,277.4c1.24,0,3-1.87,1.07-1.87-1.23,0-3,1.87-1.07,1.87Z"/></g><g class="cls-5"><path class="cls-4" d="M757.56,123.54c1.67,0,2.22-2.16.25-2.16-1.67,0-2.21,2.16-.25,2.16Z"/></g><g class="cls-5"><path class="cls-4" d="M881.07,55.09c.85,0,3.15-1.26,1.23-1.26-.85,0-3.15,1.26-1.23,1.26Z"/></g><g class="cls-5"><path class="cls-4" d="M909.15,141.39c1.23,0,3-1.86,1.07-1.86-1.23,0-3,1.86-1.07,1.86Z"/></g><g class="cls-5"><path class="cls-4" d="M500.75,129.07c.64,0,3.29-1.22,1.87-1.22-.64,0-3.29,1.22-1.87,1.22Z"/></g><g class="cls-5"><path class="cls-4" d="M403.09,81.18c1,0,3.12-1.44,1.19-1.44-1,0-3.12,1.44-1.19,1.44Z"/></g><g class="cls-5"><path class="cls-4" d="M372.75,207.07c.63,0,3.28-1.21,1.87-1.21-.63,0-3.28,1.21-1.87,1.21Z"/></g><g class="cls-5"><path class="cls-4" d="M190.74,135c.58,0,3.26-1.12,1.89-1.12-.58,0-3.26,1.12-1.89,1.12Z"/></g><g class="cls-5"><path class="cls-4" d="M95.15,167.37c1.2,0,3-1.82,1.08-1.82-1.21,0-3,1.82-1.08,1.82Z"/></g><g class="cls-5"><path class="cls-4" d="M209.56,219.55c1.67,0,2.21-2.17.25-2.17-1.67,0-2.21,2.17-.25,2.17Z"/></g><g class="cls-5"><path class="cls-4" d="M1585.56,65.53c1.66,0,2.22-2.13.25-2.13-1.66,0-2.22,2.13-.25,2.13Z"/></g><g class="cls-5"><path class="cls-4" d="M1593.09,185.15c.91,0,3.13-1.37,1.2-1.37-.92,0-3.13,1.37-1.2,1.37Z"/></g><g class="cls-5"><path class="cls-4" d="M1459.11,87.22c1,0,3.1-1.52,1.16-1.52-1,0-3.11,1.52-1.16,1.52Z"/></g><g class="cls-5"><path class="cls-4" d="M1513.55,235.5c1.64,0,2.24-2.08.27-2.08-1.64,0-2.24,2.08-.27,2.08Z"/></g><g class="cls-5"><path class="cls-4" d="M1613.16,145.44c1.3,0,3-2,1-2-1.3,0-3,2-1,2Z"/></g><g class="cls-5"><path class="cls-4" d="M1234.75,123.07c.64,0,3.28-1.21,1.87-1.21-.63,0-3.28,1.21-1.87,1.21Z"/></g><g class="cls-5"><path class="cls-4" d="M1336.76,247.09c.66,0,3.29-1.25,1.86-1.25-.66,0-3.3,1.25-1.86,1.25Z"/></g><g class="cls-5"><path class="cls-4" d="M891.76,229.56c1.3,0,3-2,1-2-1.29,0-3,2-1,2Z"/></g><g class="cls-5"><path class="cls-4" d="M969.71,310.39c1.08,0,3.08-1.63,1.13-1.63-1.08,0-3.08,1.63-1.13,1.63Z"/></g><g class="cls-5"><path class="cls-4" d="M538.57,114.36c1.72,0,6.29-2.56,2.45-2.56-1.71,0-6.29,2.56-2.45,2.56Z"/></g><g class="cls-5"><path class="cls-4" d="M642.9,166.7c1.16,0,6.52-2.24,3.79-2.24-1.16,0-6.52,2.24-3.79,2.24Z"/></g><g class="cls-5"><path class="cls-4" d="M628.08,65.86c3.41,0,4.35-4.55.43-4.55-3.42,0-4.35,4.55-.43,4.55Z"/></g><g class="cls-5"><path class="cls-4" d="M915.08,213.44c1.82,0,6.26-2.73,2.4-2.73-1.82,0-6.26,2.73-2.4,2.73Z"/></g><g class="cls-5"><path class="cls-4" d="M1732.66,35.43c2.44,0,6.06-3.69,2.15-3.69-2.43,0-6,3.69-2.15,3.69Z"/></g><g class="cls-5"><path class="cls-4" d="M1836,117.41c1.77,0,6.28-2.65,2.43-2.65-1.78,0-6.28,2.65-2.43,2.65Z"/></g><g class="cls-5"><path class="cls-4" d="M1723.63,291.79c2.28,0,6.12-3.43,2.22-3.43-2.28,0-6.12,3.43-2.22,3.43Z"/></g><g class="cls-5"><path class="cls-4" d="M1722.87,398.79c1.28,0,6.58-2.45,3.74-2.45-1.28,0-6.58,2.45-3.74,2.45Z"/></g><g class="cls-5"><path class="cls-4" d="M1500.16,376.86c2.38,0,6.08-3.58,2.18-3.58-2.37,0-6.08,3.58-2.18,3.58Z"/></g><g class="cls-5"><path class="cls-4" d="M1328.38,229.77c1.25,0,6.56-2.38,3.76-2.38-1.25,0-6.56,2.38-3.76,2.38Z"/></g><g class="cls-5"><path class="cls-4" d="M1163.39,271.75c1.22,0,6.55-2.35,3.76-2.35-1.23,0-6.55,2.35-3.76,2.35Z"/></g><g class="cls-5"><path class="cls-4" d="M1171.59,309c2,0,6.23-2.94,2.35-2.94-2,0-6.22,2.94-2.35,2.94Z"/></g><g class="cls-5"><path class="cls-4" d="M1031.51,354.67c3.29,0,4.47-4.2.53-4.2-3.29,0-4.47,4.2-.53,4.2Z"/></g><g class="cls-5"><path class="cls-4" d="M918.09,273.49c1.89,0,6.25-2.83,2.38-2.83-1.89,0-6.25,2.83-2.38,2.83Z"/></g><g class="cls-5"><path class="cls-4" d="M893.51,101.65c3.27,0,4.48-4.13.54-4.13-3.27,0-4.48,4.13-.54,4.13Z"/></g><g class="cls-5"><path class="cls-4" d="M588.24,245.49c2.53,0,6-3.83,2.11-3.83-2.53,0-6,3.83-2.11,3.83Z"/></g><g class="cls-5"><path class="cls-4" d="M629.57,305.3c3.38,0,4.38-4.46.45-4.46-3.38,0-4.38,4.46-.45,4.46Z"/></g><g class="cls-5"><path class="cls-4" d="M459.9,228.19c1.16,0,6.53-2.23,3.8-2.23-1.16,0-6.52,2.23-3.8,2.23Z"/></g><g class="cls-5"><path class="cls-4" d="M328.08,202.32c3.4,0,4.38-4.49.45-4.49-3.39,0-4.37,4.49-.45,4.49Z"/></g><g class="cls-5"><path class="cls-4" d="M280.69,129.73c2.18,0,6.15-3.3,2.25-3.3-2.19,0-6.15,3.3-2.25,3.3Z"/></g><g class="cls-5"><path class="cls-4" d="M300.25,301c2.5,0,6-3.79,2.12-3.79-2.5,0-6,3.79-2.12,3.79Z"/></g><g class="cls-5"><path class="cls-4" d="M178.74,198.92c2.44,0,6.06-3.68,2.15-3.68-2.44,0-6,3.68-2.15,3.68Z"/></g><g class="cls-5"><path class="cls-4" d="M481.3,44.09c3.86,0,3.87-6,0-6s-3.87,6,0,6Z"/></g><g class="cls-5"><path class="cls-4" d="M1550.75,47.09c3.86,0,3.87-6,0-6s-3.87,6,0,6Z"/></g><g class="cls-5"><path class="cls-4" d="M668.47,279.24c3.86,0,3.87-6,0-6s-3.86,6,0,6Z"/></g><g class="cls-5"><path class="cls-4" d="M833.49,273.24c3.86,0,3.87-6,0-6s-3.87,6,0,6Z"/></g><g class="cls-5"><path class="cls-4" d="M802,421.25c3.86,0,3.86-6,0-6s-3.87,6,0,6Z"/></g><g class="cls-5"><path class="cls-4" d="M1445.55,231.23c3.86,0,3.87-6,0-6s-3.87,6,0,6Z"/></g><g class="cls-5"><path class="cls-4" d="M1445.55,321.24c3.86,0,3.87-6,0-6s-3.87,6,0,6Z"/></g><g class="cls-5"><path class="cls-4" d="M264.93,370.25c3.86,0,3.87-6,0-6s-3.87,6,0,6Z"/></g><g class="cls-5"><path class="cls-4" d="M143.42,252.24c3.86,0,3.87-6,0-6s-3.87,6,0,6Z"/></g><g class="cls-5"><path class="cls-4" d="M1394.19,570.46c3.86,0,3.86-6,0-6s-3.87,6,0,6Z"/></g><g class="cls-5"><path class="cls-4" d="M1580.19,496.46c3.86,0,3.86-6,0-6s-3.87,6,0,6Z"/></g><g class="cls-5"><path class="cls-4" d="M846.19,462.46c3.86,0,3.86-6,0-6s-3.87,6,0,6Z"/></g><g class="cls-5"><path class="cls-4" d="M692.19,350.46c3.86,0,3.86-6,0-6s-3.87,6,0,6Z"/></g><g class="cls-5"><path class="cls-4" d="M987.69,323.46c3.86,0,3.86-6,0-6s-3.87,6,0,6Z"/></g><g class="cls-5"><path class="cls-4" d="M655.69,213.46c3.86,0,3.86-6,0-6s-3.87,6,0,6Z"/></g><g class="cls-5"><path class="cls-4" d="M286.19,438.46c3.86,0,3.86-6,0-6s-3.87,6,0,6Z"/></g><g class="cls-5"><path class="cls-4" d="M216.19,394.46c3.86,0,3.86-6,0-6s-3.87,6,0,6Z"/></g><g class="cls-5"><path class="cls-4" d="M81.69,265.46c3.86,0,3.86-6,0-6s-3.87,6,0,6Z"/></g><g class="cls-5"><path class="cls-4" d="M386.19,338.46c3.86,0,3.86-6,0-6s-3.87,6,0,6Z"/></g><g class="cls-5"><path class="cls-4" d="M62.19,436.46c3.86,0,3.86-6,0-6s-3.87,6,0,6Z"/></g><g class="cls-5"><path class="cls-4" d="M1857.69,181.46c3.86,0,3.86-6,0-6s-3.87,6,0,6Z"/></g><g class="cls-5"><path class="cls-4" d="M1908.19,328.46c3.86,0,3.86-6,0-6s-3.87,6,0,6Z"/></g><g class="cls-5"><path class="cls-4" d="M357.69,96a1.5,1.5,0,0,0,0-3,1.5,1.5,0,0,0,0,3Z"/></g><g class="cls-5"><path class="cls-4" d="M455.69,128a1.5,1.5,0,0,0,0-3,1.5,1.5,0,0,0,0,3Z"/></g><g class="cls-5"><path class="cls-4" d="M633.69,126a1.5,1.5,0,0,0,0-3,1.5,1.5,0,0,0,0,3Z"/></g><g class="cls-5"><path class="cls-4" d="M767.69,196a1.5,1.5,0,0,0,0-3,1.5,1.5,0,0,0,0,3Z"/></g><g class="cls-5"><path class="cls-4" d="M993.69,174a1.5,1.5,0,0,0,0-3,1.5,1.5,0,0,0,0,3Z"/></g><g class="cls-5"><path class="cls-4" d="M1119.69,174a1.5,1.5,0,0,0,0-3,1.5,1.5,0,0,0,0,3Z"/></g><g class="cls-5"><path class="cls-4" d="M1259.69,162a1.5,1.5,0,0,0,0-3,1.5,1.5,0,0,0,0,3Z"/></g><g class="cls-5"><path class="cls-4" d="M1339.69,34a1.5,1.5,0,0,0,0-3,1.5,1.5,0,0,0,0,3Z"/></g><g class="cls-5"><path class="cls-4" d="M1515.69,166a1.5,1.5,0,0,0,0-3,1.5,1.5,0,0,0,0,3Z"/></g><g class="cls-5"><path class="cls-4" d="M1619.69,148a1.5,1.5,0,0,0,0-3,1.5,1.5,0,0,0,0,3Z"/></g><g class="cls-5"><path class="cls-4" d="M1685.69,296a1.5,1.5,0,0,0,0-3,1.5,1.5,0,0,0,0,3Z"/></g><g class="cls-5"><path class="cls-4" d="M1685.69,194a1.5,1.5,0,0,0,0-3,1.5,1.5,0,0,0,0,3Z"/></g><g class="cls-5"><path class="cls-4" d="M1821.69,322a1.5,1.5,0,0,0,0-3,1.5,1.5,0,0,0,0,3Z"/></g><g class="cls-5"><path class="cls-4" d="M1073.69,284a1.5,1.5,0,0,0,0-3,1.5,1.5,0,0,0,0,3Z"/></g><g class="cls-5"><path class="cls-4" d="M927.69,226a1.5,1.5,0,0,0,0-3,1.5,1.5,0,0,0,0,3Z"/></g><g class="cls-5"><path class="cls-4" d="M565.69,164a1.5,1.5,0,0,0,0-3,1.5,1.5,0,0,0,0,3Z"/></g><g class="cls-5"><path class="cls-4" d="M467.69,288a1.5,1.5,0,0,0,0-3,1.5,1.5,0,0,0,0,3Z"/></g><g class="cls-5"><path class="cls-4" d="M297.69,192a1.5,1.5,0,0,0,0-3,1.5,1.5,0,0,0,0,3Z"/></g><g class="cls-5"><path class="cls-4" d="M173.69,22a1.5,1.5,0,0,0,0-3,1.5,1.5,0,0,0,0,3Z"/></g><g class="cls-5"><path class="cls-4" d="M1297.69,222a1.5,1.5,0,0,0,0-3,1.5,1.5,0,0,0,0,3Z"/></g><g class="cls-5"><path class="cls-4" d="M1227.69,86a1.5,1.5,0,0,0,0-3,1.5,1.5,0,0,0,0,3Z"/></g><g class="cls-5"><path class="cls-4" d="M1401.69,134a1.5,1.5,0,0,0,0-3,1.5,1.5,0,0,0,0,3Z"/></g><g class="cls-5"><path class="cls-4" d="M1599.69,132a1.5,1.5,0,0,0,0-3,1.5,1.5,0,0,0,0,3Z"/></g><g class="cls-5"><path class="cls-4" d="M1825.69,124a1.5,1.5,0,0,0,0-3,1.5,1.5,0,0,0,0,3Z"/></g><g class="cls-5"><path class="cls-4" d="M1899.69,60a1.5,1.5,0,0,0,0-3,1.5,1.5,0,0,0,0,3Z"/></g></svg>
