<svg id="Layer_1" data-name="Layer 1" xmlns="http://www.w3.org/2000/svg" viewBox="0 0 2553.39 500.5"><defs><style>.cls-1{fill:#31c5f0;}.cls-2{fill:#1d1c36;}.cls-3{fill:#ff7f18;}.cls-4{fill:#261300;}.cls-5{fill:#e579ff;}.cls-6{fill:#d291ff;}.cls-7{fill:#1f0040;}</style></defs><title>psicons</title><rect id="Прямоугольник_скругл._углы_1" data-name="Прямоугольник скругл. углы 1" class="cls-1" y="0.5" width="500" height="500"/><rect id="Прямоугольник_скругл._углы_1_копия" data-name="Прямоугольник скругл. углы 1 копия" class="cls-2" x="25" y="25.5" width="450" height="450"/><path id="Ps_копия" data-name="Ps копия" class="cls-1" d="M305.86,409.34h36.6v-76.5c5.1,1.2,11.1,1.5,18,1.5,26.1,0,48.9-7.2,63.9-21.9,11.1-10.8,17.1-26.4,17.1-45.6,0-18.9-7.8-34.8-19.8-44.7-12.9-10.8-32.4-16.5-59.4-16.5-24.6,0-41.9-.3-56.46-.3Zm36.6-173.4c3.9-.9,11.1-1.8,21.3-1.8,25.5,0,41.1,11.7,41.1,34.2,0,23.4-16.8,37.2-44.4,37.2-7.5,0-13.2-.3-18-1.8Zm114.3,163.2c10.8,6,26.7,10.2,44.4,10.2,38.7,0,59.4-19.2,59.4-45.9-.3-21.6-12.3-35.1-39-44.4-18.6-6.9-25.5-11.1-25.5-20.4,0-9,7.2-15.6,20.4-15.6,12.9,0,32.34,4.7,38.34,8.3l.06-25.7c-8.7-4.8-22.8-8.7-39-8.7-33.9,0-55.2,19.8-55.2,45.6,0,17.4,11.7,33,40.2,42.6,18,6.6,24,11.4,24,21.3,0,9.6-7.2,16.5-23.4,16.5-13.2,0-36.55-5.5-44.65-10.6Z" transform="translate(-182.8 -57.84)"/><rect id="Прямоугольник_скругл._углы_1-2" data-name="Прямоугольник скругл. углы 1" class="cls-3" x="684.46" y="0.5" width="500" height="500"/><rect id="Прямоугольник_скругл._углы_1_копия-2" data-name="Прямоугольник скругл. углы 1 копия" class="cls-4" x="709.46" y="25.5" width="450" height="450"/><path id="Ai_копия" data-name="Ai копия" class="cls-3" d="M1115.92,353l18.3,57.3h39.9l-65.85-205h-47l-64.75,205h38.1L1052,353Zm-57.9-27.9,15.6-49.8c3.3-12,6.6-26.1,9.6-37.8h.6c3,11.7,6.3,25.5,10.2,37.8l15.9,49.8Zm178.2,85.2V264.24h-36.9v146.1Zm-18.3-205c-12.3,0-20.7,8.7-20.7,20.1,0,10.8,8.1,19.8,20.4,19.8,12.9,0,21-9,21-19.8-.3-11.4-8.1-20.1-20.7-20.1Z" transform="translate(-182.8 -57.84)"/><rect id="Прямоугольник_скругл._углы_1-3" data-name="Прямоугольник скругл. углы 1" class="cls-5" x="1368.93" y="0.5" width="500" height="500"/><rect id="Прямоугольник_скругл._углы_1_копия-3" data-name="Прямоугольник скругл. углы 1 копия" class="cls-4" x="1393.93" y="25.5" width="450" height="450"/><path id="Lr_копия_2" data-name="Lr копия 2" class="cls-5" d="M1681.18,409.34h36.6v-76.5c5.1,1.2,11.1,1.5,18,1.5,26.1,0,48.9-7.2,63.9-21.9,11.1-10.8,17.1-26.4,17.1-45.6,0-18.9-7.8-34.8-19.8-44.7-12.9-10.8-32.4-16.5-59.4-16.5-24.6,0-42.9,1.8-56.4,4.2Zm36.6-173.4c3.9-.9,11.1-1.8,21.3-1.8,25.5,0,41.1,11.7,41.1,34.2,0,23.4-16.8,37.2-44.4,37.2-7.5,0-13.2-.3-18-1.8Zm123.3,174.4H1878v-75.9c0-3.9.15-19.8.75-23.1,3.3-16.8,15.75-18.9,33.15-18.9,4.5,0,7.88.88,11.1.9v-31.5a38.55,38.55,0,0,0-8.7-.9c-25.91,0-73.94,13.11-73.55,33.4.13,6.7.35,8.68.35,17v99Z" transform="translate(-182.8 -57.84)"/><rect id="Прямоугольник_скругл._углы_1-4" data-name="Прямоугольник скругл. углы 1" class="cls-6" x="2053.39" width="500" height="500"/><rect id="Прямоугольник_скругл._углы_1_копия-4" data-name="Прямоугольник скругл. углы 1 копия" class="cls-7" x="2078.39" y="25" width="450" height="450"/><path id="Ai_копия_2" data-name="Ai копия 2" class="cls-6" d="M2625.1,344.31a98.79,98.79,0,0,0,1.09-15.56c0-32-14.16-70.91-57.18-70.91-42.49,0-64.81,38-64.81,78.39,0,44.58,25.32,73.6,68.35,73.6,19.06,0,25.2-3.61,36.64-9l4.75-25.4a98.47,98.47,0,0,1-36.77,6.58c-21.51,0-40-11.37-40.84-37.7Zm-88.77-25.73c1.36-15,10.08-35.6,30.77-35.6,22.33,0,27.78,22.14,27.5,35.6Zm-85.49,34,18.3,57.3H2509l-65.85-205h-47l-64.75,205h38.1l17.4-57.3Zm-57.9-27.9,15.6-49.8c3.3-12,6.6-26.1,9.6-37.8h.6c3,11.7,6.3,25.5,10.2,37.8l15.9,49.8Z" transform="translate(-182.8 -57.84)"/></svg>
