<svg xmlns="http://www.w3.org/2000/svg" viewBox="0 0 286.86 160.96"><defs><style>.cls-1,.cls-2{stroke:#000;stroke-miterlimit:10;}.cls-2{fill:#fff;stroke-width:4px;}</style></defs><title>tkg-logo2</title><g id="Layer_2" data-name="Layer 2"><rect class="cls-1" x="34" y="44.21" width="13.67" height="52"/><rect class="cls-1" x="675.32" y="631.71" width="13.67" height="48.3" transform="translate(714.02 -565.41) rotate(90)"/><rect class="cls-1" x="68.64" y="44.21" width="13.67" height="65.7"/><rect class="cls-1" x="641.25" y="552.38" width="13.67" height="47.17" transform="translate(600.05 -611.24) rotate(90)"/><rect class="cls-1" x="624.5" y="541.75" width="13.67" height="26.85" transform="translate(638.67 571.22) rotate(180)"/><rect class="cls-1" x="667.49" y="512.42" width="13.67" height="72.31" transform="translate(598.9 -664.87) rotate(90)"/><rect class="cls-1" x="709.39" y="552.93" width="13.67" height="47.17" transform="translate(668.74 -678.83) rotate(90)"/><rect class="cls-1" x="726.14" y="541.75" width="13.67" height="27.94" transform="translate(841.94 572.3) rotate(180)"/><path class="cls-1" d="M830.5,631.87,822,643.25c1.42,3,55.4,43.72,84.71-2.83,0,0,6.54-11.8,2-40.54H848.67V612.5h46.86s9,30.25-20.78,34S830.5,631.87,830.5,631.87Z" transform="translate(-624 -539.13)"/><path class="cls-1" d="M829,572.4l-1.67-17.23s13.79-13.42,34-13.42,40.77,9,48.77,29.37l-9.12,9.5s-18.78-24.12-35.53-24S829,572.4,829,572.4Z" transform="translate(-624 -539.13)"/><rect class="cls-2" x="771.17" y="539.84" width="13.67" height="66.61" transform="translate(-156.94 -880.91) rotate(34.85)"/><rect class="cls-2" x="774.87" y="605.21" width="13.67" height="61.65" transform="translate(1160.21 -6.09) rotate(135)"/></g><g id="Layer_3" data-name="Layer 3"><path d="M661,698.83a9.3,9.3,0,0,1-3.58-3.46,10.16,10.16,0,0,1,0-9.91,9.3,9.3,0,0,1,3.59-3.45,10.49,10.49,0,0,1,5.14-1.26,10.85,10.85,0,0,1,4,.74,8.44,8.44,0,0,1,3.13,2.2l-1.76,1.71a7,7,0,0,0-5.32-2.25,7.68,7.68,0,0,0-3.8,1,6.75,6.75,0,0,0-2.66,2.61,7.65,7.65,0,0,0,0,7.42,6.75,6.75,0,0,0,2.66,2.61,7.68,7.68,0,0,0,3.8.94,7.06,7.06,0,0,0,5.32-2.27l1.76,1.7a8.59,8.59,0,0,1-3.15,2.22,10.71,10.71,0,0,1-4.06.75A10.41,10.41,0,0,1,661,698.83Z" transform="translate(-624 -539.13)"/><path d="M716.86,699.87l-4.07-5.81c-.51,0-.9.06-1.19.06h-4.67v5.75h-2.7V681h7.37a8.77,8.77,0,0,1,5.78,1.75,6,6,0,0,1,2.1,4.84,6.33,6.33,0,0,1-1.08,3.72,6.06,6.06,0,0,1-3.08,2.24l4.49,6.35Zm-1.43-9.16a4.35,4.35,0,0,0,0-6.3,6.07,6.07,0,0,0-3.91-1.09h-4.59v8.5h4.59A6,6,0,0,0,715.43,690.71Z" transform="translate(-624 -539.13)"/><path d="M764.57,697.52v2.35H750.86V681h13.33v2.35H753.56v5.8H763v2.3h-9.47v6.1Z" transform="translate(-624 -539.13)"/><path d="M808,695.14h-10l-2.07,4.73h-2.79l8.56-18.9h2.68l8.58,18.9h-2.83ZM807,693,803,683.72,798.89,693Z" transform="translate(-624 -539.13)"/><path d="M845.52,683.32H839V681h15.63v2.35h-6.48v16.55h-2.67Z" transform="translate(-624 -539.13)"/><path d="M898.33,697.52v2.35H884.61V681H898v2.35H887.31v5.8h9.48v2.3h-9.48v6.1Z" transform="translate(-624 -539.13)"/></g></svg>
