<svg xmlns="http://www.w3.org/2000/svg" viewBox="0 0 302.87 158.79"><defs><style>.cls-1{stroke:#000;stroke-miterlimit:10;}.cls-2{font-size:27px;font-family:Montserrat-Medium, Montserrat;letter-spacing:1em;}.cls-3{letter-spacing:0.97em;}</style></defs><title>tkg-logo</title><g id="Layer_2" data-name="Layer 2"><rect class="cls-1" x="34" y="42.12" width="13.67" height="52"/><rect class="cls-1" x="675.32" y="631.71" width="13.67" height="48.3" transform="translate(714.02 -567.5) rotate(90)"/><rect class="cls-1" x="68.64" y="42.12" width="13.67" height="65.7"/><rect class="cls-1" x="641.25" y="552.38" width="13.67" height="47.17" transform="translate(600.05 -613.33) rotate(90)"/><rect class="cls-1" x="624.5" y="541.75" width="13.67" height="26.85" transform="translate(638.67 569.13) rotate(180)"/><rect class="cls-1" x="667.49" y="512.42" width="13.67" height="72.31" transform="translate(598.9 -666.96) rotate(90)"/><rect class="cls-1" x="709.39" y="552.93" width="13.67" height="47.17" transform="translate(668.74 -680.92) rotate(90)"/><rect class="cls-1" x="726.14" y="541.75" width="13.67" height="27.94" transform="translate(841.94 570.21) rotate(180)"/><path class="cls-1" d="M830.5,631.87,822,643.25c1.42,3,55.4,43.72,84.71-2.83,0,0,6.54-11.8,2-40.54H848.67V612.5h46.86s9,30.25-20.78,34S830.5,631.87,830.5,631.87Z" transform="translate(-624 -541.21)"/><path class="cls-1" d="M829,572.4l-1.67-17.23s13.79-13.42,34-13.42,40.77,9,48.77,29.37l-9.12,9.5s-18.78-24.12-35.53-24S829,572.4,829,572.4Z" transform="translate(-624 -541.21)"/><rect class="cls-1" x="771.17" y="539.84" width="13.67" height="66.61" transform="translate(-156.94 -883) rotate(34.85)"/><rect class="cls-1" x="774.87" y="605.21" width="13.67" height="61.65" transform="translate(1160.21 -8.18) rotate(135)"/></g><g id="Layer_3" data-name="Layer 3"><text class="cls-2" transform="translate(30.87 149.15)">CRE<tspan class="cls-3" x="138.24" y="0">A</tspan><tspan x="184.06" y="0">TE</tspan></text></g></svg>
