<svg id="Layer_2" data-name="Layer 2" xmlns="http://www.w3.org/2000/svg" viewBox="0 0 286.86 126.37"><defs><style>.cls-1,.cls-2{stroke:#000;stroke-miterlimit:10;}.cls-2{fill:#fff;stroke-width:4px;}</style></defs><title>tkg-logo</title><rect class="cls-1" x="34" y="44.21" width="13.67" height="52"/><rect class="cls-1" x="675.32" y="631.71" width="13.67" height="48.3" transform="translate(714.02 -565.41) rotate(90)"/><rect class="cls-1" x="68.64" y="44.21" width="13.67" height="65.7"/><rect class="cls-1" x="641.25" y="552.38" width="13.67" height="47.17" transform="translate(600.05 -611.24) rotate(90)"/><rect class="cls-1" x="624.5" y="541.75" width="13.67" height="26.85" transform="translate(638.67 571.22) rotate(180)"/><rect class="cls-1" x="667.49" y="512.42" width="13.67" height="72.31" transform="translate(598.9 -664.87) rotate(90)"/><rect class="cls-1" x="709.39" y="552.93" width="13.67" height="47.17" transform="translate(668.74 -678.83) rotate(90)"/><rect class="cls-1" x="726.14" y="541.75" width="13.67" height="27.94" transform="translate(841.94 572.3) rotate(180)"/><path class="cls-1" d="M830.5,631.87,822,643.25c1.42,3,55.4,43.72,84.71-2.83,0,0,6.54-11.8,2-40.54H848.67V612.5h46.86s9,30.25-20.78,34S830.5,631.87,830.5,631.87Z" transform="translate(-624 -539.13)"/><path class="cls-1" d="M829,572.4l-1.67-17.23s13.79-13.42,34-13.42,40.77,9,48.77,29.37l-9.12,9.5s-18.78-24.12-35.53-24S829,572.4,829,572.4Z" transform="translate(-624 -539.13)"/><rect class="cls-2" x="771.17" y="539.84" width="13.67" height="66.61" transform="translate(-156.94 -880.91) rotate(34.85)"/><rect class="cls-2" x="774.87" y="605.21" width="13.67" height="61.65" transform="translate(1160.21 -6.09) rotate(135)"/></svg>
